<svg width="194" height="105" viewBox="0 0 194 105" fill="none" xmlns="http://www.w3.org/2000/svg">
<path d="M30.541 73.9988V67.4428H28.385V66.2988H33.951V67.4428H31.729V73.9988H30.541ZM36.2562 74.1088C35.7795 74.1088 35.3432 73.9768 34.9472 73.7128C34.5585 73.4488 34.2469 73.0894 34.0122 72.6348C33.7775 72.1801 33.6602 71.6668 33.6602 71.0948C33.6602 70.5154 33.7775 70.0021 34.0122 69.5548C34.2542 69.1001 34.5769 68.7444 34.9802 68.4878C35.3909 68.2311 35.8492 68.1028 36.3552 68.1028C36.6559 68.1028 36.9309 68.1468 37.1802 68.2348C37.4295 68.3228 37.6459 68.4474 37.8292 68.6088C38.0199 68.7628 38.1739 68.9424 38.2912 69.1478C38.4159 69.3531 38.4929 69.5731 38.5222 69.8078L38.2692 69.7198V68.2238H39.4132V73.9988H38.2692V72.6238L38.5332 72.5468C38.4892 72.7448 38.3975 72.9391 38.2582 73.1298C38.1262 73.3131 37.9539 73.4781 37.7412 73.6248C37.5359 73.7714 37.3049 73.8888 37.0482 73.9768C36.7989 74.0648 36.5349 74.1088 36.2562 74.1088ZM36.5532 73.0638C36.8979 73.0638 37.2022 72.9794 37.4662 72.8108C37.7302 72.6421 37.9355 72.4111 38.0822 72.1178C38.2362 71.8171 38.3132 71.4761 38.3132 71.0948C38.3132 70.7208 38.2362 70.3871 38.0822 70.0938C37.9355 69.8004 37.7302 69.5694 37.4662 69.4008C37.2022 69.2321 36.8979 69.1478 36.5532 69.1478C36.2159 69.1478 35.9152 69.2321 35.6512 69.4008C35.3945 69.5694 35.1892 69.8004 35.0352 70.0938C34.8885 70.3871 34.8152 70.7208 34.8152 71.0948C34.8152 71.4761 34.8885 71.8171 35.0352 72.1178C35.1892 72.4111 35.3945 72.6421 35.6512 72.8108C35.9152 72.9794 36.2159 73.0638 36.5532 73.0638ZM42.0291 72.1948L41.9741 70.9628L44.7351 68.2238H46.2641L42.0291 72.1948ZM40.9951 73.9988V65.8588H42.1281V73.9988H40.9951ZM44.8891 73.9988L42.7111 71.4578L43.5141 70.7208L46.3411 73.9988H44.8891ZM49.695 74.1088C49.101 74.1088 48.573 73.9841 48.111 73.7348C47.6563 73.4781 47.297 73.1298 47.033 72.6898C46.7763 72.2498 46.648 71.7438 46.648 71.1718C46.648 70.7171 46.7213 70.3028 46.868 69.9288C47.0147 69.5548 47.2163 69.2321 47.473 68.9608C47.737 68.6821 48.0487 68.4694 48.408 68.3228C48.7747 68.1688 49.1707 68.0918 49.596 68.0918C49.97 68.0918 50.3183 68.1651 50.641 68.3118C50.9637 68.4511 51.2423 68.6454 51.477 68.8948C51.719 69.1441 51.9023 69.4411 52.027 69.7858C52.159 70.1231 52.2213 70.4934 52.214 70.8968L52.203 71.3808H47.484L47.231 70.4788H51.224L51.059 70.6658V70.4018C51.037 70.1598 50.9563 69.9434 50.817 69.7528C50.6777 69.5621 50.5017 69.4118 50.289 69.3018C50.0763 69.1918 49.8453 69.1368 49.596 69.1368C49.2 69.1368 48.8663 69.2138 48.595 69.3678C48.3237 69.5144 48.1183 69.7344 47.979 70.0278C47.8397 70.3138 47.77 70.6694 47.77 71.0948C47.77 71.4981 47.8543 71.8501 48.023 72.1508C48.1917 72.4441 48.43 72.6714 48.738 72.8328C49.046 72.9941 49.4017 73.0748 49.805 73.0748C50.091 73.0748 50.355 73.0271 50.597 72.9318C50.8463 72.8364 51.114 72.6641 51.4 72.4148L51.972 73.2178C51.796 73.3938 51.5797 73.5478 51.323 73.6798C51.0737 73.8118 50.806 73.9181 50.52 73.9988C50.2413 74.0721 49.9663 74.1088 49.695 74.1088ZM56.5283 73.9988V68.2238H57.6613V69.4118L57.4633 69.5438C57.5367 69.2871 57.6797 69.0524 57.8923 68.8398C58.105 68.6198 58.358 68.4438 58.6513 68.3118C58.9447 68.1724 59.2453 68.1028 59.5533 68.1028C59.9933 68.1028 60.36 68.1908 60.6533 68.3668C60.9467 68.5354 61.1667 68.7958 61.3133 69.1478C61.46 69.4998 61.5333 69.9434 61.5333 70.4788V73.9988H60.4003V70.5558C60.4003 70.2258 60.3563 69.9544 60.2683 69.7418C60.1803 69.5218 60.0447 69.3641 59.8613 69.2688C59.678 69.1661 59.4507 69.1221 59.1793 69.1368C58.9593 69.1368 58.7577 69.1734 58.5743 69.2468C58.391 69.3128 58.2297 69.4081 58.0903 69.5328C57.9583 69.6574 57.852 69.8041 57.7713 69.9728C57.698 70.1341 57.6613 70.3101 57.6613 70.5008V73.9988H57.1003C57.005 73.9988 56.9097 73.9988 56.8143 73.9988C56.719 73.9988 56.6237 73.9988 56.5283 73.9988ZM65.6663 74.1088C65.1017 74.1088 64.5957 73.9804 64.1483 73.7238C63.7083 73.4598 63.36 73.1041 63.1033 72.6568C62.8467 72.2021 62.7183 71.6851 62.7183 71.1058C62.7183 70.5264 62.8467 70.0131 63.1033 69.5658C63.36 69.1111 63.7083 68.7554 64.1483 68.4988C64.5957 68.2348 65.1017 68.1028 65.6663 68.1028C66.2237 68.1028 66.7223 68.2348 67.1623 68.4988C67.6097 68.7554 67.9617 69.1111 68.2183 69.5658C68.475 70.0131 68.6033 70.5264 68.6033 71.1058C68.6033 71.6851 68.475 72.2021 68.2183 72.6568C67.9617 73.1041 67.6097 73.4598 67.1623 73.7238C66.7223 73.9804 66.2237 74.1088 65.6663 74.1088ZM65.6663 73.0748C66.011 73.0748 66.319 72.9904 66.5903 72.8218C66.8617 72.6458 67.0743 72.4111 67.2283 72.1178C67.3823 71.8171 67.4557 71.4798 67.4483 71.1058C67.4557 70.7244 67.3823 70.3871 67.2283 70.0938C67.0743 69.7931 66.8617 69.5584 66.5903 69.3898C66.319 69.2211 66.011 69.1368 65.6663 69.1368C65.3217 69.1368 65.01 69.2248 64.7313 69.4008C64.46 69.5694 64.2473 69.8041 64.0933 70.1048C63.9393 70.3981 63.866 70.7318 63.8733 71.1058C63.866 71.4798 63.9393 71.8171 64.0933 72.1178C64.2473 72.4111 64.46 72.6458 64.7313 72.8218C65.01 72.9904 65.3217 73.0748 65.6663 73.0748ZM70.5529 73.9988V66.7498H71.6859V73.9988H70.5529ZM69.3539 69.3238V68.2238H73.0279V69.3238H69.3539ZM76.7009 74.1088C76.1069 74.1088 75.5789 73.9841 75.1169 73.7348C74.6622 73.4781 74.3029 73.1298 74.0389 72.6898C73.7822 72.2498 73.6539 71.7438 73.6539 71.1718C73.6539 70.7171 73.7272 70.3028 73.8739 69.9288C74.0205 69.5548 74.2222 69.2321 74.4789 68.9608C74.7429 68.6821 75.0545 68.4694 75.4139 68.3228C75.7805 68.1688 76.1765 68.0918 76.6019 68.0918C76.9759 68.0918 77.3242 68.1651 77.6469 68.3118C77.9695 68.4511 78.2482 68.6454 78.4829 68.8948C78.7249 69.1441 78.9082 69.4411 79.0329 69.7858C79.1649 70.1231 79.2272 70.4934 79.2199 70.8968L79.2089 71.3808H74.4899L74.2369 70.4788H78.2299L78.0649 70.6658V70.4018C78.0429 70.1598 77.9622 69.9434 77.8229 69.7528C77.6835 69.5621 77.5075 69.4118 77.2949 69.3018C77.0822 69.1918 76.8512 69.1368 76.6019 69.1368C76.2059 69.1368 75.8722 69.2138 75.6009 69.3678C75.3295 69.5144 75.1242 69.7344 74.9849 70.0278C74.8455 70.3138 74.7759 70.6694 74.7759 71.0948C74.7759 71.4981 74.8602 71.8501 75.0289 72.1508C75.1975 72.4441 75.4359 72.6714 75.7439 72.8328C76.0519 72.9941 76.4075 73.0748 76.8109 73.0748C77.0969 73.0748 77.3609 73.0271 77.6029 72.9318C77.8522 72.8364 78.1199 72.6641 78.4059 72.4148L78.9779 73.2178C78.8019 73.3938 78.5855 73.5478 78.3289 73.6798C78.0795 73.8118 77.8119 73.9181 77.5259 73.9988C77.2472 74.0721 76.9722 74.1088 76.7009 74.1088ZM83.7102 75.9678L83.2922 75.4618C83.5489 75.3151 83.7579 75.1464 83.9192 74.9558C84.0805 74.7651 84.1612 74.6001 84.1612 74.4608C84.1612 74.3874 84.1429 74.3141 84.1062 74.2408C84.0695 74.1748 83.9925 74.0794 83.8752 73.9548C83.7285 73.8154 83.6332 73.6981 83.5892 73.6028C83.5452 73.5074 83.5232 73.4048 83.5232 73.2948C83.5232 73.1188 83.5855 72.9794 83.7102 72.8768C83.8349 72.7668 83.9962 72.7118 84.1942 72.7118C84.3775 72.7118 84.5425 72.7668 84.6892 72.8768C84.8432 72.9794 84.9605 73.1261 85.0412 73.3168C85.1292 73.5001 85.1732 73.7128 85.1732 73.9548C85.1732 74.1748 85.1365 74.3874 85.0632 74.5928C84.9899 74.7981 84.8872 74.9888 84.7552 75.1648C84.6232 75.3408 84.4692 75.4984 84.2932 75.6378C84.1172 75.7771 83.9229 75.8871 83.7102 75.9678ZM91.2988 73.9988V67.4428H89.1428V66.2988H94.7088V67.4428H92.4868V73.9988H91.2988ZM97.014 74.1088C96.5373 74.1088 96.101 73.9768 95.705 73.7128C95.3163 73.4488 95.0047 73.0894 94.77 72.6348C94.5353 72.1801 94.418 71.6668 94.418 71.0948C94.418 70.5154 94.5353 70.0021 94.77 69.5548C95.012 69.1001 95.3347 68.7444 95.738 68.4878C96.1487 68.2311 96.607 68.1028 97.113 68.1028C97.4137 68.1028 97.6887 68.1468 97.938 68.2348C98.1873 68.3228 98.4037 68.4474 98.587 68.6088C98.7777 68.7628 98.9317 68.9424 99.049 69.1478C99.1737 69.3531 99.2507 69.5731 99.28 69.8078L99.027 69.7198V68.2238H100.171V73.9988H99.027V72.6238L99.291 72.5468C99.247 72.7448 99.1553 72.9391 99.016 73.1298C98.884 73.3131 98.7117 73.4781 98.499 73.6248C98.2937 73.7714 98.0627 73.8888 97.806 73.9768C97.5567 74.0648 97.2927 74.1088 97.014 74.1088ZM97.311 73.0638C97.6557 73.0638 97.96 72.9794 98.224 72.8108C98.488 72.6421 98.6933 72.4111 98.84 72.1178C98.994 71.8171 99.071 71.4761 99.071 71.0948C99.071 70.7208 98.994 70.3871 98.84 70.0938C98.6933 69.8004 98.488 69.5694 98.224 69.4008C97.96 69.2321 97.6557 69.1478 97.311 69.1478C96.9737 69.1478 96.673 69.2321 96.409 69.4008C96.1523 69.5694 95.947 69.8004 95.793 70.0938C95.6463 70.3871 95.573 70.7208 95.573 71.0948C95.573 71.4761 95.6463 71.8171 95.793 72.1178C95.947 72.4111 96.1523 72.6421 96.409 72.8108C96.673 72.9794 96.9737 73.0638 97.311 73.0638ZM102.787 72.1948L102.732 70.9628L105.493 68.2238H107.022L102.787 72.1948ZM101.753 73.9988V65.8588H102.886V73.9988H101.753ZM105.647 73.9988L103.469 71.4578L104.272 70.7208L107.099 73.9988H105.647ZM110.453 74.1088C109.859 74.1088 109.331 73.9841 108.869 73.7348C108.414 73.4781 108.055 73.1298 107.791 72.6898C107.534 72.2498 107.406 71.7438 107.406 71.1718C107.406 70.7171 107.479 70.3028 107.626 69.9288C107.772 69.5548 107.974 69.2321 108.231 68.9608C108.495 68.6821 108.806 68.4694 109.166 68.3228C109.532 68.1688 109.928 68.0918 110.354 68.0918C110.728 68.0918 111.076 68.1651 111.399 68.3118C111.721 68.4511 112 68.6454 112.235 68.8948C112.477 69.1441 112.66 69.4411 112.785 69.7858C112.917 70.1231 112.979 70.4934 112.972 70.8968L112.961 71.3808H108.242L107.989 70.4788H111.982L111.817 70.6658V70.4018C111.795 70.1598 111.714 69.9434 111.575 69.7528C111.435 69.5621 111.259 69.4118 111.047 69.3018C110.834 69.1918 110.603 69.1368 110.354 69.1368C109.958 69.1368 109.624 69.2138 109.353 69.3678C109.081 69.5144 108.876 69.7344 108.737 70.0278C108.597 70.3138 108.528 70.6694 108.528 71.0948C108.528 71.4981 108.612 71.8501 108.781 72.1508C108.949 72.4441 109.188 72.6714 109.496 72.8328C109.804 72.9941 110.159 73.0748 110.563 73.0748C110.849 73.0748 111.113 73.0271 111.355 72.9318C111.604 72.8364 111.872 72.6641 112.158 72.4148L112.73 73.2178C112.554 73.3938 112.337 73.5478 112.081 73.6798C111.831 73.8118 111.564 73.9181 111.278 73.9988C110.999 74.0721 110.724 74.1088 110.453 74.1088ZM119.739 74.1088C119.204 74.1088 118.723 73.9768 118.298 73.7128C117.88 73.4488 117.546 73.0894 117.297 72.6348C117.055 72.1801 116.934 71.6704 116.934 71.1058C116.934 70.5411 117.055 70.0314 117.297 69.5768C117.546 69.1221 117.88 68.7628 118.298 68.4988C118.723 68.2348 119.204 68.1028 119.739 68.1028C120.252 68.1028 120.718 68.2091 121.136 68.4218C121.561 68.6271 121.884 68.9094 122.104 69.2688L121.477 70.0388C121.36 69.8701 121.209 69.7161 121.026 69.5768C120.843 69.4374 120.648 69.3274 120.443 69.2468C120.238 69.1661 120.04 69.1258 119.849 69.1258C119.497 69.1258 119.182 69.2138 118.903 69.3898C118.632 69.5584 118.415 69.7931 118.254 70.0938C118.093 70.3944 118.012 70.7318 118.012 71.1058C118.012 71.4798 118.096 71.8171 118.265 72.1178C118.434 72.4111 118.657 72.6458 118.936 72.8218C119.215 72.9978 119.523 73.0858 119.86 73.0858C120.058 73.0858 120.249 73.0528 120.432 72.9868C120.623 72.9208 120.806 72.8218 120.982 72.6898C121.158 72.5578 121.323 72.3964 121.477 72.2058L122.104 72.9758C121.869 73.3058 121.532 73.5771 121.092 73.7898C120.659 74.0024 120.208 74.1088 119.739 74.1088ZM123.173 73.9988V65.8588H124.306V69.4118L124.108 69.5438C124.181 69.2871 124.324 69.0524 124.537 68.8398C124.75 68.6198 125.003 68.4438 125.296 68.3118C125.589 68.1724 125.89 68.1028 126.198 68.1028C126.638 68.1028 127.005 68.1908 127.298 68.3668C127.591 68.5354 127.811 68.7958 127.958 69.1478C128.105 69.4998 128.178 69.9434 128.178 70.4788V73.9988H127.045V70.5558C127.045 70.2258 127.001 69.9544 126.913 69.7418C126.825 69.5218 126.689 69.3641 126.506 69.2688C126.323 69.1661 126.095 69.1221 125.824 69.1368C125.604 69.1368 125.402 69.1734 125.219 69.2468C125.036 69.3128 124.874 69.4081 124.735 69.5328C124.603 69.6574 124.497 69.8041 124.416 69.9728C124.343 70.1341 124.306 70.3101 124.306 70.5008V73.9988H123.745C123.65 73.9988 123.554 73.9988 123.459 73.9988C123.364 73.9988 123.268 73.9988 123.173 73.9988ZM131.937 74.1088C131.46 74.1088 131.024 73.9768 130.628 73.7128C130.239 73.4488 129.928 73.0894 129.693 72.6348C129.458 72.1801 129.341 71.6668 129.341 71.0948C129.341 70.5154 129.458 70.0021 129.693 69.5548C129.935 69.1001 130.258 68.7444 130.661 68.4878C131.072 68.2311 131.53 68.1028 132.036 68.1028C132.337 68.1028 132.612 68.1468 132.861 68.2348C133.11 68.3228 133.327 68.4474 133.51 68.6088C133.701 68.7628 133.855 68.9424 133.972 69.1478C134.097 69.3531 134.174 69.5731 134.203 69.8078L133.95 69.7198V68.2238H135.094V73.9988H133.95V72.6238L134.214 72.5468C134.17 72.7448 134.078 72.9391 133.939 73.1298C133.807 73.3131 133.635 73.4781 133.422 73.6248C133.217 73.7714 132.986 73.8888 132.729 73.9768C132.48 74.0648 132.216 74.1088 131.937 74.1088ZM132.234 73.0638C132.579 73.0638 132.883 72.9794 133.147 72.8108C133.411 72.6421 133.616 72.4111 133.763 72.1178C133.917 71.8171 133.994 71.4761 133.994 71.0948C133.994 70.7208 133.917 70.3871 133.763 70.0938C133.616 69.8004 133.411 69.5694 133.147 69.4008C132.883 69.2321 132.579 69.1478 132.234 69.1478C131.897 69.1478 131.596 69.2321 131.332 69.4008C131.075 69.5694 130.87 69.8004 130.716 70.0938C130.569 70.3871 130.496 70.7208 130.496 71.0948C130.496 71.4761 130.569 71.8171 130.716 72.1178C130.87 72.4111 131.075 72.6421 131.332 72.8108C131.596 72.9794 131.897 73.0638 132.234 73.0638ZM136.676 73.9988V68.2238H137.82V70.0388L137.71 69.5988C137.79 69.3201 137.926 69.0671 138.117 68.8398C138.315 68.6124 138.538 68.4328 138.788 68.3008C139.044 68.1688 139.308 68.1028 139.58 68.1028C139.704 68.1028 139.822 68.1138 139.932 68.1358C140.049 68.1578 140.141 68.1834 140.207 68.2128L139.91 69.4448C139.822 69.4081 139.723 69.3788 139.613 69.3568C139.51 69.3274 139.407 69.3128 139.305 69.3128C139.107 69.3128 138.916 69.3531 138.733 69.4338C138.557 69.5071 138.399 69.6134 138.26 69.7528C138.128 69.8848 138.021 70.0424 137.941 70.2258C137.86 70.4018 137.82 70.5961 137.82 70.8088V73.9988H136.676ZM143.536 76.5288C143.126 76.5288 142.715 76.4628 142.304 76.3308C141.901 76.2061 141.575 76.0411 141.325 75.8358L141.743 74.9558C141.89 75.0658 142.062 75.1611 142.26 75.2418C142.458 75.3298 142.667 75.3958 142.887 75.4398C143.107 75.4911 143.324 75.5168 143.536 75.5168C143.94 75.5168 144.277 75.4508 144.548 75.3188C144.82 75.1868 145.025 74.9924 145.164 74.7358C145.304 74.4791 145.373 74.1601 145.373 73.7788V72.6678L145.494 72.7448C145.458 72.9721 145.337 73.1921 145.131 73.4048C144.933 73.6101 144.684 73.7788 144.383 73.9108C144.083 74.0428 143.775 74.1088 143.459 74.1088C142.909 74.1088 142.418 73.9804 141.985 73.7238C141.56 73.4598 141.223 73.1041 140.973 72.6568C140.724 72.2021 140.599 71.6851 140.599 71.1058C140.599 70.5264 140.72 70.0131 140.962 69.5658C141.212 69.1111 141.549 68.7554 141.974 68.4988C142.407 68.2348 142.891 68.1028 143.426 68.1028C143.646 68.1028 143.859 68.1321 144.064 68.1908C144.27 68.2421 144.46 68.3191 144.636 68.4218C144.812 68.5171 144.97 68.6234 145.109 68.7408C145.249 68.8581 145.362 68.9828 145.45 69.1148C145.538 69.2468 145.593 69.3714 145.615 69.4888L145.373 69.5768V68.2238H146.506V73.6468C146.506 74.1088 146.437 74.5158 146.297 74.8678C146.165 75.2271 145.971 75.5278 145.714 75.7698C145.458 76.0191 145.146 76.2061 144.779 76.3308C144.413 76.4628 143.998 76.5288 143.536 76.5288ZM143.58 73.0638C143.94 73.0638 144.259 72.9794 144.537 72.8108C144.816 72.6421 145.032 72.4111 145.186 72.1178C145.34 71.8244 145.417 71.4871 145.417 71.1058C145.417 70.7244 145.337 70.3871 145.175 70.0938C145.021 69.7931 144.805 69.5584 144.526 69.3898C144.255 69.2211 143.94 69.1368 143.58 69.1368C143.228 69.1368 142.913 69.2248 142.634 69.4008C142.363 69.5694 142.147 69.8041 141.985 70.1048C141.831 70.3981 141.754 70.7318 141.754 71.1058C141.754 71.4798 141.831 71.8171 141.985 72.1178C142.147 72.4111 142.363 72.6421 142.634 72.8108C142.913 72.9794 143.228 73.0638 143.58 73.0638ZM150.79 74.1088C150.196 74.1088 149.668 73.9841 149.206 73.7348C148.751 73.4781 148.392 73.1298 148.128 72.6898C147.871 72.2498 147.743 71.7438 147.743 71.1718C147.743 70.7171 147.816 70.3028 147.963 69.9288C148.109 69.5548 148.311 69.2321 148.568 68.9608C148.832 68.6821 149.143 68.4694 149.503 68.3228C149.869 68.1688 150.265 68.0918 150.691 68.0918C151.065 68.0918 151.413 68.1651 151.736 68.3118C152.058 68.4511 152.337 68.6454 152.572 68.8948C152.814 69.1441 152.997 69.4411 153.122 69.7858C153.254 70.1231 153.316 70.4934 153.309 70.8968L153.298 71.3808H148.579L148.326 70.4788H152.319L152.154 70.6658V70.4018C152.132 70.1598 152.051 69.9434 151.912 69.7528C151.772 69.5621 151.596 69.4118 151.384 69.3018C151.171 69.1918 150.94 69.1368 150.691 69.1368C150.295 69.1368 149.961 69.2138 149.69 69.3678C149.418 69.5144 149.213 69.7344 149.074 70.0278C148.934 70.3138 148.865 70.6694 148.865 71.0948C148.865 71.4981 148.949 71.8501 149.118 72.1508C149.286 72.4441 149.525 72.6714 149.833 72.8328C150.141 72.9941 150.496 73.0748 150.9 73.0748C151.186 73.0748 151.45 73.0271 151.692 72.9318C151.941 72.8364 152.209 72.6641 152.495 72.4148L153.067 73.2178C152.891 73.3938 152.674 73.5478 152.418 73.6798C152.168 73.8118 151.901 73.9181 151.615 73.9988C151.336 74.0721 151.061 74.1088 150.79 74.1088Z" fill="#696969"/>
<path d="M42.9951 25.4995L42.9952 1.99886L144.995 13.4994L144.995 24.4995" stroke="#2F3F55" stroke-width="3"/>
<path d="M42.9952 79.4986L42.9951 102.499L144.995 90.9989L144.995 78.4986" stroke="#2F3F55" stroke-width="3"/>
<path d="M7.29797 49.5588V45.1188H13.818C14.6713 45.1188 15.4446 44.9454 16.138 44.5988C16.8313 44.2521 17.378 43.7588 17.778 43.1188C18.178 42.4521 18.378 41.6521 18.378 40.7188C18.378 39.8121 18.178 39.0254 17.778 38.3588C17.378 37.6921 16.8313 37.1854 16.138 36.8388C15.4446 36.4921 14.6713 36.3188 13.818 36.3188H7.29797V31.8788H14.378C16.1646 31.8788 17.7646 32.2388 19.178 32.9588C20.618 33.6788 21.7513 34.7054 22.578 36.0388C23.4046 37.3454 23.818 38.9054 23.818 40.7188C23.818 42.5321 23.4046 44.1054 22.578 45.4388C21.7513 46.7454 20.618 47.7588 19.178 48.4788C17.7646 49.1988 16.1646 49.5588 14.378 49.5588H7.29797ZM3.29797 59.9988V31.8788H8.73797V59.9988H3.29797ZM40.3864 59.9988V48.9188C40.3864 47.7721 40.0264 46.8388 39.3064 46.1188C38.5864 45.3988 37.6531 45.0388 36.5064 45.0388C35.7597 45.0388 35.0931 45.1988 34.5064 45.5188C33.9197 45.8388 33.4531 46.2921 33.1064 46.8788C32.7864 47.4654 32.6264 48.1454 32.6264 48.9188L30.5864 47.8788C30.5864 46.3588 30.9064 45.0388 31.5464 43.9188C32.1864 42.7721 33.0664 41.8788 34.1864 41.2388C35.3331 40.5988 36.6397 40.2788 38.1064 40.2788C39.5731 40.2788 40.8664 40.5988 41.9864 41.2388C43.1331 41.8788 44.0264 42.7588 44.6664 43.8788C45.3064 44.9988 45.6264 46.2921 45.6264 47.7588V59.9988H40.3864ZM27.3864 59.9988V31.0788H32.6264V59.9988H27.3864ZM49.8473 59.9988V40.6788H55.1273V59.9988H49.8473ZM52.4873 37.5588C51.634 37.5588 50.9273 37.2788 50.3673 36.7188C49.8073 36.1321 49.5273 35.4121 49.5273 34.5588C49.5273 33.7321 49.8073 33.0254 50.3673 32.4388C50.9273 31.8521 51.634 31.5588 52.4873 31.5588C53.3673 31.5588 54.074 31.8521 54.6073 32.4388C55.1673 33.0254 55.4473 33.7321 55.4473 34.5588C55.4473 35.4121 55.1673 36.1321 54.6073 36.7188C54.074 37.2788 53.3673 37.5588 52.4873 37.5588ZM66.4092 60.4388C65.3159 60.4388 64.2359 60.2921 63.1692 59.9988C62.1292 59.7054 61.1692 59.3054 60.2892 58.7988C59.4092 58.2654 58.6492 57.6254 58.0092 56.8788L61.1292 53.7188C61.7959 54.4654 62.5692 55.0254 63.4492 55.3988C64.3292 55.7721 65.3026 55.9588 66.3692 55.9588C67.2226 55.9588 67.8626 55.8388 68.2892 55.5988C68.7426 55.3588 68.9692 54.9988 68.9692 54.5188C68.9692 53.9854 68.7292 53.5721 68.2492 53.2788C67.7959 52.9854 67.1959 52.7454 66.4492 52.5588C65.7026 52.3454 64.9159 52.1188 64.0892 51.8788C63.2892 51.6121 62.5159 51.2788 61.7692 50.8788C61.0226 50.4521 60.4092 49.8788 59.9292 49.1588C59.4759 48.4121 59.2492 47.4521 59.2492 46.2788C59.2492 45.0521 59.5426 43.9854 60.1292 43.0788C60.7426 42.1721 61.6092 41.4654 62.7292 40.9588C63.8492 40.4521 65.1692 40.1988 66.6892 40.1988C68.2892 40.1988 69.7292 40.4788 71.0092 41.0388C72.3159 41.5988 73.3959 42.4388 74.2492 43.5588L71.0892 46.7188C70.5026 45.9988 69.8359 45.4788 69.0892 45.1588C68.3692 44.8388 67.5826 44.6788 66.7292 44.6788C65.9559 44.6788 65.3559 44.7988 64.9292 45.0388C64.5292 45.2788 64.3292 45.6121 64.3292 46.0388C64.3292 46.5188 64.5559 46.8921 65.0092 47.1588C65.4892 47.4254 66.1026 47.6654 66.8492 47.8788C67.5959 48.0654 68.3692 48.2921 69.1692 48.5588C69.9959 48.7988 70.7692 49.1454 71.4892 49.5988C72.2359 50.0521 72.8359 50.6521 73.2892 51.3988C73.7692 52.1454 74.0092 53.1054 74.0092 54.2788C74.0092 56.1721 73.3292 57.6788 71.9692 58.7988C70.6092 59.8921 68.7559 60.4388 66.4092 60.4388ZM90.5427 59.9988V48.9188C90.5427 47.7721 90.1827 46.8388 89.4627 46.1188C88.7427 45.3988 87.8093 45.0388 86.6627 45.0388C85.916 45.0388 85.2493 45.1988 84.6627 45.5188C84.076 45.8388 83.6093 46.2921 83.2627 46.8788C82.9427 47.4654 82.7827 48.1454 82.7827 48.9188L80.7427 47.8788C80.7427 46.3588 81.0627 45.0388 81.7027 43.9188C82.3427 42.7721 83.2227 41.8788 84.3427 41.2388C85.4893 40.5988 86.796 40.2788 88.2627 40.2788C89.7293 40.2788 91.0227 40.5988 92.1427 41.2388C93.2893 41.8788 94.1827 42.7588 94.8227 43.8788C95.4627 44.9988 95.7827 46.2921 95.7827 47.7588V59.9988H90.5427ZM77.5427 59.9988V31.0788H82.7827V59.9988H77.5427ZM108.376 59.9988V31.8788H112.176L113.816 37.3188V59.9988H108.376ZM127.816 59.9988L111.136 38.3988L112.176 31.8788L128.856 53.4788L127.816 59.9988ZM127.816 59.9988L126.256 54.7188V31.8788H131.736V59.9988H127.816ZM145.959 60.3988C144.012 60.3988 142.252 59.9588 140.679 59.0788C139.132 58.1721 137.892 56.9588 136.959 55.4388C136.052 53.8921 135.599 52.1721 135.599 50.2788C135.599 48.3854 136.052 46.6921 136.959 45.1988C137.865 43.6788 139.105 42.4788 140.679 41.5988C142.252 40.6921 143.999 40.2388 145.919 40.2388C147.892 40.2388 149.652 40.6921 151.199 41.5988C152.772 42.4788 154.012 43.6788 154.919 45.1988C155.825 46.6921 156.279 48.3854 156.279 50.2788C156.279 52.1721 155.825 53.8921 154.919 55.4388C154.012 56.9588 152.772 58.1721 151.199 59.0788C149.652 59.9588 147.905 60.3988 145.959 60.3988ZM145.919 55.5188C146.905 55.5188 147.772 55.3054 148.519 54.8788C149.292 54.4254 149.879 53.8121 150.279 53.0388C150.705 52.2388 150.919 51.3321 150.919 50.3188C150.919 49.3054 150.705 48.4121 150.279 47.6388C149.852 46.8654 149.265 46.2654 148.519 45.8388C147.772 45.3854 146.905 45.1588 145.919 45.1588C144.959 45.1588 144.105 45.3854 143.359 45.8388C142.612 46.2654 142.025 46.8654 141.599 47.6388C141.172 48.4121 140.959 49.3054 140.959 50.3188C140.959 51.3321 141.172 52.2388 141.599 53.0388C142.025 53.8121 142.612 54.4254 143.359 54.8788C144.105 55.3054 144.959 55.5188 145.919 55.5188ZM162.023 59.9988V32.6388H167.263V59.9988H162.023ZM157.503 45.2788V40.6788H171.783V45.2788H157.503ZM183.501 60.3988C181.475 60.3988 179.675 59.9721 178.101 59.1188C176.528 58.2388 175.275 57.0388 174.341 55.5188C173.435 53.9988 172.981 52.2654 172.981 50.3188C172.981 48.3988 173.421 46.6921 174.301 45.1988C175.208 43.6788 176.435 42.4788 177.981 41.5988C179.528 40.6921 181.248 40.2388 183.141 40.2388C185.008 40.2388 186.648 40.6654 188.061 41.5188C189.501 42.3454 190.621 43.4921 191.421 44.9588C192.248 46.3988 192.661 48.0388 192.661 49.8788C192.661 50.2254 192.635 50.5854 192.581 50.9588C192.555 51.3054 192.488 51.7054 192.381 52.1588L176.141 52.1988V48.2788L189.941 48.2388L187.821 49.8788C187.768 48.7321 187.555 47.7721 187.181 46.9988C186.835 46.2254 186.315 45.6388 185.621 45.2388C184.955 44.8121 184.128 44.5988 183.141 44.5988C182.101 44.5988 181.195 44.8388 180.421 45.3188C179.648 45.7721 179.048 46.4254 178.621 47.2788C178.221 48.1054 178.021 49.0921 178.021 50.2388C178.021 51.4121 178.235 52.4388 178.661 53.3188C179.115 54.1721 179.755 54.8388 180.581 55.3188C181.408 55.7721 182.368 55.9988 183.461 55.9988C184.448 55.9988 185.341 55.8388 186.141 55.5188C186.941 55.1721 187.635 54.6654 188.221 53.9988L191.301 57.0788C190.368 58.1721 189.221 58.9988 187.861 59.5588C186.528 60.1188 185.075 60.3988 183.501 60.3988Z" fill="#2F3F55"/>
</svg>
