<svg width="40" height="40" viewBox="0 0 40 40" fill="none" xmlns="http://www.w3.org/2000/svg">
<circle cx="20" cy="20" r="18.5" stroke="#2F3F55" stroke-width="3"/>
<path d="M13.1242 21.9101C12.9775 22.8714 13.6332 23.5388 14.436 23.8713C17.5137 25.1463 21.7968 25.1463 24.8745 23.8713C25.6773 23.5388 26.333 22.8714 26.1863 21.9101C26.0962 21.3192 25.6506 20.8272 25.3203 20.3468C24.8879 19.7099 24.8449 19.015 24.8448 18.2759C24.8448 15.4192 22.5214 13.1034 19.6552 13.1034C16.7891 13.1034 14.4657 15.4192 14.4657 18.2759C14.4656 19.015 14.4226 19.7099 13.9901 20.3468C13.66 20.8272 13.2143 21.3192 13.1242 21.9101Z" fill="#2F3F55" stroke="white" stroke-width="1.03448" stroke-linecap="round" stroke-linejoin="round"/>
<path d="M16.8965 24.8275C17.2127 26.0173 18.3279 26.8965 19.6551 26.8965C20.9823 26.8965 22.0975 26.0173 22.4137 24.8275" fill="#C10000"/>
<path d="M16.8965 24.8275C17.2127 26.0173 18.3279 26.8965 19.6551 26.8965C20.9823 26.8965 22.0975 26.0173 22.4137 24.8275" stroke="white" stroke-width="1.03448" stroke-linecap="round" stroke-linejoin="round"/>
<circle cx="23.5" cy="15.5" r="3.5" fill="#C10000"/>
</svg>
