<svg width="401" height="401" viewBox="0 0 401 401" fill="none" xmlns="http://www.w3.org/2000/svg">
<path d="M360.82 319.589H334.258V319.789H360.82V319.589Z" fill="#EBEBEB"/>
<path d="M265.638 321.77H258.669V321.971H265.638V321.77Z" fill="#EBEBEB"/>
<path d="M333.456 312.146H318.065V312.347H333.456V312.146Z" fill="#EBEBEB"/>
<path d="M76.7113 313.494H42.0729V313.694H76.7113V313.494Z" fill="#EBEBEB"/>
<path d="M88.9338 313.494H83.8571V313.694H88.9338V313.494Z" fill="#EBEBEB"/>
<path d="M180.57 316.878H105.439V317.079H180.57V316.878Z" fill="#EBEBEB"/>
<path d="M401 306.685H0V306.885H401V306.685Z" fill="#EBEBEB"/>
<path d="M190.074 270.916H35.2158C34.0027 270.913 32.8399 270.43 31.9829 269.571C31.1258 268.713 30.6444 267.549 30.6444 266.336V48.6493C30.655 47.4431 31.141 46.2898 31.9969 45.4399C32.8529 44.5899 34.0096 44.1121 35.2158 44.11H190.074C191.289 44.11 192.453 44.5925 193.312 45.4513C194.171 46.3101 194.653 47.4749 194.653 48.6894V266.336C194.653 267.551 194.171 268.715 193.312 269.574C192.453 270.433 191.289 270.916 190.074 270.916ZM35.2158 44.2704C34.0558 44.2725 32.9441 44.7348 32.1246 45.5558C31.3052 46.3767 30.8449 47.4893 30.8449 48.6493V266.336C30.8449 267.496 31.3052 268.609 32.1246 269.43C32.9441 270.251 34.0558 270.713 35.2158 270.715H192.48C194.886 270.715 194.445 268.75 194.445 266.336V48.6493C194.443 47.49 193.982 46.3786 193.163 45.5581C192.344 44.7376 191.233 44.2746 190.074 44.2704H35.2158Z" fill="#EBEBEB"/>
<path d="M363.555 270.916H208.688C207.475 270.913 206.311 270.43 205.453 269.572C204.594 268.714 204.111 267.55 204.109 266.336V48.6493C204.122 47.4424 204.609 46.2891 205.467 45.4394C206.324 44.5897 207.481 44.112 208.688 44.11H363.555C364.759 44.1142 365.914 44.593 366.768 45.4427C367.623 46.2924 368.107 47.4445 368.118 48.6493V266.336C368.118 267.548 367.638 268.71 366.782 269.569C365.927 270.427 364.766 270.911 363.555 270.916ZM208.688 44.2704C207.528 44.2725 206.415 44.7345 205.594 45.5553C204.774 46.376 204.312 47.4886 204.31 48.6493V266.336C204.312 267.497 204.774 268.609 205.594 269.43C206.415 270.251 207.528 270.713 208.688 270.715H363.555C364.715 270.713 365.828 270.251 366.649 269.43C367.469 268.609 367.931 267.497 367.934 266.336V48.6493C367.931 47.4886 367.469 46.376 366.649 45.5553C365.828 44.7345 364.715 44.2725 363.555 44.2704H208.688Z" fill="#EBEBEB"/>
<path opacity="0.2" d="M46.0909 270.827H201.15L211.351 59.6608H61.7781L46.0909 270.827Z" fill="black"/>
<path d="M41.3271 270.827H199.706L209.915 59.6608H61.7781L41.3271 270.827Z" fill="#E6E6E6"/>
<path opacity="0.1" d="M48.0478 266.906H193.065L202.826 66.7584L65.8522 66.7504L48.0478 266.906Z" fill="black"/>
<path d="M202.826 66.7504C201.15 132.712 195.359 198.505 185.487 263.746H80.9459C69.3971 263.401 47.8794 262.904 47.8794 262.904C47.8794 262.904 64.3605 125.008 65.8522 66.7504H202.826Z" fill="#FAFAFA"/>
<path d="M162.742 82.3012C162.437 90.9307 162.063 99.5576 161.619 108.182H187.508C187.957 99.5522 188.331 90.9254 188.63 82.3012H162.742ZM185.366 105.928H163.993C164.357 98.7957 164.667 91.6712 164.923 84.5548H186.297C186.035 91.6766 185.724 98.801 185.366 105.928Z" fill="#E0E0E0"/>
<path d="M158.419 124.19C158.12 132.819 157.745 141.449 157.296 150.078H183.177C183.626 141.443 184.003 132.814 184.308 124.19H158.419ZM181.043 147.825H159.67C160.023 140.698 160.333 133.57 160.601 126.443H181.974C181.706 133.576 181.396 140.703 181.043 147.825Z" fill="#E0E0E0"/>
<path d="M154.682 164.683C154.382 173.307 154.008 181.934 153.559 190.563H179.456C179.899 181.934 180.274 173.307 180.578 164.683H154.682ZM177.306 188.31H155.933C156.286 181.177 156.596 174.053 156.863 166.936H178.237C177.975 174.053 177.664 181.177 177.306 188.31Z" fill="#E0E0E0"/>
<path d="M148.947 207.806C148.648 216.436 148.274 225.065 147.825 233.695H173.713C174.157 225.06 174.531 216.43 174.836 207.806H148.947ZM171.572 231.441H150.199C150.551 224.314 150.862 217.187 151.129 210.06H172.502C172.235 217.182 171.925 224.309 171.572 231.441Z" fill="#E0E0E0"/>
<path d="M75.9735 97.5151H149.172C149.113 99.1191 149.052 100.723 148.988 102.327H75.781L75.9735 97.5151Z" fill="#E6E6E6"/>
<path d="M92.623 89.824H149.894C149.83 91.428 149.749 93.032 149.677 94.636H92.3904C92.4706 93.032 92.5428 91.428 92.623 89.824Z" fill="#E6E6E6"/>
<path d="M69.2607 140.791H142.451C142.395 142.395 142.331 143.999 142.267 145.603H69.0682C69.1324 144.015 69.2046 142.395 69.2607 140.791Z" fill="#E6E6E6"/>
<path d="M85.9102 133.076H143.189C143.117 134.68 143.037 136.284 142.965 137.888H85.6857C85.7578 136.292 85.814 134.68 85.9102 133.076Z" fill="#E6E6E6"/>
<path d="M64.16 221.528H137.351C137.286 223.132 137.23 224.736 137.158 226.34H63.9595C64.0344 224.747 64.1012 223.143 64.16 221.528Z" fill="#E6E6E6"/>
<path d="M80.8095 213.813H138.08C138.016 215.417 137.936 217.021 137.864 218.625H80.5769C80.6571 217.029 80.7293 215.425 80.8095 213.813Z" fill="#E6E6E6"/>
<path d="M68.8998 179.062H142.09C142.026 180.666 141.97 182.27 141.898 183.874H68.6993C68.7742 182.281 68.841 180.677 68.8998 179.062Z" fill="#E6E6E6"/>
<path d="M85.5413 171.347H142.82C142.756 172.951 142.676 174.555 142.596 176.159H85.3168C85.389 174.563 85.4692 172.959 85.5413 171.347Z" fill="#E6E6E6"/>
<path d="M97.3147 70.5118H174.034L173.36 68.1058C171.628 62.0748 170.826 58.0808 165.212 58.0808C165.212 58.0808 146.397 57.0142 145.876 55.3861C145.245 53.4571 144.017 51.7791 142.369 50.5952C140.721 49.4113 138.738 48.7831 136.709 48.8017C134.612 48.8268 132.568 49.4631 130.827 50.6327C129.086 51.8022 127.724 53.4542 126.908 55.3861C126.235 56.9901 105.744 58.0808 105.744 58.0808C100.09 58.0808 100.491 62.0908 98.2129 68.1058L97.3147 70.5118Z" fill="#E0E0E0"/>
<path d="M165.773 97.1623C165.743 97.5853 165.799 98.01 165.937 98.411C166.074 98.812 166.292 99.1811 166.575 99.4961C167.229 99.9589 168.039 100.144 168.829 100.009C172.037 99.7447 174.9 97.9162 177.475 95.9994C182.421 92.2679 186.868 87.9177 190.708 83.0551C185.826 86.3487 180.822 89.4551 175.694 92.3744C174.134 93.3325 172.465 94.0999 170.722 94.6601C170.016 94.8606 169.054 94.8766 168.773 94.2029C168.428 93.4009 169.463 92.1899 168.773 91.6445C168.083 91.0992 166.624 92.3343 166.295 92.8876C165.653 93.9302 165.733 95.9673 165.773 97.1623Z" fill="#E0E0E0"/>
<path d="M160.039 138.746C160.009 139.169 160.064 139.594 160.202 139.995C160.34 140.396 160.557 140.765 160.841 141.08C161.495 141.543 162.305 141.727 163.095 141.593C166.303 141.32 169.166 139.5 171.74 137.583C176.684 133.849 181.131 129.499 184.973 124.639C180.086 127.932 175.082 131.036 169.96 133.95C168.402 134.914 166.732 135.684 164.987 136.244C164.282 136.444 163.319 136.46 163.039 135.779C162.694 134.977 163.728 133.774 163.039 133.228C162.349 132.683 160.889 133.918 160.56 134.463C159.919 135.474 159.999 137.503 160.039 138.746Z" fill="#E0E0E0"/>
<path d="M157.376 180.241C157.348 180.666 157.405 181.091 157.542 181.493C157.68 181.895 157.896 182.266 158.178 182.583C158.5 182.813 158.865 182.976 159.25 183.064C159.635 183.152 160.034 183.163 160.424 183.097C163.632 182.824 166.495 181.003 169.07 179.087C174.014 175.353 178.461 171.003 182.303 166.142C177.426 169.441 172.422 172.545 167.289 175.454C165.733 176.416 164.066 177.186 162.325 177.747C161.619 177.948 160.649 177.964 160.368 177.282C160.023 176.48 161.058 175.269 160.368 174.732C159.678 174.194 158.219 175.413 157.89 175.967C157.256 177.009 157.336 179.047 157.376 180.241Z" fill="#E0E0E0"/>
<path d="M292.778 254.531C293.58 255.517 294.382 256.688 294.125 257.931C293.943 258.611 293.512 259.197 292.918 259.573C292.324 259.949 291.609 260.087 290.917 259.96C290.234 259.808 289.6 259.484 289.075 259.02C288.551 258.556 288.152 257.966 287.918 257.306C287.597 256.504 287.485 255.621 287.172 254.811C286.266 252.47 283.964 251.034 281.783 249.767C281.646 252.173 283.026 254.475 284.654 256.287C286.282 258.1 288.231 259.647 289.642 261.644C291.054 263.641 291.872 266.288 290.901 268.534C290.833 268.725 290.714 268.894 290.557 269.023C290.313 269.16 290.026 269.2 289.755 269.135C287.204 268.79 285.464 266.4 284.341 264.075C283.218 261.749 282.288 259.174 280.227 257.659C281.133 260.722 283.595 263.08 284.894 265.999C285.71 267.892 286.03 269.961 285.824 272.011C285.618 274.061 284.892 276.025 283.716 277.717C283.631 277.868 283.517 278.001 283.379 278.106C283.241 278.211 283.082 278.286 282.914 278.326C282.416 278.382 282.055 277.877 281.847 277.42C279.762 272.872 281.293 266.721 277.684 263.257C277.123 264.476 276.57 265.663 276.008 266.898C275.721 267.664 275.276 268.361 274.701 268.943C274.404 269.223 274.027 269.406 273.622 269.464C273.217 269.523 272.804 269.456 272.439 269.272C271.365 268.582 271.637 266.962 272.119 265.775C273.309 262.692 274.78 259.726 276.514 256.913C275.303 256.343 274.108 257.586 273.201 258.597C272.295 259.607 270.627 260.498 269.809 259.399C269.569 259.037 269.453 258.606 269.48 258.172C269.48 256.055 270.932 254.226 272.471 252.766C274.011 251.307 275.76 250.007 276.786 248.163C275.631 248.512 274.404 248.542 273.233 248.251C272.103 247.858 271.196 246.567 271.629 245.46C272.995 243.914 274.504 242.502 276.137 241.242C277.973 240.664 279.77 242.356 281.157 243.375C285.521 246.547 289.431 250.3 292.778 254.531Z" fill="#EBEBEB"/>
<path d="M282.641 272.447C282.641 271.83 282.641 271.228 282.641 270.627C282.44 253.352 279.433 246.904 278.631 246.719L278.551 245.917C278.683 245.904 278.817 245.921 278.942 245.967C279.067 246.013 279.18 246.086 279.272 246.182C280.876 247.561 283.282 255.204 283.483 270.611C283.483 271.212 283.483 271.814 283.483 272.423L282.641 272.447Z" fill="#E0E0E0"/>
<path d="M282.625 281.358C282.625 280.852 282.625 273.498 282.625 270.723V269.64C282.625 253.103 285.143 244.891 286.835 243.407C286.93 243.309 287.045 243.233 287.173 243.184C287.3 243.136 287.437 243.116 287.573 243.126L287.469 243.928C286.627 244.121 283.459 251.05 283.459 269.64V270.723C283.459 273.49 283.459 280.844 283.459 281.35L282.625 281.358Z" fill="#E0E0E0"/>
<path d="M293.965 308.072H272.295L270.178 282.023H296.082L293.965 308.072Z" fill="#F0F0F0"/>
<path d="M297.759 283.363H268.285L267.756 279.898H298.296L297.759 283.363Z" fill="#FAFAFA"/>
<path d="M254.122 240.071C252.63 240.071 250.914 240.119 249.935 241.218C249.426 241.873 249.179 242.694 249.243 243.522C249.306 244.349 249.676 245.123 250.28 245.693C250.915 246.23 251.674 246.598 252.489 246.763C253.303 246.929 254.146 246.886 254.94 246.639C255.934 246.358 256.848 245.837 257.835 245.564C260.706 244.762 263.722 245.917 266.473 247.072C264.259 248.941 261.115 249.254 258.228 249.005C255.341 248.756 252.494 248.01 249.598 248.091C246.703 248.171 243.599 249.302 242.164 251.82C242.034 252.022 241.959 252.254 241.947 252.494C241.989 252.824 242.152 253.127 242.404 253.344C244.562 255.517 248.075 255.453 251.074 254.868C254.074 254.282 257.185 253.264 260.121 254.162C256.568 255.485 252.574 254.836 248.893 255.694C246.517 256.268 244.327 257.441 242.532 259.1C240.736 260.759 239.395 262.85 238.635 265.173C238.552 265.36 238.509 265.562 238.509 265.767C238.509 265.971 238.552 266.173 238.635 266.36C238.94 266.865 239.678 266.849 240.239 266.721C246.038 265.454 250.769 259.615 256.632 260.562L254.37 264.748C253.851 265.569 253.512 266.49 253.376 267.451C253.312 267.938 253.403 268.432 253.636 268.864C253.869 269.296 254.233 269.644 254.675 269.857C256.087 270.386 257.426 268.951 258.22 267.668C260.29 264.339 262.051 260.827 263.481 257.177C264.885 257.915 264.58 259.968 264.283 261.524C263.986 263.08 264.283 265.318 265.887 265.334C266.403 265.305 266.894 265.105 267.283 264.764C269.271 263.24 269.985 260.578 270.266 258.084C270.547 255.589 270.539 252.999 271.565 250.705C272.045 252.042 272.876 253.225 273.971 254.13C275.158 254.932 277.027 254.868 277.749 253.641C278.251 251.245 278.52 248.806 278.551 246.358C277.789 244.201 274.902 243.712 272.937 243.11C266.831 241.251 260.502 240.228 254.122 240.071Z" fill="#F5F5F5"/>
<path d="M292.064 267.868C292.738 269.199 293.596 270.643 295.048 271.028C295.865 271.171 296.706 271.003 297.407 270.558C298.107 270.113 298.616 269.423 298.833 268.622C299.013 267.811 298.983 266.967 298.747 266.17C298.512 265.374 298.078 264.65 297.486 264.067C296.772 263.321 295.882 262.751 295.176 262.005C293.107 259.848 292.73 256.64 292.457 253.673C295.152 254.755 296.9 257.378 298.031 260.048C299.162 262.719 299.844 265.582 301.279 268.068C302.715 270.555 305.153 272.8 308.048 272.88C308.288 272.9 308.529 272.855 308.746 272.752C309.018 272.56 309.209 272.275 309.283 271.95C310.19 269.031 308.481 265.959 306.564 263.585C304.648 261.211 302.322 258.918 301.704 255.918C304.543 258.436 305.835 262.27 308.329 265.141C309.953 266.968 312.016 268.351 314.323 269.16C316.63 269.968 319.105 270.175 321.514 269.761C321.717 269.746 321.915 269.69 322.095 269.596C322.276 269.502 322.435 269.373 322.564 269.215C322.877 268.702 322.516 268.06 322.131 267.611C318.29 263.088 310.903 261.644 308.995 256.022H313.758C314.724 256.098 315.695 255.967 316.606 255.637C317.059 255.463 317.446 255.151 317.713 254.745C317.981 254.34 318.115 253.861 318.097 253.376C317.897 251.876 316.012 251.371 314.496 251.267C310.588 251 306.663 251.092 302.771 251.539C302.771 249.935 304.72 249.262 306.244 248.829C307.767 248.395 309.572 247.016 308.85 245.621C308.583 245.18 308.177 244.842 307.695 244.658C305.41 243.615 302.723 244.233 300.389 245.155C298.055 246.078 295.77 247.305 293.267 247.473C294.22 246.408 294.869 245.106 295.144 243.704C295.288 242.292 294.342 240.664 292.939 240.6C290.59 241.29 288.312 242.203 286.138 243.327C284.59 245.003 285.512 247.786 285.905 249.799C287.133 256.072 289.205 262.151 292.064 267.868Z" fill="#F0F0F0"/>
<path opacity="0.2" d="M298.256 80.2C298.256 80.4727 298.256 80.74 298.256 81.002V101.854H269.737L268.221 100.41L269.737 80.2C269.737 76.4181 271.239 72.7911 273.913 70.117C276.587 67.4428 280.214 65.9404 283.996 65.9404C287.778 65.9404 291.405 67.4428 294.079 70.117C296.753 72.7911 298.256 76.4181 298.256 80.2Z" fill="black"/>
<path d="M296.74 78.7884C296.74 79.0691 296.74 79.3418 296.74 79.5904V100.346H268.221V78.7884C268.221 75.0066 269.723 71.3796 272.397 68.7054C275.072 66.0312 278.699 64.5289 282.48 64.5289C286.262 64.5289 289.889 66.0312 292.563 68.7054C295.238 71.3796 296.74 75.0066 296.74 78.7884Z" fill="#F5F5F5"/>
<path d="M292.848 80.7222C293.732 75.2745 290.033 70.1415 284.585 69.2572C279.138 68.3729 274.005 72.0723 273.12 77.5199C272.236 82.9676 275.935 88.1006 281.383 88.9849C286.831 89.8691 291.964 86.1698 292.848 80.7222Z" fill="#E0E0E0"/>
<path d="M281.815 88.9338C287.334 88.9338 291.808 84.4598 291.808 78.9409C291.808 73.4219 287.334 68.9479 281.815 68.9479C276.296 68.9479 271.822 73.4219 271.822 78.9409C271.822 84.4598 276.296 88.9338 281.815 88.9338Z" fill="white"/>
<path d="M282.48 79.6065C282.48 79.7651 282.433 79.9202 282.345 80.0521C282.257 80.184 282.132 80.2867 281.985 80.3475C281.839 80.4082 281.678 80.424 281.522 80.3931C281.366 80.3621 281.224 80.2858 281.111 80.1736C280.999 80.0614 280.923 79.9185 280.892 79.763C280.861 79.6074 280.877 79.4461 280.938 79.2996C280.998 79.153 281.101 79.0278 281.233 78.9397C281.365 78.8515 281.52 78.8045 281.678 78.8045C281.891 78.8045 282.095 78.889 282.246 79.0394C282.396 79.1898 282.48 79.3938 282.48 79.6065Z" fill="#E0E0E0"/>
<path d="M281.574 79.9032L278.126 76.6551L278.462 76.2942L281.59 79.2376L287.196 74.2892L287.517 74.6582L281.574 79.9032Z" fill="#E0E0E0"/>
<path d="M200.5 342.462C286.38 342.462 356 338.397 356 333.383C356 328.369 286.38 324.305 200.5 324.305C114.62 324.305 45.0002 328.369 45.0002 333.383C45.0002 338.397 114.62 342.462 200.5 342.462Z" fill="#F5F5F5"/>
<path d="M197.637 213.236V311.352H200.187L203.395 213.236H197.637Z" fill="#2F3F55"/>
<path d="M227.744 216.444V307.342H230.294L233.502 216.444H227.744Z" fill="#2F3F55"/>
<path opacity="0.5" d="M227.744 216.444V307.342H230.294L233.502 216.444H227.744Z" fill="black"/>
<path d="M350.57 213.236V307.342H348.02L344.812 213.236H350.57Z" fill="#2F3F55"/>
<path opacity="0.5" d="M350.57 213.236V307.342H348.02L344.812 213.236H350.57Z" fill="black"/>
<path d="M320.463 216.444V310.751H317.913L314.705 216.444H320.463Z" fill="#2F3F55"/>
<path d="M368.19 210.284H178.164V214.399H368.19V210.284Z" fill="#2F3F55"/>
<path d="M355.695 218.794H191.622L184.965 214.399H362.352L355.695 218.794Z" fill="#2F3F55"/>
<path opacity="0.5" d="M355.695 218.794H191.622L184.965 214.399H362.352L355.695 218.794Z" fill="black"/>
<path d="M210.669 200.107H250.737V190.146H210.669V200.107Z" fill="#2F3F55"/>
<path opacity="0.6" d="M210.798 200.147H250.866V190.186H210.798V200.147Z" fill="white"/>
<path opacity="0.6" d="M210.677 200.147H241.426V190.186H210.677V200.147Z" fill="white"/>
<path d="M210.87 198.84L250.737 200.083L250.697 199.072L210.846 198.551L210.87 198.84Z" fill="#2F3F55"/>
<path d="M250.737 194.236L210.934 191.999V192.328L250.737 194.99V194.236Z" fill="#2F3F55"/>
<path d="M250.737 191.229L210.934 192.135V192.464L250.737 191.983V191.229Z" fill="#2F3F55"/>
<path d="M250.85 196.193L211.038 198.134V197.837L250.85 195.528V196.193Z" fill="#2F3F55"/>
<path d="M213.46 210.461H253.528V200.5H213.46V210.461Z" fill="#2F3F55"/>
<path opacity="0.6" d="M213.597 210.509H253.665V200.548H213.597V210.509Z" fill="white"/>
<path opacity="0.6" d="M244.305 200.54H213.557V210.501H244.305V200.54Z" fill="white"/>
<path d="M253.36 208.905L213.516 209.418L213.468 210.429L253.336 209.194L253.36 208.905Z" fill="#2F3F55"/>
<path d="M213.725 200.628L253.536 200.66V200.989H213.725V200.628Z" fill="#2F3F55"/>
<path d="M213.468 205.344L253.28 202.681V202.345L213.468 204.582V205.344Z" fill="#2F3F55"/>
<path d="M253.536 201.575L213.725 202.489V202.818L253.536 202.337V201.575Z" fill="#2F3F55"/>
<path d="M253.649 206.547L213.829 208.48V208.191L253.649 205.881V206.547Z" fill="#2F3F55"/>
<path d="M247.377 151.53L207.333 151.73L207.269 161.491H247.377V151.53Z" fill="#2F3F55"/>
<path opacity="0.6" d="M207.309 161.491H247.377V151.53H207.309V161.491Z" fill="white"/>
<path opacity="0.6" d="M238.018 151.53H207.269V161.491H238.018V151.53Z" fill="white"/>
<path d="M239.229 151.73H207.333V152.741H238.547L239.229 151.73Z" fill="#2F3F55"/>
<path d="M247.144 155.813L207.333 156.181V156.478H247.144V155.813Z" fill="#2F3F55"/>
<path d="M207.333 160.424L247.144 158.483V158.772L207.333 161.082V160.424Z" fill="#2F3F55"/>
<path d="M207.333 156.679L247.144 157.473V157.753L207.333 157.336V156.679Z" fill="#2F3F55"/>
<path d="M247.208 187.949H207.397V190.363H247.208V187.949Z" fill="#2F3F55"/>
<path opacity="0.6" d="M247.208 187.973H207.397V190.371H247.208V187.973Z" fill="white"/>
<path opacity="0.6" d="M239.124 187.82H207.397V190.371H239.124V187.82Z" fill="white"/>
<path d="M207.421 189.039L247.241 189.529L247.233 189.681L207.413 189.384L207.421 189.039Z" fill="#2F3F55"/>
<path d="M207.421 188.574L247.233 188.983V189.136L207.421 188.919V188.574Z" fill="#2F3F55"/>
<path d="M247.609 162.004V168.34C247.771 168.34 247.926 168.404 248.04 168.518C248.155 168.633 248.219 168.788 248.219 168.949C248.219 169.111 248.155 169.266 248.04 169.38C247.926 169.495 247.771 169.559 247.609 169.559C245.203 169.559 242.797 169.559 240.391 169.559V160.737H247.609C247.778 160.737 247.939 160.804 248.057 160.922C248.176 161.041 248.243 161.202 248.243 161.37C248.243 161.539 248.176 161.7 248.057 161.818C247.939 161.937 247.778 162.004 247.609 162.004Z" fill="#2F3F55"/>
<path opacity="0.3" d="M247.609 162.004V168.34C247.771 168.34 247.926 168.404 248.04 168.518C248.155 168.633 248.219 168.788 248.219 168.949C248.219 169.111 248.155 169.266 248.04 169.38C247.926 169.495 247.771 169.559 247.609 169.559C245.203 169.559 242.797 169.559 240.391 169.559V160.737H247.609C247.778 160.737 247.939 160.804 248.057 160.922C248.176 161.041 248.243 161.202 248.243 161.37C248.243 161.539 248.176 161.7 248.057 161.818C247.939 161.937 247.778 162.004 247.609 162.004Z" fill="white"/>
<path d="M247.609 162.028H241.979V168.356H247.609V162.028Z" fill="#2F3F55"/>
<path opacity="0.6" d="M247.609 162.028H241.979V168.356H247.609V162.028Z" fill="white"/>
<path d="M243.158 161.411H212.065C210.718 161.411 209.659 163.103 209.659 165.188C209.659 167.273 210.742 168.965 212.065 168.965H243.158V161.411Z" fill="#2F3F55"/>
<path opacity="0.9" d="M243.158 161.411H212.065C210.718 161.411 209.659 163.103 209.659 165.188C209.659 167.273 210.742 168.965 212.065 168.965H243.158V161.411Z" fill="white"/>
<path d="M243.158 169.575C236.742 169.575 218.794 169.687 212.402 169.575C208.023 169.495 207.79 161.098 212.081 160.809C215.08 160.601 218.16 160.809 221.16 160.809H243.158C243.307 160.826 243.444 160.897 243.544 161.009C243.643 161.121 243.698 161.265 243.698 161.415C243.698 161.564 243.643 161.708 243.544 161.82C243.444 161.932 243.307 162.003 243.158 162.02H213.412C212.009 162.02 211.006 162.02 210.469 163.688C209.996 165.124 210.148 168.043 212.073 168.356C212.292 168.376 212.512 168.376 212.731 168.356H243.166C243.328 168.356 243.483 168.42 243.597 168.534C243.712 168.649 243.776 168.804 243.776 168.965C243.776 169.127 243.712 169.282 243.597 169.396C243.483 169.511 243.328 169.575 243.166 169.575H243.158Z" fill="#2F3F55"/>
<g opacity="0.2">
<path d="M243.158 169.575C236.742 169.575 218.794 169.687 212.402 169.575C208.023 169.495 207.79 161.098 212.081 160.809C215.08 160.601 218.16 160.809 221.16 160.809H243.158C243.307 160.826 243.444 160.897 243.544 161.009C243.643 161.121 243.698 161.265 243.698 161.415C243.698 161.564 243.643 161.708 243.544 161.82C243.444 161.932 243.307 162.003 243.158 162.02H213.412C212.009 162.02 211.006 162.02 210.469 163.688C209.996 165.124 210.148 168.043 212.073 168.356C212.292 168.376 212.512 168.376 212.731 168.356H243.166C243.328 168.356 243.483 168.42 243.597 168.534C243.712 168.649 243.776 168.804 243.776 168.965C243.776 169.127 243.712 169.282 243.597 169.396C243.483 169.511 243.328 169.575 243.166 169.575H243.158Z" fill="white"/>
</g>
<path d="M240.913 170.577V176.44C241.062 176.44 241.204 176.499 241.31 176.604C241.415 176.71 241.474 176.853 241.474 177.001C241.474 177.15 241.415 177.293 241.31 177.398C241.204 177.504 241.062 177.563 240.913 177.563C238.675 177.563 236.438 177.563 234.2 177.563V169.455H240.913C241.062 169.455 241.204 169.514 241.31 169.619C241.415 169.724 241.474 169.867 241.474 170.016C241.474 170.165 241.415 170.308 241.31 170.413C241.204 170.518 241.062 170.577 240.913 170.577Z" fill="#2F3F55"/>
<path opacity="0.3" d="M240.913 170.577V176.44C241.062 176.44 241.204 176.499 241.31 176.604C241.415 176.71 241.474 176.853 241.474 177.001C241.474 177.15 241.415 177.293 241.31 177.398C241.204 177.504 241.062 177.563 240.913 177.563C238.675 177.563 236.438 177.563 234.2 177.563V169.455H240.913C241.062 169.455 241.204 169.514 241.31 169.619C241.415 169.724 241.474 169.867 241.474 170.016C241.474 170.165 241.415 170.308 241.31 170.413C241.204 170.518 241.062 170.577 240.913 170.577Z" fill="white"/>
<path d="M240.913 170.585H235.7V176.448H240.913V170.585Z" fill="#2F3F55"/>
<path opacity="0.6" d="M240.913 170.585H235.7V176.448H240.913V170.585Z" fill="white"/>
<path d="M236.791 170.024H207.999C206.756 170.024 205.745 171.588 205.745 173.521C205.745 175.454 206.756 177.017 207.999 177.017H236.791V170.024Z" fill="#2F3F55"/>
<path opacity="0.9" d="M236.791 170.024H207.999C206.756 170.024 205.745 171.588 205.745 173.521C205.745 175.454 206.756 177.017 207.999 177.017H236.791V170.024Z" fill="white"/>
<path d="M236.79 177.571C230.872 177.571 214.23 177.675 208.311 177.571C204.253 177.499 204.037 169.727 208.015 169.455C210.79 169.262 213.629 169.455 216.42 169.455H236.79C236.939 169.455 237.082 169.514 237.187 169.619C237.293 169.724 237.352 169.867 237.352 170.016C237.352 170.165 237.293 170.308 237.187 170.413C237.082 170.518 236.939 170.577 236.79 170.577H209.242C207.943 170.577 207.02 170.577 206.515 172.125C206.082 173.449 206.218 176.135 207.999 176.448C208.199 176.464 208.4 176.464 208.6 176.448H236.79C236.939 176.448 237.082 176.507 237.187 176.613C237.293 176.718 237.352 176.861 237.352 177.009C237.352 177.158 237.293 177.301 237.187 177.406C237.082 177.512 236.939 177.571 236.79 177.571Z" fill="#2F3F55"/>
<path d="M249.879 178.846V185.831C250.044 185.85 250.197 185.928 250.307 186.051C250.418 186.175 250.479 186.335 250.479 186.501C250.479 186.667 250.418 186.827 250.307 186.951C250.197 187.074 250.044 187.153 249.879 187.171C247.217 187.171 244.554 187.171 241.859 187.171V177.467H249.879C250.062 177.467 250.238 177.539 250.367 177.669C250.496 177.798 250.569 177.973 250.569 178.156C250.569 178.339 250.496 178.515 250.367 178.644C250.238 178.773 250.062 178.846 249.879 178.846Z" fill="#2F3F55"/>
<path opacity="0.3" d="M249.879 178.846V185.831C250.044 185.85 250.197 185.928 250.307 186.051C250.418 186.175 250.479 186.335 250.479 186.501C250.479 186.667 250.418 186.827 250.307 186.951C250.197 187.074 250.044 187.153 249.879 187.171C247.217 187.171 244.554 187.171 241.859 187.171V177.467H249.879C250.062 177.467 250.238 177.539 250.367 177.669C250.496 177.798 250.569 177.973 250.569 178.156C250.569 178.339 250.496 178.515 250.367 178.644C250.238 178.773 250.062 178.846 249.879 178.846Z" fill="white"/>
<path d="M249.879 178.814H243.672V185.791H249.879V178.814Z" fill="#2F3F55"/>
<path opacity="0.6" d="M249.879 178.814H243.672V185.791H249.879V178.814Z" fill="white"/>
<path d="M244.971 178.14H210.701C209.218 178.14 208.023 180.001 208.023 182.303C208.023 184.604 209.218 186.465 210.701 186.465H244.971V178.14Z" fill="#2F3F55"/>
<path opacity="0.9" d="M244.971 178.14H210.701C209.218 178.14 208.023 180.001 208.023 182.303C208.023 184.604 209.218 186.465 210.701 186.465H244.971V178.14Z" fill="white"/>
<path d="M244.971 187.131C237.921 187.131 218.12 187.259 211.07 187.131C206.258 187.042 205.986 177.795 210.717 177.467C214.022 177.242 217.414 177.467 220.718 177.467H244.971C245.136 177.485 245.288 177.563 245.399 177.687C245.51 177.81 245.571 177.97 245.571 178.136C245.571 178.302 245.51 178.462 245.399 178.586C245.288 178.709 245.136 178.788 244.971 178.806H212.185C210.637 178.806 209.539 178.806 208.937 180.651C208.424 182.255 208.584 185.463 210.701 185.791C210.942 185.811 211.183 185.811 211.423 185.791H244.971C245.136 185.809 245.288 185.888 245.399 186.011C245.51 186.135 245.571 186.295 245.571 186.461C245.571 186.627 245.51 186.787 245.399 186.911C245.288 187.034 245.136 187.113 244.971 187.131Z" fill="#2F3F55"/>
<g opacity="0.2">
<path d="M244.971 187.131C237.921 187.131 218.12 187.259 211.07 187.131C206.258 187.042 205.986 177.795 210.717 177.467C214.022 177.242 217.414 177.467 220.718 177.467H244.971C245.136 177.485 245.288 177.563 245.399 177.687C245.51 177.81 245.571 177.97 245.571 178.136C245.571 178.302 245.51 178.462 245.399 178.586C245.288 178.709 245.136 178.788 244.971 178.806H212.185C210.637 178.806 209.539 178.806 208.937 180.651C208.424 182.255 208.584 185.463 210.701 185.791C210.942 185.811 211.183 185.811 211.423 185.791H244.971C245.136 185.809 245.288 185.888 245.399 186.011C245.51 186.135 245.571 186.295 245.571 186.461C245.571 186.627 245.51 186.787 245.399 186.911C245.288 187.034 245.136 187.113 244.971 187.131Z" fill="black"/>
</g>
<path d="M303.349 208.087L256.768 208.295C256.46 208.302 256.154 208.243 255.871 208.121C255.588 207.999 255.334 207.819 255.126 207.591C254.919 207.363 254.763 207.093 254.668 206.799C254.574 206.506 254.543 206.196 254.579 205.889L257.049 176.103C257.112 175.455 257.41 174.852 257.887 174.408C258.365 173.965 258.988 173.712 259.64 173.697L306.22 173.489C306.528 173.482 306.834 173.541 307.117 173.663C307.4 173.785 307.654 173.966 307.862 174.194C308.069 174.422 308.225 174.691 308.32 174.985C308.414 175.278 308.445 175.588 308.409 175.895L305.939 205.681C305.876 206.329 305.578 206.933 305.101 207.376C304.623 207.819 304 208.072 303.349 208.087Z" fill="#263238"/>
<path d="M303.228 205.737L255.958 205.954L258.445 175.975L305.714 175.766L303.228 205.737Z" fill="#2F3F55"/>
<path d="M302.587 208.087L256.006 208.296C255.698 208.303 255.391 208.245 255.107 208.124C254.823 208.003 254.569 207.822 254.361 207.593C254.153 207.365 253.997 207.095 253.903 206.801C253.809 206.507 253.78 206.196 253.817 205.89L256.287 176.103C256.35 175.455 256.648 174.852 257.125 174.408C257.603 173.965 258.226 173.712 258.878 173.697L305.458 173.489C305.766 173.482 306.072 173.542 306.355 173.663C306.638 173.785 306.892 173.966 307.1 174.194C307.307 174.422 307.464 174.691 307.558 174.985C307.652 175.278 307.683 175.589 307.647 175.895L305.177 205.681C305.114 206.33 304.816 206.933 304.339 207.376C303.861 207.819 303.238 208.072 302.587 208.087Z" fill="#2F3F55"/>
<g opacity="0.7">
<path d="M302.875 205.392L255.613 205.601L258.1 175.63L305.37 175.422L302.875 205.392Z" fill="#2F3F55"/>
<path opacity="0.9" d="M300.75 205.4L258.148 205.593C257.825 205.594 257.506 205.528 257.211 205.399C256.915 205.271 256.65 205.082 256.431 204.845C256.213 204.608 256.045 204.329 255.941 204.024C255.836 203.719 255.795 203.396 255.822 203.075L257.923 177.755C257.971 177.175 258.235 176.634 258.663 176.239C259.091 175.844 259.651 175.624 260.233 175.622L302.827 175.43C303.15 175.427 303.47 175.492 303.766 175.621C304.062 175.749 304.328 175.938 304.547 176.175C304.766 176.412 304.933 176.692 305.037 176.997C305.141 177.303 305.181 177.626 305.153 177.948L303.052 203.275C303.004 203.853 302.74 204.392 302.314 204.785C301.888 205.179 301.33 205.398 300.75 205.4Z" fill="white"/>
</g>
<path opacity="0.1" d="M295.353 173.513L286.274 208.079L289.378 208.063L298.36 173.497L295.353 173.513Z" fill="white"/>
<path opacity="0.1" d="M300.149 173.489L291.07 208.055L297.229 208.031L306.204 173.457L300.149 173.489Z" fill="white"/>
<path d="M287.806 207.919L303.525 208.055C303.733 209.883 302.923 210.541 301.921 210.533L244.377 210.445C243.77 210.443 243.189 210.2 242.761 209.77C242.332 209.34 242.092 208.758 242.092 208.151L287.806 207.919Z" fill="#2F3F55"/>
<path opacity="0.2" d="M287.806 207.919L303.525 208.055C303.733 209.883 302.923 210.541 301.921 210.533L244.377 210.445C243.77 210.443 243.189 210.2 242.761 209.77C242.332 209.34 242.092 208.758 242.092 208.151L287.806 207.919Z" fill="white"/>
<path opacity="0.2" d="M303.525 208.055C303.733 209.883 302.923 210.541 301.921 210.533H285.961C287.268 210.533 288.937 209.266 288.937 207.951L303.525 208.055Z" fill="white"/>
<path d="M306.685 179.752C307.857 178.811 309.329 178.324 310.831 178.381C312.324 178.439 313.784 178.84 315.098 179.552C315.221 177.627 315.336 175.702 315.443 173.777C315.531 172.374 308.93 172.23 308.12 172.55C305.987 173.376 307.038 177.763 306.685 179.752Z" fill="#2F3F55"/>
<path opacity="0.9" d="M306.685 179.752C307.857 178.811 309.329 178.324 310.831 178.381C312.324 178.439 313.784 178.84 315.098 179.552C315.221 177.627 315.336 175.702 315.443 173.777C315.531 172.374 308.93 172.23 308.12 172.55C305.987 173.376 307.038 177.763 306.685 179.752Z" fill="white"/>
<path d="M305.883 184.099C307.204 183.589 308.613 183.346 310.029 183.385C311.471 183.411 312.904 183.616 314.296 183.995C314.416 183 314.528 181.998 314.641 180.995C314.729 180.266 308.128 180.193 307.318 180.354C305.185 180.787 306.236 183.065 305.883 184.099Z" fill="#2F3F55"/>
<path opacity="0.9" d="M305.883 184.099C307.204 183.589 308.613 183.346 310.029 183.385C311.471 183.411 312.904 183.616 314.296 183.995C314.416 183 314.528 181.998 314.641 180.995C314.729 180.266 308.128 180.193 307.318 180.354C305.185 180.787 306.236 183.065 305.883 184.099Z" fill="white"/>
<path d="M305.562 189.312C306.885 188.797 308.298 188.555 309.716 188.598C311.158 188.624 312.591 188.829 313.983 189.208C314.095 188.205 314.208 187.211 314.328 186.208C314.408 185.479 307.816 185.406 306.998 185.567C304.872 186 305.923 188.278 305.562 189.312Z" fill="#2F3F55"/>
<path opacity="0.9" d="M305.562 189.312C306.885 188.797 308.298 188.555 309.716 188.598C311.158 188.624 312.591 188.829 313.983 189.208C314.095 188.205 314.208 187.211 314.328 186.208C314.408 185.479 307.816 185.406 306.998 185.567C304.872 186 305.923 188.278 305.562 189.312Z" fill="white"/>
<path d="M298.103 167.778C298.134 167.698 298.181 167.625 298.24 167.562C298.356 167.478 298.499 167.441 298.641 167.458L303.894 167.377C302.786 169.785 302.203 172.402 302.186 175.053C300.894 174.996 296.411 175.053 296.411 175.053C295.545 173.673 297.542 169.126 298.103 167.778Z" fill="#2F3F55"/>
<path opacity="0.9" d="M298.103 167.778C298.134 167.698 298.181 167.625 298.24 167.562C298.356 167.478 298.499 167.441 298.641 167.458L303.894 167.377C302.786 169.785 302.203 172.402 302.186 175.053C300.894 174.996 296.411 175.053 296.411 175.053C295.545 173.673 297.542 169.126 298.103 167.778Z" fill="white"/>
<path d="M289.129 167.137C289.157 167.053 289.204 166.976 289.265 166.912C289.381 166.834 289.519 166.797 289.658 166.808L294.92 166.728C293.811 169.136 293.229 171.752 293.211 174.403C291.92 174.347 287.437 174.403 287.437 174.403C286.571 173.032 288.568 168.484 289.129 167.137Z" fill="#2F3F55"/>
<path opacity="0.9" d="M289.129 167.137C289.157 167.053 289.204 166.976 289.265 166.912C289.381 166.834 289.519 166.797 289.658 166.808L294.92 166.728C293.811 169.136 293.229 171.752 293.211 174.403C291.92 174.347 287.437 174.403 287.437 174.403C286.571 173.032 288.568 168.484 289.129 167.137Z" fill="white"/>
<path d="M281.751 167.113C281.769 167.037 281.799 166.964 281.839 166.896C281.87 166.86 281.91 166.831 281.955 166.813C281.999 166.795 282.048 166.788 282.095 166.792H285.408C284.654 169.274 284.246 171.849 284.197 174.443C283.395 174.371 280.556 174.443 280.556 174.443C280.034 172.975 281.374 168.42 281.751 167.113Z" fill="#2F3F55"/>
<path opacity="0.9" d="M281.751 167.113C281.769 167.037 281.799 166.964 281.839 166.896C281.87 166.86 281.91 166.831 281.955 166.813C281.999 166.795 282.048 166.788 282.095 166.792H285.408C284.654 169.274 284.246 171.849 284.197 174.443C283.395 174.371 280.556 174.443 280.556 174.443C280.034 172.975 281.374 168.42 281.751 167.113Z" fill="white"/>
<g opacity="0.2">
<path d="M258.629 173.89C258.532 174.974 258.221 176.029 257.715 176.993C257.142 178.205 256.46 179.362 255.678 180.45C259.623 180.53 262.607 180.715 264.091 180.498C265.636 178.34 266.27 175.661 265.855 173.04C263.521 173.729 260.682 173.184 258.268 173.769L258.629 173.89Z" fill="black"/>
</g>
<path d="M258.677 172.991C258.418 174.074 257.961 175.099 257.33 176.015C256.588 177.18 255.745 178.277 254.811 179.295C257.621 179.566 260.449 179.601 263.265 179.399C265.141 177.378 265.967 175.389 265.855 173.04C263.056 173.04 258.677 172.991 258.677 172.991Z" fill="#2F3F55"/>
<g opacity="0.9">
<path d="M258.677 172.991C258.418 174.074 257.961 175.099 257.33 176.015C256.588 177.18 255.745 178.277 254.811 179.295C257.621 179.566 260.449 179.601 263.265 179.399C265.141 177.378 265.967 175.389 265.855 173.04C263.056 173.04 258.677 172.991 258.677 172.991Z" fill="white"/>
</g>
<g opacity="0.2">
<path d="M269.472 173.168C269.376 174.371 269.067 175.547 268.558 176.641C267.989 177.987 267.307 179.283 266.521 180.514C270.474 180.594 273.45 180.803 274.934 180.562C276.494 178.077 277.119 175.118 276.698 172.214C274.364 173.016 271.525 172.374 269.119 173.016L269.472 173.168Z" fill="black"/>
</g>
<path d="M269.472 172.165C269.222 173.36 268.766 174.503 268.125 175.542C267.39 176.836 266.551 178.067 265.614 179.223C268.42 179.521 271.247 179.558 274.059 179.335C275.829 177.396 276.76 174.836 276.65 172.213C273.867 172.213 269.472 172.165 269.472 172.165Z" fill="#2F3F55"/>
<g opacity="0.9">
<path d="M269.472 172.165C269.222 173.36 268.766 174.503 268.125 175.542C267.39 176.836 266.551 178.067 265.614 179.223C268.42 179.521 271.247 179.558 274.059 179.335C275.829 177.396 276.76 174.836 276.65 172.213C273.867 172.213 269.472 172.165 269.472 172.165Z" fill="white"/>
</g>
<path d="M345.486 210.437H332.421L336.519 197.252L337.113 195.319H340.072L345.486 210.437Z" fill="#2F3F55"/>
<path opacity="0.2" d="M345.486 210.437H332.421L336.519 197.252L337.113 195.319H340.072L345.486 210.437Z" fill="black"/>
<path d="M337.113 195.319L336.519 197.252L332.421 210.437L320.343 210.26L316.461 197.252L315.86 195.319H337.113Z" fill="#E0E0E0"/>
<path d="M337.113 195.319L336.519 197.252L332.421 210.437L307.615 210.076L312.9 195.319H337.113Z" fill="#2F3F55"/>
<path opacity="0.8" d="M337.113 195.319L336.519 197.252L332.421 210.437L307.615 210.076L312.9 195.319H337.113Z" fill="white"/>
<path d="M337.113 195.319L336.519 197.252H312.219L312.9 195.319H337.113Z" fill="#2F3F55"/>
<path d="M315.988 203.516H310.542L312.443 198.15L317.656 198.206L315.988 203.516ZM311.176 203.074H315.667L317.055 198.647L312.756 198.599L311.176 203.074Z" fill="#2F3F55"/>
<path d="M322.043 203.516H316.598L318.498 198.15L323.711 198.206L322.043 203.516ZM317.231 203.074H321.722L323.102 198.647L318.811 198.599L317.231 203.074Z" fill="#2F3F55"/>
<path d="M328.138 203.516H322.693L324.594 198.15L329.798 198.206L328.138 203.516ZM323.326 203.074H327.818L329.205 198.647L324.914 198.599L323.326 203.074Z" fill="#2F3F55"/>
<path d="M334.234 203.516H328.82L330.721 198.15L335.926 198.206L334.234 203.516ZM329.422 203.074H333.913L335.3 198.647L331.009 198.599L329.422 203.074Z" fill="#2F3F55"/>
<path d="M314.055 209.21H308.602L310.502 203.844L315.715 203.901L314.055 209.21ZM309.243 208.769H313.734L315.122 204.342L310.823 204.293L309.243 208.769Z" fill="#2F3F55"/>
<path d="M320.142 209.21H314.697L316.598 203.844L321.811 203.901L320.142 209.21ZM315.33 208.769H319.822L321.201 204.342L316.91 204.293L315.33 208.769Z" fill="#2F3F55"/>
<path d="M326.238 209.21H320.8L322.701 203.844L327.906 203.901L326.238 209.21ZM321.426 208.769H325.917L327.304 204.342L323.014 204.293L321.426 208.769Z" fill="#2F3F55"/>
<path d="M332.333 209.21H326.887L328.788 203.844L333.993 203.901L332.333 209.21ZM327.521 208.769H332.028L333.415 204.342L329.125 204.293L327.521 208.769Z" fill="#2F3F55"/>
<path d="M315.579 203.251C315.437 202.32 315.209 201.405 314.897 200.516C314.721 200.059 312.924 197.252 312.571 198.968C312.467 199.473 313.534 200.701 313.823 201.11C314.354 201.866 314.942 202.581 315.579 203.251Z" fill="#2F3F55"/>
<path d="M311.665 202.104C311.609 202.272 311.625 202.529 311.802 202.537C311.866 202.535 311.928 202.513 311.978 202.473C313.077 201.751 313.903 200.644 315.074 200.067C315.642 199.886 316.149 199.553 316.541 199.105C316.218 199.067 315.89 199.12 315.595 199.257C314.087 199.818 312.251 200.436 311.665 202.104Z" fill="#2F3F55"/>
<path d="M327.737 203.379C327.599 202.448 327.371 201.532 327.056 200.644C326.879 200.187 325.091 197.38 324.73 199.097C324.626 199.602 325.692 200.829 325.981 201.238C326.513 201.994 327.1 202.71 327.737 203.379Z" fill="#2F3F55"/>
<path d="M323.824 202.264C323.767 202.433 323.824 202.689 323.96 202.698C324.024 202.696 324.086 202.673 324.136 202.633C325.235 201.912 326.061 200.805 327.232 200.227C327.798 200.043 328.305 199.711 328.7 199.265C328.376 199.223 328.048 199.276 327.753 199.417C326.246 199.947 324.409 200.564 323.824 202.264Z" fill="#2F3F55"/>
<path d="M319.316 200.58C320.412 201.147 321.311 202.03 321.899 203.115C321.625 201.688 321.081 200.326 320.295 199.105C319.092 197.292 317.744 199.698 319.316 200.58Z" fill="#2F3F55"/>
<path d="M330.817 200.58C331.912 201.147 332.812 202.03 333.399 203.115C333.126 201.688 332.582 200.326 331.795 199.105C330.592 197.292 329.245 199.698 330.817 200.58Z" fill="#2F3F55"/>
<path d="M320.118 199.963C319.342 200.281 318.692 200.844 318.266 201.567C318.121 201.815 318.041 202.176 318.266 202.369C318.49 202.561 318.899 202.321 319.14 202.08C319.685 201.535 322.027 200.187 322.011 199.506C321.35 199.481 320.695 199.639 320.118 199.963Z" fill="#2F3F55"/>
<path d="M332.469 199.963C331.693 200.281 331.042 200.844 330.616 201.567C330.48 201.815 330.392 202.176 330.616 202.369C330.841 202.561 331.242 202.321 331.483 202.08C332.028 201.535 334.37 200.187 334.354 199.506C333.696 199.483 333.044 199.641 332.469 199.963Z" fill="#2F3F55"/>
<path d="M314.777 205.97C314.352 203.291 311.16 203.147 309.829 205.232C309.512 205.758 309.322 206.351 309.275 206.964C309.223 207.354 309.256 207.751 309.372 208.127C309.557 208.559 309.876 208.92 310.281 209.158C310.687 209.396 311.157 209.499 311.625 209.45C312.563 209.332 313.422 208.866 314.031 208.143C314.399 207.783 314.653 207.323 314.761 206.82C314.818 206.54 314.824 206.252 314.777 205.97ZM313.807 207.83C313.602 208.139 313.327 208.394 313.005 208.576C312.73 208.773 312.419 208.913 312.09 208.989C311.761 209.065 311.421 209.074 311.088 209.017C310.719 208.936 310.38 208.753 310.109 208.49C309.839 208.226 309.647 207.892 309.556 207.526C309.388 206.323 310.454 204.43 312.034 204.43C314.264 204.43 314.657 206.419 313.807 207.83Z" fill="#263238"/>
<path d="M206.483 188.47L226.533 249.606H182.688L175.109 185.19H201.96C202.963 185.189 203.941 185.506 204.754 186.096C205.566 186.685 206.171 187.516 206.483 188.47Z" fill="#263238"/>
<path d="M213.332 242.004H256.76C258.765 242.004 260.385 244.081 260.385 246.647V249.855C260.385 252.421 258.781 254.499 256.76 254.499H190.074L186.585 242.388L213.332 242.004Z" fill="#263238"/>
<g opacity="0.2">
<path d="M213.332 242.004H256.76C258.765 242.004 260.385 244.081 260.385 246.647V249.855C260.385 252.421 258.781 254.499 256.76 254.499H190.074L186.585 242.388L213.332 242.004Z" fill="white"/>
</g>
<path d="M178.766 188.783L184.38 237.897C184.598 239.777 185.5 241.511 186.914 242.77C188.327 244.028 190.154 244.723 192.047 244.722H222.298C223.262 244.722 224.186 245.105 224.867 245.786C225.549 246.468 225.931 247.392 225.931 248.355V250.89C225.931 251.853 225.549 252.777 224.867 253.459C224.186 254.14 223.262 254.523 222.298 254.523H185.703C183.789 254.522 181.944 253.81 180.525 252.525C179.107 251.24 178.217 249.474 178.028 247.569L172.149 188.085C172.112 187.721 172.152 187.353 172.266 187.005C172.38 186.657 172.566 186.337 172.812 186.066C173.058 185.794 173.358 185.578 173.693 185.429C174.027 185.281 174.39 185.205 174.756 185.206C175.748 185.2 176.708 185.563 177.449 186.223C178.189 186.884 178.659 187.796 178.766 188.783Z" fill="#263238"/>
<path opacity="0.3" d="M178.766 188.783L184.38 237.897C184.598 239.777 185.5 241.511 186.914 242.77C188.327 244.028 190.154 244.723 192.047 244.722H222.298C223.262 244.722 224.186 245.105 224.867 245.786C225.549 246.468 225.931 247.392 225.931 248.355V250.89C225.931 251.853 225.549 252.777 224.867 253.459C224.186 254.14 223.262 254.523 222.298 254.523H185.703C183.789 254.522 181.944 253.81 180.525 252.525C179.107 251.24 178.217 249.474 178.028 247.569L172.149 188.085C172.112 187.721 172.152 187.353 172.266 187.005C172.38 186.657 172.566 186.337 172.812 186.066C173.058 185.794 173.358 185.578 173.693 185.429C174.027 185.281 174.39 185.205 174.756 185.206C175.748 185.2 176.708 185.563 177.449 186.223C178.189 186.884 178.659 187.796 178.766 188.783Z" fill="white"/>
<path d="M190.074 312.876C190.074 313.566 189.869 314.241 189.486 314.814C189.103 315.388 188.558 315.835 187.92 316.099C187.283 316.363 186.581 316.432 185.905 316.298C185.228 316.163 184.606 315.831 184.118 315.343C183.63 314.855 183.298 314.234 183.164 313.557C183.029 312.88 183.098 312.179 183.362 311.541C183.626 310.904 184.073 310.359 184.647 309.975C185.221 309.592 185.895 309.388 186.585 309.388C187.511 309.388 188.398 309.755 189.052 310.409C189.706 311.064 190.074 311.951 190.074 312.876Z" fill="#2F3F55"/>
<path d="M242.116 312.876C242.116 313.566 242.32 314.241 242.704 314.814C243.087 315.388 243.632 315.835 244.269 316.099C244.907 316.363 245.608 316.432 246.285 316.298C246.962 316.163 247.583 315.831 248.071 315.343C248.559 314.855 248.892 314.234 249.026 313.557C249.161 312.88 249.092 312.179 248.828 311.541C248.564 310.904 248.116 310.359 247.543 309.975C246.969 309.592 246.294 309.388 245.604 309.388C244.679 309.388 243.792 309.755 243.138 310.409C242.483 311.064 242.116 311.951 242.116 312.876Z" fill="#2F3F55"/>
<path d="M212.698 311.761C212.698 312.451 212.903 313.126 213.286 313.7C213.67 314.273 214.215 314.721 214.852 314.985C215.49 315.249 216.191 315.318 216.868 315.183C217.544 315.049 218.166 314.716 218.654 314.228C219.142 313.74 219.474 313.119 219.609 312.442C219.743 311.765 219.674 311.064 219.41 310.426C219.146 309.789 218.699 309.244 218.125 308.861C217.552 308.477 216.877 308.273 216.187 308.273C215.262 308.273 214.375 308.64 213.72 309.295C213.066 309.949 212.698 310.836 212.698 311.761Z" fill="#2F3F55"/>
<path d="M249.735 306.901C249.687 307.283 249.503 307.635 249.218 307.892C248.932 308.15 248.563 308.296 248.179 308.305L215.137 307.792L184.203 308.594C183.819 308.585 183.45 308.439 183.165 308.181C182.879 307.923 182.695 307.572 182.647 307.19C182.552 306.759 182.625 306.308 182.85 305.929C183.074 305.549 183.435 305.269 183.859 305.145L200.757 301.416C202.502 301.045 204.281 300.857 206.066 300.854H224.223C226.008 300.857 227.787 301.045 229.532 301.416L248.516 304.864C248.938 304.988 249.298 305.267 249.524 305.644C249.75 306.022 249.825 306.471 249.735 306.901Z" fill="#263238"/>
<g opacity="0.3">
<path d="M249.735 306.901C249.687 307.283 249.503 307.635 249.218 307.892C248.932 308.15 248.563 308.296 248.179 308.305L215.137 307.792L184.203 308.594C183.819 308.585 183.45 308.439 183.165 308.181C182.879 307.923 182.695 307.572 182.647 307.19C182.552 306.759 182.625 306.308 182.85 305.929C183.074 305.549 183.435 305.269 183.859 305.145L200.757 301.416C202.502 301.045 204.281 300.857 206.066 300.854H224.223C226.008 300.857 227.787 301.045 229.532 301.416L248.516 304.864C248.938 304.988 249.298 305.267 249.524 305.644C249.75 306.022 249.825 306.471 249.735 306.901Z" fill="white"/>
</g>
<path d="M220.75 269.047H209.514V300.854H220.75V269.047Z" fill="#263238"/>
<path d="M219.146 254.242H211.135V269.039H219.146V254.242Z" fill="#263238"/>
<path opacity="0.3" d="M211.135 258.589L219.146 260.875V254.242H211.135V258.589Z" fill="black"/>
<path d="M190.074 312.876C190.074 313.566 189.869 314.241 189.486 314.814C189.103 315.388 188.558 315.835 187.92 316.099C187.283 316.363 186.581 316.432 185.905 316.298C185.228 316.163 184.606 315.831 184.118 315.343C183.63 314.855 183.298 314.234 183.164 313.557C183.029 312.88 183.098 312.179 183.362 311.541C183.626 310.904 184.073 310.359 184.647 309.975C185.221 309.592 185.895 309.388 186.585 309.388C187.511 309.388 188.398 309.755 189.052 310.409C189.706 311.064 190.074 311.951 190.074 312.876Z" fill="#263238"/>
<path d="M242.116 312.876C242.116 313.566 242.32 314.241 242.704 314.814C243.087 315.388 243.632 315.835 244.269 316.099C244.907 316.363 245.608 316.432 246.285 316.298C246.962 316.163 247.583 315.831 248.071 315.343C248.559 314.855 248.892 314.234 249.026 313.557C249.161 312.88 249.092 312.179 248.828 311.541C248.564 310.904 248.116 310.359 247.543 309.975C246.969 309.592 246.294 309.388 245.604 309.388C244.679 309.388 243.792 309.755 243.138 310.409C242.483 311.064 242.116 311.951 242.116 312.876Z" fill="#263238"/>
<path d="M212.698 311.761C212.698 312.451 212.903 313.126 213.286 313.7C213.67 314.273 214.215 314.721 214.852 314.985C215.49 315.249 216.191 315.318 216.868 315.183C217.544 315.049 218.166 314.716 218.654 314.228C219.142 313.74 219.474 313.119 219.609 312.442C219.743 311.765 219.674 311.064 219.41 310.426C219.146 309.789 218.699 309.244 218.125 308.861C217.552 308.477 216.877 308.273 216.187 308.273C215.262 308.273 214.375 308.64 213.72 309.295C213.066 309.949 212.698 310.836 212.698 311.761Z" fill="#263238"/>
<path d="M75.388 196.771C75.388 196.771 69.0682 204.791 70.0868 218.497C71.1053 232.203 98.3011 224.44 98.3011 224.44C98.3011 224.44 110.123 207.285 117.461 205.392L110.941 198.623C106.393 198.896 103.017 193.996 75.388 196.771Z" fill="#BDD1FF"/>
<path d="M101.188 145.419C103.009 149.717 104.91 153.872 106.939 158.05C108.968 162.229 111.037 166.351 113.355 170.497L114.285 172.101C114.87 173.11 115.65 173.994 116.579 174.7C118.063 175.796 119.792 176.514 121.615 176.793C124.329 177.196 127.091 177.144 129.788 176.64C134.587 175.783 139.255 174.312 143.678 172.262L142.074 167.45L138.794 167.971C137.687 168.139 136.581 168.236 135.49 168.396C133.347 168.663 131.192 168.818 129.034 168.861C127.158 168.944 125.281 168.755 123.46 168.3C123.007 168.203 122.589 167.987 122.249 167.674C122.249 167.618 122.321 167.674 122.321 167.674L121.647 166.255C119.803 162.196 117.958 157.97 116.13 153.824C114.301 149.677 112.416 145.451 110.516 141.312L101.188 145.419Z" fill="#FFB573"/>
<path d="M149.413 171.58C149.99 171.452 150.535 171.209 151.017 170.866C152.741 169.262 151.722 166.551 150.102 164.835C150.038 164.763 148.226 163.095 148.153 163.023C146.413 161.419 145.451 163.143 143.855 164.883L140.647 168.356L142.612 172.518C144.41 172.512 146.203 172.316 147.961 171.933C148.37 171.853 148.875 171.732 149.413 171.58Z" fill="#FFB573"/>
<path d="M114.494 143.742C118.199 149.461 117.557 157.032 117.557 157.032L108.639 158.964C108.639 158.964 98.7102 148.603 100.523 143.558C102.536 137.992 110.572 137.679 114.494 143.742Z" fill="#2F3F55"/>
<path opacity="0.2" d="M108.639 158.964L114.309 157.737C112.967 153.815 111.16 150.067 108.928 146.574C105.567 141.593 103.161 140.158 100.491 141.569C99.6485 148.482 108.639 158.964 108.639 158.964Z" fill="black"/>
<path d="M83.8973 138.401C82.983 138.489 73.776 140.727 76.0938 149.437C85.7178 183.586 79.5504 180.715 75.3961 196.755L110.949 198.607C110.949 198.607 108.543 174.09 110.099 169.735C112.761 162.413 112.465 157.072 109.754 149.725C106.762 141.617 105.607 139.42 105.607 139.42C102.223 138.674 90.8426 135.795 83.8973 138.401Z" fill="#2F3F55"/>
<path opacity="0.2" d="M85.421 164.803C84.9238 160.488 77.7459 144.135 79.1654 142.138C80.2722 141.553 85.2927 142.211 88.0917 145.346C94.4676 160.28 85.421 164.803 85.421 164.803Z" fill="black"/>
<path d="M67.9214 304.263L49.6599 317.977C48.914 317.624 43.5165 311.697 43.5165 311.697L59.348 298.272L67.9214 304.263Z" fill="#FFB573"/>
<path d="M50.8468 319.693C50.8235 319.655 50.8111 319.61 50.8111 319.565C50.8111 319.52 50.8235 319.475 50.8468 319.437C50.8777 319.401 50.9185 319.375 50.9642 319.362C51.0099 319.349 51.0583 319.35 51.1034 319.364C51.2558 319.413 54.9129 320.632 55.6508 322.115C55.7272 322.251 55.7752 322.4 55.7918 322.554C55.8083 322.709 55.7931 322.865 55.747 323.014C55.7102 323.188 55.6202 323.346 55.4895 323.467C55.3587 323.587 55.1937 323.664 55.0172 323.687C54.3596 323.783 53.4132 323.014 52.6112 322.083C51.9519 321.342 51.3614 320.542 50.8468 319.693ZM55.0493 321.971C54.0509 321.096 52.89 320.425 51.6328 319.998C52.6272 321.482 54.2633 323.286 55.0252 323.206C55.1295 323.206 55.2658 323.142 55.3701 322.829C55.3969 322.74 55.4058 322.647 55.3961 322.555C55.3865 322.463 55.3586 322.373 55.3139 322.292C55.2404 322.163 55.1544 322.042 55.0573 321.931L55.0493 321.971Z" fill="#C1D4FF"/>
<path d="M50.8468 319.541C50.8503 319.501 50.8639 319.462 50.8863 319.428C50.9087 319.395 50.9393 319.367 50.9751 319.348C51.0714 319.292 53.1566 317.744 54.7285 317.993C54.9496 318.036 55.1598 318.123 55.3471 318.248C55.5343 318.374 55.6948 318.535 55.8192 318.723C55.9615 318.86 56.0483 319.044 56.0631 319.241C56.0779 319.438 56.0196 319.633 55.8994 319.789C55.2177 320.648 52.146 320.327 50.9831 319.789L50.9029 319.733L50.8468 319.541ZM54.6322 318.474C53.5345 318.492 52.4695 318.851 51.5846 319.501C52.916 319.902 55.2177 320.006 55.5946 319.501C55.5946 319.453 55.731 319.332 55.4984 319.004L55.3781 318.923C55.1976 318.682 54.9299 318.521 54.6322 318.474Z" fill="#C1D4FF"/>
<path d="M51.1837 317.408L49.5797 316.654C48.7064 316.239 47.932 315.642 47.3082 314.903C46.6844 314.165 46.2256 313.301 45.9626 312.371L45.3371 310.174C45.2183 310.023 45.0493 309.92 44.861 309.883C44.6726 309.846 44.4773 309.878 44.3105 309.973L37.1727 313.382C36.483 313.766 36.7156 315.491 36.7717 315.555C39.9075 320.319 47.3742 329.991 49.9726 333.079C52.5711 336.166 55.9556 334.009 55.1696 332.509C51.6568 325.804 51.5766 322.228 51.6889 319.06C51.7308 318.465 51.5508 317.877 51.1837 317.408Z" fill="#263238"/>
<path d="M70.0948 218.497C69.8571 220.168 69.8194 221.861 69.9825 223.541C70.6723 232.428 76.3023 261.628 77.8261 272.905C77.9412 274.035 77.766 275.177 77.3169 276.221C76.8678 277.265 76.1597 278.177 75.2597 278.871C70.1109 283.306 61.0001 289.297 50.6784 303.966C50.8067 310.382 51.4323 311.184 57.2548 313.502C57.2548 313.502 86.5198 291.423 91.0671 284.951C97.7638 275.407 97.9162 234.978 98.2851 224.44C98.5017 218.457 98.6861 211.327 94.1629 207.477C91.6446 205.312 71.7951 202.104 70.0948 218.497Z" fill="#C1D4FF"/>
<path d="M180.242 284.181L188.406 305.562C187.861 306.163 181.485 311.609 180.618 309.572C177.956 303.421 166.118 283.298 166.118 283.298L180.242 284.181Z" fill="#FFB573"/>
<path d="M189.545 304.584C189.504 304.607 189.459 304.619 189.412 304.619C189.366 304.619 189.32 304.607 189.28 304.584C189.248 304.548 189.226 304.505 189.215 304.459C189.204 304.413 189.204 304.365 189.216 304.319C189.28 304.167 190.603 300.55 192.111 299.86C192.248 299.788 192.399 299.745 192.554 299.734C192.708 299.723 192.863 299.744 193.009 299.796C193.182 299.836 193.339 299.929 193.455 300.063C193.572 300.197 193.643 300.365 193.659 300.541C193.739 301.199 192.937 302.097 191.983 302.883C191.226 303.526 190.409 304.095 189.545 304.584ZM191.951 300.461C191.054 301.433 190.359 302.572 189.906 303.814C191.413 302.859 193.274 301.279 193.218 300.517C193.218 300.421 193.154 300.277 192.849 300.165C192.761 300.135 192.668 300.124 192.576 300.131C192.484 300.138 192.394 300.163 192.312 300.205C192.178 300.275 192.052 300.359 191.935 300.453L191.951 300.461Z" fill="#C1D4FF"/>
<path d="M189.392 304.584C189.351 304.58 189.311 304.566 189.278 304.542C189.244 304.518 189.217 304.485 189.2 304.447C189.144 304.351 187.676 302.218 187.965 300.654C188.014 300.434 188.107 300.227 188.238 300.044C188.369 299.861 188.535 299.705 188.727 299.587C188.868 299.45 189.054 299.369 189.251 299.36C189.448 299.351 189.641 299.415 189.793 299.539C190.595 300.245 190.21 303.308 189.657 304.455L189.601 304.535L189.392 304.584ZM188.47 300.75C188.451 301.846 188.776 302.92 189.4 303.822C189.841 302.514 190.018 300.213 189.497 299.812C189.448 299.812 189.328 299.675 188.991 299.892L188.911 300.012C188.673 300.19 188.514 300.456 188.47 300.75Z" fill="#C1D4FF"/>
<path d="M188.31 303.958L179.688 307.415C179.51 307.485 179.363 307.616 179.273 307.785C179.183 307.954 179.157 308.15 179.199 308.337L180.37 316.156C180.538 316.958 182.255 317.207 182.335 317.175C187.812 315.571 199.241 311.248 202.954 309.676C206.667 308.104 205.585 304.223 203.925 304.535C196.482 305.931 193.041 304.969 190.042 303.934C189.483 303.717 188.862 303.726 188.31 303.958Z" fill="#263238"/>
<path d="M132.33 248.676C134.415 250.128 136.388 251.523 138.177 252.831C154.329 264.668 163.528 286.065 170.08 297.743C176.039 300.654 184.324 294.871 186.842 293.091C186.842 293.091 169.198 255.662 163.287 247.521C148.964 227.904 134.728 215.04 112.761 202.73C109.899 201.119 106.659 200.302 103.375 200.363C100.091 200.423 96.8835 201.359 94.0826 203.074C91.8304 204.377 89.7435 205.947 87.8671 207.75C87.0651 208.616 85.6055 213.581 92.3583 220.333C98.4134 226.397 118.111 238.844 132.298 248.7" fill="#C1D4FF"/>
<path opacity="0.1" d="M98.3092 224.44C96.8977 221.929 98.9588 213.444 98.9588 213.444C98.9588 213.444 126.499 240.087 127.831 245.524L104.172 229.484L98.3092 224.44Z" fill="black"/>
<path d="M153.695 275.463C153.629 275.462 153.564 275.446 153.506 275.415C153.447 275.385 153.397 275.341 153.358 275.287C152.556 274.019 151.706 272.792 150.888 271.637C150.858 271.594 150.836 271.545 150.824 271.494C150.813 271.442 150.811 271.389 150.82 271.337C150.829 271.285 150.848 271.235 150.876 271.19C150.905 271.145 150.941 271.107 150.985 271.076C151.028 271.045 151.077 271.024 151.128 271.012C151.18 271 151.233 270.999 151.285 271.008C151.337 271.017 151.387 271.036 151.432 271.064C151.477 271.092 151.515 271.129 151.546 271.172C152.348 272.343 153.206 273.578 154.032 274.845C154.062 274.889 154.082 274.939 154.092 274.991C154.102 275.043 154.101 275.096 154.09 275.148C154.078 275.199 154.057 275.248 154.026 275.291C153.996 275.335 153.957 275.371 153.912 275.399C153.849 275.444 153.773 275.466 153.695 275.463Z" fill="#C1D4FF"/>
<path d="M148.587 268.253C148.525 268.254 148.464 268.241 148.408 268.214C148.353 268.188 148.304 268.149 148.266 268.101C144.609 263.245 140.289 258.925 135.434 255.269C133.758 254.042 131.849 252.686 129.595 251.122C129.514 251.059 129.46 250.968 129.445 250.866C129.429 250.764 129.453 250.661 129.512 250.576C129.57 250.492 129.659 250.433 129.76 250.413C129.86 250.392 129.965 250.41 130.052 250.465C132.314 252.069 134.223 253.392 135.907 254.627C140.816 258.314 145.184 262.672 148.883 267.571C148.933 267.629 148.965 267.701 148.976 267.776C148.986 267.852 148.973 267.93 148.94 267.999C148.907 268.068 148.854 268.125 148.788 268.165C148.723 268.204 148.647 268.224 148.571 268.221L148.587 268.253Z" fill="#C1D4FF"/>
<path d="M96.7774 282.914H96.6571C96.5558 282.88 96.4715 282.809 96.4221 282.715C96.3727 282.62 96.362 282.51 96.3924 282.408C96.625 281.695 96.8415 280.901 97.0581 280.058C97.0711 280.007 97.0942 279.959 97.1259 279.917C97.1576 279.875 97.1973 279.839 97.2427 279.813C97.2882 279.786 97.3385 279.768 97.3907 279.761C97.443 279.753 97.4962 279.756 97.5473 279.77C97.5981 279.782 97.646 279.804 97.6881 279.835C97.7302 279.866 97.7658 279.905 97.7927 279.95C97.8196 279.994 97.8372 280.044 97.8447 280.096C97.8521 280.148 97.8492 280.2 97.836 280.251C97.6195 281.109 97.3949 281.919 97.1623 282.657C97.1316 282.734 97.0783 282.799 97.0096 282.845C96.9409 282.891 96.8599 282.915 96.7774 282.914Z" fill="#C1D4FF"/>
<path d="M82.0366 299.603C81.977 299.604 81.918 299.591 81.8639 299.566C81.8098 299.541 81.7619 299.505 81.7238 299.459C81.6569 299.375 81.6252 299.269 81.6357 299.163C81.6462 299.056 81.698 298.958 81.7799 298.889C88.5809 293.235 92.7593 289.314 94.219 287.244C94.5158 286.833 94.7837 286.402 95.021 285.953C95.072 285.86 95.1575 285.79 95.2594 285.758C95.3613 285.727 95.4714 285.736 95.5663 285.785C95.6594 285.834 95.7292 285.918 95.7607 286.019C95.7922 286.119 95.7829 286.228 95.7347 286.322C95.4999 286.803 95.2319 287.266 94.9327 287.71C93.441 289.835 89.2065 293.805 82.3574 299.507C82.3137 299.545 82.2626 299.573 82.2073 299.589C82.152 299.606 82.0938 299.611 82.0366 299.603Z" fill="#C1D4FF"/>
<path d="M93.9784 130.518C94.6039 133.092 96.9458 134.856 99.1994 136.244C100.956 137.318 102.889 138.345 104.942 138.273C105.753 138.205 106.542 137.973 107.261 137.591C107.98 137.209 108.614 136.685 109.124 136.05C109.634 135.415 110.009 134.684 110.228 133.9C110.447 133.115 110.504 132.295 110.395 131.488C110.696 131.925 111.085 132.293 111.538 132.569C111.99 132.846 112.496 133.024 113.021 133.092C113.547 133.16 114.081 133.116 114.589 132.964C115.097 132.813 115.567 132.555 115.969 132.21C117.493 130.734 117.453 128.296 117.068 126.211C115.803 119.567 112.357 113.535 107.276 109.072C106.105 110.604 103.779 110.315 102.72 110.034C102.344 109.946 101.981 109.811 101.637 109.633C100.596 109.434 99.5185 109.577 98.5658 110.042C97.0821 111.975 96.5448 114.494 96.0555 116.908C95.4567 119.859 94.8579 122.813 94.2591 125.77C93.8317 127.315 93.736 128.933 93.9784 130.518Z" fill="#263238"/>
<path d="M92.23 125.802C92.3904 130.068 92.23 136.228 88.9258 138.586C88.9258 138.586 88.4205 142.852 99.456 149.252C104.629 143.839 101.862 140.607 101.862 140.607C97.3869 138.778 97.852 136.909 99.1112 133.806L92.23 125.802Z" fill="#FFB573"/>
<path opacity="0.2" d="M95.0531 129.026L99.0631 133.838C98.745 134.557 98.4927 135.303 98.3092 136.067C96.5689 135.538 94.0185 133.597 93.9383 131.616C94.0834 130.672 94.4671 129.78 95.0531 129.026Z" fill="black"/>
<path d="M87.9393 117.838C88.7413 124.928 88.9338 127.943 92.7513 131.4C98.4455 136.613 106.979 134.062 108.31 126.876C109.497 120.404 107.973 109.858 100.86 107.436C99.292 106.882 97.6086 106.739 95.9701 107.021C94.3316 107.303 92.7927 107.999 91.5001 109.045C90.2076 110.091 89.2046 111.45 88.5868 112.994C87.969 114.537 87.7572 116.213 87.9714 117.862L87.9393 117.838Z" fill="#FFB573"/>
<path d="M103.001 126.62C103.001 127.213 103.29 127.694 103.675 127.711C104.06 127.727 104.38 127.237 104.396 126.652C104.412 126.066 104.108 125.569 103.723 125.561C103.338 125.553 103.001 126.026 103.001 126.62Z" fill="#263238"/>
<path d="M99.3678 119.105C99.3678 119.682 99.7367 120.14 100.114 120.124C100.491 120.108 100.771 119.61 100.747 119.033C100.723 118.455 100.378 117.998 100.009 118.014C99.6405 118.03 99.3758 118.552 99.3678 119.105Z" fill="#263238"/>
<path d="M105.912 118.776C105.912 119.362 106.281 119.811 106.65 119.795C107.019 119.779 107.316 119.281 107.292 118.704C107.267 118.127 106.923 117.669 106.546 117.694C106.169 117.718 105.864 118.199 105.912 118.776Z" fill="#263238"/>
<path d="M106.385 117.734L107.749 117.26C107.749 117.26 107.099 118.391 106.385 117.734Z" fill="#263238"/>
<path d="M103.947 119.931C104.54 121.224 105.304 122.433 106.217 123.524C105.93 123.748 105.598 123.907 105.243 123.992C104.889 124.076 104.521 124.084 104.164 124.013L103.947 119.931Z" fill="#ED893E"/>
<path d="M97.2425 116.418C97.3015 116.459 97.3714 116.481 97.443 116.481C97.5146 116.481 97.5846 116.459 97.6435 116.418C98.0977 116.1 98.6131 115.879 99.157 115.77C99.7009 115.661 100.262 115.666 100.803 115.785C100.892 115.804 100.984 115.788 101.06 115.74C101.137 115.692 101.191 115.616 101.212 115.528C101.223 115.485 101.225 115.44 101.219 115.396C101.212 115.352 101.197 115.31 101.173 115.272C101.15 115.234 101.12 115.201 101.084 115.174C101.048 115.148 101.007 115.129 100.964 115.119C100.314 114.971 99.6391 114.966 98.9869 115.105C98.3347 115.243 97.7204 115.522 97.1864 115.921C97.1242 115.984 97.0893 116.069 97.0893 116.158C97.0893 116.246 97.1242 116.331 97.1864 116.394L97.2425 116.418Z" fill="#263238"/>
<path d="M107.717 115.656C107.778 115.663 107.84 115.652 107.896 115.627C107.953 115.602 108.001 115.562 108.037 115.512C108.064 115.476 108.083 115.436 108.094 115.393C108.105 115.349 108.107 115.304 108.1 115.26C108.093 115.216 108.078 115.174 108.055 115.136C108.032 115.098 108.001 115.065 107.965 115.039C107.536 114.696 107.029 114.465 106.488 114.367C105.948 114.269 105.392 114.307 104.87 114.478C104.829 114.49 104.791 114.511 104.759 114.539C104.726 114.566 104.7 114.6 104.681 114.639C104.662 114.677 104.651 114.719 104.649 114.761C104.647 114.804 104.654 114.847 104.669 114.887C104.683 114.928 104.706 114.966 104.735 114.999C104.764 115.031 104.8 115.057 104.839 115.076C104.879 115.095 104.922 115.105 104.966 115.107C105.009 115.109 105.053 115.102 105.094 115.087C105.505 114.973 105.937 114.957 106.354 115.041C106.772 115.124 107.165 115.305 107.5 115.568C107.563 115.617 107.638 115.647 107.717 115.656Z" fill="#263238"/>
<path d="M99.833 118.119L101.204 117.637C101.204 117.637 100.555 118.696 99.833 118.119Z" fill="#263238"/>
<path d="M108.863 110.676C108.799 110.764 106.089 111.967 102.72 109.994C102.375 109.794 101.974 109.762 101.645 109.585C100.602 109.385 99.5212 109.529 98.5658 109.994C98.3252 110.131 95.446 111.302 95.0851 116.41C94.4997 124.623 90.7864 122.586 90.2731 122.409C89.022 121.952 88.3563 120.966 87.0651 121.134C86.8316 121.174 86.5929 121.174 86.3594 121.134C87.1614 123.492 88.0195 125.738 89.0461 126.243C96.5287 129.86 94.3152 136.268 92.3343 137.286C90.9147 138.024 84.9559 138.61 80.5609 133.742C79.2135 134.969 77.0241 134.68 75.38 133.83C74.1263 133.163 73.1578 132.063 72.6546 130.735C72.1515 129.407 72.1482 127.942 72.6452 126.612C73.5944 123.969 75.333 121.681 77.6256 120.059C79.2296 118.961 81.0822 118.159 82.2371 116.603C82.5704 116.147 82.8402 115.648 83.0391 115.119C83.3519 114.317 83.7288 113.475 84.0977 112.665C84.1478 112.541 84.1854 112.412 84.21 112.28C84.7963 110.469 85.8276 108.834 87.2095 107.524C89.2626 105.519 93.7217 103.963 97.4029 103.875C101.637 103.731 107.195 106.762 108.863 110.676Z" fill="#263238"/>
<path d="M83.7368 116.234C83.793 115.648 83.817 115.143 83.8251 114.935C83.7683 115.365 83.7388 115.799 83.7368 116.234Z" fill="#263238"/>
<path d="M86.2872 123.412C86.8006 124.662 87.7861 125.659 89.03 126.187C90.6982 126.86 91.7408 125.385 91.436 123.733C91.1634 122.217 89.9844 120.035 88.228 120.051C87.9243 120.063 87.6258 120.134 87.3498 120.261C87.0738 120.389 86.8257 120.569 86.6199 120.793C86.4141 121.017 86.2547 121.279 86.1507 121.565C86.0468 121.85 86.0005 122.154 86.0145 122.457C86.0312 122.792 86.1244 123.119 86.2872 123.412Z" fill="#FFB573"/>
<path d="M107.941 137.142C109.986 136.773 112.031 135.923 113.146 134.183C116.354 129.178 111.005 116.234 104.525 109.537L104.26 109.874C110.676 116.466 115.961 129.122 112.833 134.022C110.676 137.383 104.605 137.23 102.648 136.861L102.576 137.254C104.359 137.504 106.17 137.466 107.941 137.142Z" fill="#263238"/>
<path d="M83.9935 116.996L84.3865 116.924C83.8972 114.269 84.8195 111.358 86.9689 108.719C89.2947 105.872 92.6711 103.907 95.3658 103.907C98.4616 103.851 102.905 104.966 105.359 107.548L105.647 107.276C103.113 104.597 98.5418 103.45 95.3578 103.506C92.5508 103.554 89.0541 105.559 86.6641 108.487C84.4266 111.189 83.4802 114.221 83.9935 116.996Z" fill="#263238"/>
<path d="M72.3885 129.924C74.4027 131.627 76.5481 133.169 78.8045 134.535C80.8631 135.932 83.2529 136.762 85.7338 136.941C86.3115 136.96 86.8895 136.917 87.4581 136.813C88.415 136.671 89.3304 136.326 90.1425 135.8C90.9545 135.274 91.6445 134.58 92.1659 133.766C92.507 133.162 92.7246 132.497 92.8058 131.808C92.887 131.12 92.8304 130.422 92.639 129.756C92.4996 129.201 92.2474 128.682 91.8983 128.229C91.5492 127.776 91.1107 127.401 90.61 127.125L90.4335 127.47C90.8872 127.725 91.2841 128.07 91.5999 128.484C91.9157 128.897 92.1438 129.371 92.2701 129.876C92.447 130.492 92.4991 131.137 92.4233 131.773C92.3476 132.409 92.1455 133.024 91.829 133.581C91.1727 134.56 90.2731 135.351 89.2185 135.877C88.1639 136.403 86.9907 136.645 85.814 136.581C83.4023 136.403 81.0794 135.595 79.0772 134.239C76.7651 132.848 74.5685 131.274 72.5089 129.531L72.3885 129.924Z" fill="#263238"/>
<path d="M77.3128 144.208C78.0186 149.509 83.8892 172.213 85.0842 174.804C85.2526 175.157 85.421 175.518 85.6215 175.879C85.822 176.24 86.0145 176.608 86.2631 176.993L86.632 177.587C86.8085 177.835 86.9849 178.1 87.1694 178.317C87.518 178.751 87.8929 179.164 88.2922 179.552C89.6361 180.778 91.1758 181.77 92.8475 182.487C95.5519 183.653 98.3917 184.474 101.301 184.933C106.647 185.817 112.077 186.086 117.485 185.735L117.766 180.121L114.101 179.319C112.873 179.047 111.654 178.734 110.443 178.453C108.037 177.852 105.631 177.218 103.37 176.456C101.22 175.806 97.7959 174.852 95.831 173.793C95.1559 173.416 94.5488 172.928 94.0345 172.35C93.979 172.28 93.9307 172.205 93.8901 172.125C93.8866 172.104 93.8866 172.082 93.8901 172.061L93.7698 171.829C93.6736 171.636 93.5854 171.436 93.5052 171.235C93.425 171.035 87.4982 146.942 86.6882 142.042L77.3128 144.208Z" fill="#FFB573"/>
<path d="M116.787 180.61C117.93 179.173 119.238 177.876 120.685 176.745C121.335 176.212 122.116 175.864 122.947 175.734C125.545 175.333 128.288 174.932 128.384 179.704C128.384 179.824 128.994 181.845 129.002 181.958C129.226 184.58 126.708 184.981 124.085 185.206L117.084 185.687L116.787 180.61Z" fill="#FFB573"/>
<path d="M90.7223 144.16C93.1924 152.22 90.217 152.123 90.5137 157.04L80.6572 159.494C80.6572 159.494 75.2437 154.938 74.4256 149.172C74.2477 147.738 74.4101 146.283 74.8999 144.924C75.3896 143.565 76.1928 142.341 77.2443 141.35C78.2958 140.359 79.566 139.631 80.9518 139.223C82.3377 138.815 83.8001 138.74 85.2205 139.003C86.5388 139.236 87.7607 139.848 88.7375 140.764C89.7143 141.679 90.4038 142.859 90.7223 144.16Z" fill="#2F3F55"/>
<path d="M89.0641 154.931L86.0525 155.612L86.249 156.481L89.2605 155.799L89.0641 154.931Z" fill="#2F3F55"/>
<path d="M84.3596 156.11L81.1955 157.168L81.4778 158.012L84.6419 156.954L84.3596 156.11Z" fill="#2F3F55"/>
<path d="M118.152 155.804L115.443 156.403L115.616 157.186L118.325 156.588L118.152 155.804Z" fill="#2F3F55"/>
<path d="M148.587 168.941C147.54 170.152 146.948 171.689 146.912 173.288C146.875 174.888 147.396 176.45 148.386 177.707L148.587 177.964V179.359H103.787V167.329H148.587V168.941Z" fill="#2F3F55"/>
<path opacity="0.1" d="M148.587 168.941C147.54 170.152 146.948 171.689 146.912 173.288C146.875 174.888 147.396 176.45 148.386 177.707L148.587 177.964V179.359H128.946V167.329H148.587V168.941Z" fill="black"/>
<path d="M148.37 177.707L148.571 177.964H131.071V168.941H148.587C147.54 170.152 146.948 171.689 146.912 173.288C146.875 174.888 147.396 176.45 148.386 177.707H148.37Z" fill="#263238"/>
<path opacity="0.9" d="M148.37 177.707L148.571 177.964H131.071V168.941H148.587C147.54 170.152 146.948 171.689 146.912 173.288C146.875 174.888 147.396 176.45 148.386 177.707H148.37Z" fill="white"/>
<path d="M127.366 173.657C127.366 174.133 127.225 174.598 126.96 174.994C126.696 175.389 126.32 175.698 125.88 175.88C125.441 176.062 124.957 176.11 124.49 176.017C124.024 175.924 123.595 175.695 123.258 175.358C122.922 175.022 122.693 174.593 122.6 174.126C122.507 173.66 122.555 173.176 122.737 172.736C122.919 172.297 123.227 171.921 123.623 171.657C124.019 171.392 124.484 171.251 124.96 171.251C125.598 171.251 126.21 171.505 126.661 171.956C127.112 172.407 127.366 173.019 127.366 173.657Z" fill="white"/>
<path d="M126.82 173.657C126.82 174.03 126.71 174.394 126.503 174.704C126.296 175.014 126.001 175.256 125.657 175.398C125.312 175.541 124.933 175.578 124.568 175.506C124.202 175.433 123.866 175.253 123.603 174.99C123.339 174.726 123.16 174.39 123.087 174.025C123.014 173.659 123.052 173.28 123.194 172.936C123.337 172.591 123.579 172.297 123.888 172.09C124.198 171.883 124.563 171.772 124.936 171.772C125.435 171.772 125.915 171.971 126.268 172.324C126.622 172.678 126.82 173.157 126.82 173.657Z" fill="#263238"/>
<path d="M115.448 169.984H104.998V176.649H115.448V169.984Z" fill="white"/>
<path d="M120.436 169.984H115.937V176.649H120.436V169.984Z" fill="white"/>
<path d="M131.071 176.841V176.039C131.412 176.088 131.76 176.062 132.09 175.965C132.421 175.868 132.727 175.7 132.987 175.474C133.247 175.249 133.456 174.969 133.599 174.656C133.742 174.342 133.816 174.002 133.816 173.657C133.816 173.312 133.742 172.972 133.599 172.658C133.456 172.345 133.247 172.066 132.987 171.84C132.727 171.614 132.421 171.447 132.09 171.349C131.76 171.252 131.412 171.227 131.071 171.275V170.473C131.522 170.418 131.979 170.459 132.413 170.593C132.847 170.728 133.248 170.953 133.588 171.254C133.929 171.555 134.201 171.925 134.388 172.339C134.575 172.754 134.671 173.203 134.671 173.657C134.671 174.111 134.575 174.561 134.388 174.975C134.201 175.389 133.929 175.759 133.588 176.06C133.248 176.361 132.847 176.586 132.413 176.721C131.979 176.856 131.522 176.897 131.071 176.841Z" fill="#263238"/>
<path d="M147.119 171.572H131.071V171.973H147.119V171.572Z" fill="white"/>
<path d="M147.119 172.045H131.071V172.446H147.119V172.045Z" fill="white"/>
<path d="M147.119 172.51H131.071V172.911H147.119V172.51Z" fill="white"/>
<path d="M147.119 172.983H131.071V173.384H147.119V172.983Z" fill="white"/>
<path d="M147.119 173.457H131.071V173.858H147.119V173.457Z" fill="white"/>
<path d="M147.119 173.93H131.071V174.331H147.119V173.93Z" fill="white"/>
<path d="M147.119 174.403H131.071V174.804H147.119V174.403Z" fill="white"/>
<path d="M147.119 174.876H131.071V175.277H147.119V174.876Z" fill="white"/>
<path d="M147.119 175.341H131.071V175.742H147.119V175.341Z" fill="white"/>
<path d="M153.471 156.695C152.425 157.905 151.833 159.442 151.796 161.042C151.759 162.641 152.281 164.204 153.27 165.461L153.471 165.717V167.113H108.671V155.043H153.471V156.695Z" fill="#2F3F55"/>
<path opacity="0.1" d="M153.471 156.695C152.425 157.905 151.832 159.442 151.796 161.042C151.759 162.641 152.281 164.204 153.27 165.461L153.471 165.717V167.113H133.83V155.043H153.471V156.695Z" fill="black"/>
<path d="M153.27 165.461L153.471 165.717H135.955V156.695H153.471C152.425 157.905 151.832 159.442 151.796 161.042C151.759 162.641 152.281 164.204 153.27 165.461Z" fill="#263238"/>
<path opacity="0.9" d="M153.27 165.461L153.471 165.717H135.955V156.695H153.471C152.425 157.905 151.832 159.442 151.796 161.042C151.759 162.641 152.281 164.204 153.27 165.461Z" fill="white"/>
<path d="M132.25 161.411C132.25 161.886 132.109 162.352 131.844 162.747C131.58 163.143 131.204 163.451 130.765 163.633C130.325 163.815 129.841 163.863 129.374 163.77C128.908 163.677 128.479 163.448 128.143 163.112C127.806 162.775 127.577 162.347 127.484 161.88C127.391 161.413 127.439 160.929 127.621 160.49C127.803 160.05 128.111 159.674 128.507 159.41C128.903 159.146 129.368 159.005 129.844 159.005C130.482 159.005 131.094 159.258 131.545 159.709C131.996 160.16 132.25 160.772 132.25 161.411Z" fill="white"/>
<path d="M131.704 161.411C131.704 161.783 131.594 162.148 131.387 162.458C131.18 162.768 130.885 163.009 130.541 163.152C130.197 163.294 129.818 163.332 129.452 163.259C129.086 163.186 128.751 163.007 128.487 162.743C128.223 162.48 128.044 162.144 127.971 161.778C127.899 161.413 127.936 161.034 128.079 160.689C128.221 160.345 128.463 160.051 128.773 159.843C129.083 159.636 129.447 159.526 129.82 159.526C130.32 159.526 130.799 159.724 131.152 160.078C131.506 160.431 131.704 160.911 131.704 161.411Z" fill="#263238"/>
<path d="M120.332 157.729H109.882V164.394H120.332V157.729Z" fill="white"/>
<path d="M125.321 157.729H120.821V164.394H125.321V157.729Z" fill="white"/>
<path d="M135.955 164.594V163.792C136.529 163.711 137.053 163.425 137.433 162.987C137.813 162.55 138.022 161.99 138.022 161.411C138.022 160.831 137.813 160.271 137.433 159.834C137.053 159.396 136.529 159.11 135.955 159.029V158.227C136.732 158.322 137.447 158.699 137.966 159.285C138.485 159.872 138.771 160.628 138.771 161.411C138.771 162.193 138.485 162.949 137.966 163.536C137.447 164.122 136.732 164.499 135.955 164.594Z" fill="#263238"/>
<path d="M152.003 159.325H135.955V159.726H152.003V159.325Z" fill="white"/>
<path d="M152.003 159.799H135.955V160.2H152.003V159.799Z" fill="white"/>
<path d="M152.003 160.264H135.955V160.665H152.003V160.264Z" fill="white"/>
<path d="M152.003 160.737H135.955V161.138H152.003V160.737Z" fill="white"/>
<path d="M152.003 161.21H135.955V161.611H152.003V161.21Z" fill="white"/>
<path d="M152.003 161.683H135.955V162.084H152.003V161.683Z" fill="white"/>
<path d="M152.003 162.156H135.955V162.557H152.003V162.156Z" fill="white"/>
<path d="M152.003 162.622H135.955V163.023H152.003V162.622Z" fill="white"/>
<path d="M152.003 163.095H135.955V163.496H152.003V163.095Z" fill="white"/>
<path d="M131.119 99.1914C140.303 100.449 149.619 100.395 158.788 99.031C159.058 99.0268 159.324 98.9644 159.567 98.8482C159.811 98.7319 160.027 98.5645 160.2 98.3573C160.617 97.6676 160.031 96.8335 159.55 96.1919C158.676 95.0106 158.057 93.6606 157.733 92.2275C157.408 90.7945 157.385 89.3096 157.665 87.8671C150.825 94.0976 142.202 98.0247 133.012 99.0951L131.119 99.1914Z" fill="#2F3F55"/>
<path opacity="0.4" d="M131.119 99.1914C140.303 100.449 149.619 100.395 158.788 99.031C159.058 99.0268 159.324 98.9644 159.567 98.8482C159.811 98.7319 160.027 98.5645 160.2 98.3573C160.617 97.6676 160.031 96.8335 159.55 96.1919C158.676 95.0106 158.057 93.6606 157.733 92.2275C157.408 90.7945 157.385 89.3096 157.665 87.8671C150.825 94.0976 142.202 98.0247 133.012 99.0951L131.119 99.1914Z" fill="white"/>
<path d="M110.363 155.083H150.431V145.122H110.363V155.083Z" fill="#2F3F55"/>
<path opacity="0.6" d="M110.5 155.123H150.568V145.162H110.5V155.123Z" fill="white"/>
<path opacity="0.6" d="M110.371 155.123H141.12V145.162H110.371V155.123Z" fill="white"/>
<path d="M110.564 153.808L150.439 155.051L150.391 154.04L110.548 153.519L110.564 153.808Z" fill="#2F3F55"/>
<path d="M150.439 149.204L110.628 146.966V147.303L150.439 149.966V149.204Z" fill="#2F3F55"/>
<path d="M150.439 146.197L110.628 147.111V147.432L150.439 146.95V146.197Z" fill="#2F3F55"/>
<path d="M150.551 151.161L110.732 153.102V152.805L150.551 150.495V151.161Z" fill="#2F3F55"/>
<path d="M110.467 145.25L150.279 145.282V145.611H110.467V145.25Z" fill="#2F3F55"/>
<path d="M113.242 125.409H153.31V115.448H113.242V125.409Z" fill="#2F3F55"/>
<path opacity="0.6" d="M113.371 125.457H153.439V115.496H113.371V125.457Z" fill="white"/>
<path opacity="0.6" d="M113.25 125.457H143.999V115.496H113.25V125.457Z" fill="white"/>
<path d="M113.435 124.142L153.31 125.377L153.262 124.366L113.419 123.853L113.435 124.142Z" fill="#2F3F55"/>
<path d="M153.31 119.538L113.499 117.292V117.629L153.31 120.292V119.538Z" fill="#2F3F55"/>
<path d="M153.31 116.523L113.499 117.437V117.766L153.31 117.284V116.523Z" fill="#2F3F55"/>
<path d="M153.423 121.495L113.603 123.428V123.139L153.423 120.829V121.495Z" fill="#2F3F55"/>
<path d="M112.745 144.978H152.813V135.017H112.745V144.978Z" fill="#2F3F55"/>
<path opacity="0.6" d="M112.873 145.018H152.941V135.057H112.873V145.018Z" fill="white"/>
<path opacity="0.6" d="M143.582 135.065H112.833V145.026H143.582V135.065Z" fill="white"/>
<path d="M152.637 143.422L112.793 143.943L112.745 144.954L152.613 143.71L152.637 143.422Z" fill="#2F3F55"/>
<path d="M113.002 135.145L152.813 135.177V135.506H113.002V135.145Z" fill="#2F3F55"/>
<path d="M112.745 139.861L152.556 137.198V136.869L112.745 139.107V139.861Z" fill="#2F3F55"/>
<path d="M152.813 136.099L113.002 137.006V137.335L152.813 136.853V136.099Z" fill="#2F3F55"/>
<path d="M152.925 141.064L113.106 143.005V142.708L152.925 140.398V141.064Z" fill="#2F3F55"/>
<path d="M151.426 125.625L111.374 125.826L111.318 135.586H151.426V125.625Z" fill="#2F3F55"/>
<path opacity="0.6" d="M111.358 135.586H151.426V125.625H111.358V135.586Z" fill="white"/>
<path opacity="0.6" d="M142.066 125.625H111.318V135.586H142.066V125.625Z" fill="white"/>
<path d="M143.277 125.826H111.374V126.844H142.588L143.277 125.826Z" fill="#2F3F55"/>
<path d="M151.193 129.908L111.374 130.277V130.574H151.193V129.908Z" fill="#2F3F55"/>
<path d="M111.374 134.519L151.193 132.579V132.867L111.374 135.185V134.519Z" fill="#2F3F55"/>
<path d="M111.374 130.774L151.193 131.568V131.849L111.374 131.432V130.774Z" fill="#2F3F55"/>
<path d="M161.651 103.955H121.84V108.968H161.651V103.955Z" fill="#2F3F55"/>
<path opacity="0.6" d="M161.651 103.955H121.84V108.968H161.651V103.955Z" fill="white"/>
<path opacity="0.6" d="M153.559 103.955H121.84V108.968H153.559V103.955Z" fill="white"/>
<path d="M161.675 107.516L121.864 107.709V107.861H161.675V107.516Z" fill="#2F3F55"/>
<path d="M121.864 105.639L161.675 104.629V104.781L121.864 105.984V105.639Z" fill="#2F3F55"/>
<path d="M121.736 105.367L161.547 105.776V105.928L121.736 105.704V105.367Z" fill="#2F3F55"/>
<path d="M156.085 101.75H116.274V104.164H156.085V101.75Z" fill="#2F3F55"/>
<path opacity="0.6" d="M156.085 101.766H116.274V104.164H156.085V101.766Z" fill="white"/>
<path opacity="0.6" d="M148.001 101.621H116.274V104.172H148.001V101.621Z" fill="white"/>
<path d="M116.29 103.586L156.101 102.576V102.728L116.29 103.931V103.586Z" fill="#2F3F55"/>
<path d="M116.29 102.375L156.101 102.784V102.937L116.29 102.72V102.375Z" fill="#2F3F55"/>
<path d="M159.79 99.2796H119.979V101.694H159.79V99.2796Z" fill="#2F3F55"/>
<path opacity="0.6" d="M159.79 99.2957H119.979V101.694H159.79V99.2957Z" fill="white"/>
<path opacity="0.6" d="M151.698 99.1512H119.979V101.702H151.698V99.1512Z" fill="white"/>
<path d="M120.003 100.37L159.823 100.851L159.815 101.012L119.987 100.715L120.003 100.37Z" fill="#2F3F55"/>
<path d="M120.003 99.9052L159.807 100.314V100.467L120.003 100.25V99.9052Z" fill="#2F3F55"/>
<path d="M158.964 108.976H119.153V115.432H158.964V108.976Z" fill="#2F3F55"/>
<path opacity="0.6" d="M158.964 108.976H119.153V115.432H158.964V108.976Z" fill="white"/>
<path opacity="0.6" d="M149.87 108.976H119.153V115.432H149.87V108.976Z" fill="white"/>
<path d="M158.708 110.981L118.897 110.756V110.58H158.708V110.981Z" fill="#2F3F55"/>
<path d="M119.169 111.919L158.98 113.082V112.906L119.169 111.526V111.919Z" fill="#2F3F55"/>
<path d="M158.98 108.976H121.431L122.265 109.778H158.98V108.976Z" fill="#2F3F55"/>
<path d="M119.306 114.437L159.117 113.956V113.788L119.306 114.036V114.437Z" fill="#2F3F55"/>
<rect x="339" y="389" width="6" height="6" rx="3" fill="url(#paint0_linear_1_2150)"/>
<rect x="348" y="389" width="23" height="6" rx="3" fill="#2F3F55"/>
<rect x="374" y="389" width="6" height="6" rx="3" fill="url(#paint1_linear_1_2150)"/>
<defs>
<linearGradient id="paint0_linear_1_2150" x1="342" y1="389" x2="342" y2="395" gradientUnits="userSpaceOnUse">
<stop stop-color="#2F80ED" stop-opacity="0.33"/>
<stop offset="1" stop-color="#2461B3" stop-opacity="0.33"/>
</linearGradient>
<linearGradient id="paint1_linear_1_2150" x1="377" y1="389" x2="377" y2="395" gradientUnits="userSpaceOnUse">
<stop stop-color="#2F80ED" stop-opacity="0.33"/>
<stop offset="1" stop-color="#2461B3" stop-opacity="0.33"/>
</linearGradient>
</defs>
</svg>
