<svg width="401" height="401" viewBox="0 0 401 401" fill="none" xmlns="http://www.w3.org/2000/svg">
<path d="M401 306.685H0V306.885H401V306.685Z" fill="#E0E0E0"/>
<path d="M326.173 312.78H300.542V312.98H326.173V312.78Z" fill="#E0E0E0"/>
<path d="M358.478 312.684H329.758V312.884H358.478V312.684Z" fill="#E0E0E0"/>
<path d="M224.728 316.197H172.165V316.397H224.728V316.197Z" fill="#E0E0E0"/>
<path d="M167.546 316.197H159.013V316.397H167.546V316.197Z" fill="#E0E0E0"/>
<path d="M118.937 312.483H93.433V312.684H118.937V312.483Z" fill="#E0E0E0"/>
<path d="M272.279 312.483H249.141V312.684H272.279V312.483Z" fill="#E0E0E0"/>
<path d="M75.6527 314.833H52.0739V315.034H75.6527V314.833Z" fill="#E0E0E0"/>
<path d="M190.074 270.916H35.2158C34.0027 270.913 32.8399 270.43 31.9829 269.571C31.1258 268.713 30.6444 267.549 30.6444 266.336V48.6493C30.655 47.4431 31.141 46.2898 31.9969 45.4399C32.8529 44.5899 34.0096 44.1121 35.2158 44.11H190.074C191.289 44.11 192.453 44.5925 193.312 45.4513C194.171 46.3101 194.653 47.4749 194.653 48.6894V266.336C194.653 267.551 194.171 268.715 193.312 269.574C192.453 270.433 191.289 270.916 190.074 270.916ZM35.2158 44.2704C34.0558 44.2725 32.9441 44.7348 32.1246 45.5558C31.3052 46.3767 30.8449 47.4893 30.8449 48.6493V266.336C30.8449 267.496 31.3052 268.609 32.1246 269.43C32.9441 270.251 34.0558 270.713 35.2158 270.715H190.074C191.235 270.713 192.347 270.251 193.168 269.43C193.989 268.609 194.451 267.497 194.453 266.336V48.6493C194.451 47.4886 193.989 46.376 193.168 45.5553C192.347 44.7345 191.235 44.2725 190.074 44.2704H35.2158Z" fill="#E0E0E0"/>
<path d="M363.555 270.916H208.688C207.475 270.913 206.311 270.43 205.453 269.572C204.594 268.714 204.111 267.55 204.109 266.336V48.6493C204.122 47.4424 204.609 46.2891 205.467 45.4394C206.324 44.5897 207.481 44.112 208.688 44.11H363.555C364.759 44.1142 365.914 44.593 366.768 45.4427C367.623 46.2924 368.107 47.4445 368.118 48.6493V266.336C368.118 267.548 367.638 268.71 366.782 269.569C365.927 270.427 364.766 270.911 363.555 270.916ZM208.688 44.2704C207.528 44.2725 206.415 44.7345 205.594 45.5553C204.774 46.376 204.312 47.4886 204.31 48.6493V266.336C204.312 267.497 204.774 268.609 205.594 269.43C206.415 270.251 207.528 270.713 208.688 270.715H363.555C364.715 270.713 365.828 270.251 366.649 269.43C367.469 268.609 367.931 267.497 367.934 266.336V48.6493C367.931 47.4886 367.469 46.376 366.649 45.5553C365.828 44.7345 364.715 44.2725 363.555 44.2704H208.688Z" fill="#E0E0E0"/>
<path d="M122.064 253.231C104.769 253.236 87.8613 248.111 73.4799 238.504C59.0986 228.896 47.8902 215.239 41.2731 199.26C34.6559 183.281 32.9274 165.698 36.3061 148.736C39.6849 131.774 48.0191 116.195 60.2543 103.971C60.273 103.952 60.2954 103.936 60.3202 103.926C60.345 103.915 60.3717 103.91 60.3986 103.91C60.4256 103.91 60.4522 103.915 60.477 103.926C60.5019 103.936 60.5243 103.952 60.543 103.971L76.6311 120.059C76.6505 120.078 76.6659 120.101 76.6765 120.125C76.687 120.15 76.6925 120.177 76.6925 120.204C76.6925 120.231 76.687 120.257 76.6765 120.282C76.6659 120.307 76.6505 120.329 76.6311 120.348C66.6188 130.354 60.1895 143.384 58.3411 157.418C56.4927 171.451 59.3286 185.702 66.4086 197.959C73.4886 210.216 84.4167 219.793 97.4965 225.203C110.576 230.613 125.076 231.554 138.746 227.88C138.77 227.87 138.796 227.865 138.822 227.865C138.848 227.865 138.874 227.87 138.898 227.88C138.945 227.907 138.979 227.95 138.995 228.001L144.889 249.991C144.909 250.04 144.909 250.095 144.889 250.144C144.86 250.191 144.814 250.225 144.761 250.24C137.359 252.225 129.728 253.23 122.064 253.231ZM60.3986 104.396C46.908 117.953 38.2581 135.576 35.7857 154.541C33.3134 173.506 37.1562 192.757 46.7203 209.319C56.2843 225.882 71.0372 238.833 88.6987 246.171C106.36 253.51 125.947 254.827 144.432 249.919L138.642 228.313C124.911 231.951 110.364 230.968 97.2478 225.515C84.1315 220.062 73.1748 210.443 66.0695 198.143C58.9643 185.843 56.1055 171.546 57.9346 157.46C59.7637 143.374 66.179 130.281 76.19 120.204L60.3986 104.396Z" fill="#E0E0E0"/>
<path d="M167.682 120.404C167.629 120.405 167.577 120.385 167.538 120.348C155.474 108.311 139.127 101.55 122.084 101.55C105.042 101.55 88.6954 108.311 76.6311 120.348C76.6131 120.367 76.5913 120.383 76.5672 120.393C76.5431 120.403 76.517 120.409 76.4907 120.409C76.4644 120.409 76.4384 120.403 76.4143 120.393C76.3901 120.383 76.3684 120.367 76.3504 120.348L60.2542 104.26C60.2351 104.242 60.2198 104.22 60.2093 104.196C60.1989 104.172 60.1935 104.146 60.1935 104.12C60.1935 104.093 60.1989 104.067 60.2093 104.043C60.2198 104.019 60.2351 103.997 60.2542 103.979C76.6572 87.5865 98.8983 78.3781 122.088 78.3781C145.279 78.3781 167.52 87.5865 183.923 103.979C183.958 104.018 183.977 104.068 183.977 104.12C183.977 104.172 183.958 104.222 183.923 104.26L167.826 120.356C167.786 120.39 167.735 120.407 167.682 120.404ZM122.088 101.156C139.174 101.126 155.572 107.879 167.682 119.931L183.49 104.116C167.173 87.8888 145.096 78.7802 122.084 78.7802C99.0725 78.7802 76.9961 87.8888 60.6793 104.116L76.4947 119.931C88.6023 107.874 105.002 101.119 122.088 101.148V101.156Z" fill="#E0E0E0"/>
<path d="M144.681 250.264C144.646 250.271 144.611 250.271 144.577 250.264C144.555 250.251 144.535 250.233 144.52 250.213C144.505 250.192 144.494 250.169 144.488 250.144L138.594 228.153C138.574 228.104 138.574 228.049 138.594 228.001C138.606 227.978 138.624 227.959 138.644 227.944C138.665 227.929 138.689 227.918 138.714 227.912C149.621 224.999 159.568 219.264 167.554 211.285C175.54 203.305 181.283 193.363 184.205 182.458C187.127 171.554 187.125 160.072 184.199 149.169C181.273 138.265 175.527 128.325 167.538 120.348C167.502 120.308 167.483 120.257 167.483 120.204C167.483 120.15 167.502 120.099 167.538 120.059L183.658 103.971C183.677 103.952 183.699 103.936 183.724 103.926C183.749 103.915 183.775 103.91 183.802 103.91C183.829 103.91 183.856 103.915 183.881 103.926C183.906 103.936 183.928 103.952 183.947 103.971C194.733 114.852 202.478 128.37 206.409 143.178C210.341 157.986 210.322 173.566 206.354 188.364C202.386 203.162 194.607 216.662 183.794 227.516C172.981 238.37 159.512 246.2 144.729 250.224L144.681 250.264ZM139.027 228.209L144.825 249.815C159.537 245.831 172.945 238.053 183.707 227.261C194.47 216.468 202.21 203.039 206.154 188.317C210.098 173.594 210.107 158.094 206.18 143.367C202.253 128.639 194.528 115.201 183.778 104.396L167.963 120.204C175.946 128.23 181.682 138.211 184.597 149.149C187.513 160.087 187.505 171.599 184.576 182.534C181.647 193.468 175.898 203.442 167.904 211.457C159.911 219.473 149.953 225.249 139.027 228.209Z" fill="#E0E0E0"/>
<path d="M78.6923 292.401V306.685C90.7458 306.684 102.462 302.706 112.024 295.367C121.586 288.029 128.46 277.74 131.578 266.097C134.696 254.454 133.885 242.107 129.271 230.972C124.656 219.836 116.496 210.535 106.057 204.51L98.9187 216.885C106.633 221.339 112.663 228.214 116.072 236.443C119.482 244.673 120.08 253.798 117.776 262.402C115.471 271.007 110.392 278.611 103.325 284.035C96.2588 289.459 87.6003 292.4 78.6923 292.401Z" fill="#E0E0E0"/>
<path d="M23.9397 251.932C23.9418 266.453 29.7111 280.378 39.9787 290.646C50.2463 300.913 64.1716 306.683 78.6922 306.685V292.401C67.9599 292.399 57.6677 288.135 50.0787 280.546C42.4898 272.957 38.2254 262.665 38.2233 251.932H23.9397Z" fill="#F0F0F0"/>
<path d="M23.9397 251.932H38.2233C38.2216 244.829 40.0902 237.85 43.641 231.697C47.1919 225.545 52.3 220.436 58.4516 216.884C64.6033 213.332 71.5817 211.462 78.6853 211.462C85.7889 211.462 92.7672 213.332 98.9187 216.885L106.056 204.51C80.0476 189.497 46.2995 198.551 31.278 224.56C26.4742 232.883 23.9435 242.323 23.9397 251.932Z" fill="#EBEBEB"/>
<path d="M254.563 285.993H236.927V306.685H254.563V285.993Z" fill="#F5F5F5"/>
<path d="M275.8 292.233H258.164V306.685H275.8V292.233Z" fill="#E0E0E0"/>
<path d="M297.045 297.55H279.409V306.677H297.045V297.55Z" fill="#F0F0F0"/>
<path d="M188.382 292.233H170.746V306.685H188.382V292.233Z" fill="#F5F5F5"/>
<path d="M209.619 295.433H191.983V306.685H209.619V295.433Z" fill="#E0E0E0"/>
<path d="M230.864 282.44H213.228V306.685H230.864V282.44Z" fill="#F0F0F0"/>
<path d="M320.744 284.068H303.108V306.685H320.744V284.068Z" fill="#F5F5F5"/>
<path d="M341.981 292.233H324.345V306.685H341.981V292.233Z" fill="#E0E0E0"/>
<path d="M363.226 287.669H345.59V306.685H363.226V287.669Z" fill="#F0F0F0"/>
<path d="M157.104 58.0327C157.108 56.3919 157.762 54.8196 158.922 53.6594C160.082 52.4992 161.654 51.8455 163.295 51.8412H356.152C357.793 51.8455 359.365 52.4992 360.525 53.6594C361.686 54.8196 362.339 56.3919 362.344 58.0327V77.9624H157.104V58.0327Z" fill="#E0E0E0"/>
<path d="M202.481 64.9059C202.481 65.8325 202.756 66.7384 203.271 67.5088C203.786 68.2792 204.518 68.8795 205.374 69.2338C206.23 69.588 207.173 69.6803 208.081 69.4989C208.99 69.3176 209.825 68.8707 210.479 68.2149C211.134 67.559 211.579 66.7237 211.759 65.8147C211.939 64.9056 211.845 63.9636 211.489 63.1079C211.134 62.2522 210.532 61.5213 209.761 61.0076C208.99 60.4939 208.083 60.2206 207.157 60.2222C205.916 60.2243 204.727 60.7187 203.85 61.5968C202.973 62.475 202.481 63.6651 202.481 64.9059Z" fill="#F5F5F5"/>
<path d="M190.571 69.5895C193.158 69.5895 195.255 67.4926 195.255 64.9059C195.255 62.3191 193.158 60.2222 190.571 60.2222C187.985 60.2222 185.888 62.3191 185.888 64.9059C185.888 67.4926 187.985 69.5895 190.571 69.5895Z" fill="#F5F5F5"/>
<path d="M173.986 69.5895C176.573 69.5895 178.67 67.4926 178.67 64.9059C178.67 62.3191 176.573 60.2222 173.986 60.2222C171.399 60.2222 169.302 62.3191 169.302 64.9059C169.302 67.4926 171.399 69.5895 173.986 69.5895Z" fill="#F5F5F5"/>
<path d="M356.152 212.185H163.295C161.654 212.181 160.082 211.527 158.922 210.367C157.762 209.207 157.108 207.634 157.104 205.994V77.9624H362.344V205.994C362.339 207.634 361.686 209.207 360.525 210.367C359.365 211.527 357.793 212.181 356.152 212.185Z" fill="#F5F5F5"/>
<path d="M143.285 78.7564C143.292 77.1163 143.946 75.5451 145.106 74.3854C146.266 73.2256 147.837 72.5713 149.477 72.5649H342.334C343.974 72.5692 345.547 73.2228 346.707 74.383C347.867 75.5433 348.521 77.1156 348.525 78.7564V98.6861H143.285V78.7564Z" fill="#FAFAFA"/>
<path d="M188.662 85.6295C188.662 86.5559 188.937 87.4614 189.452 88.2317C189.966 89.0019 190.698 89.6022 191.554 89.9567C192.41 90.3112 193.351 90.4039 194.26 90.2232C195.168 90.0425 196.003 89.5964 196.658 88.9414C197.313 88.2864 197.759 87.4518 197.94 86.5433C198.121 85.6347 198.028 84.693 197.673 83.8372C197.319 82.9813 196.718 82.2499 195.948 81.7352C195.178 81.2206 194.272 80.9459 193.346 80.9459C192.104 80.9459 190.913 81.4393 190.034 82.3177C189.156 83.196 188.662 84.3873 188.662 85.6295Z" fill="#E0E0E0"/>
<path d="M172.077 85.6295C172.077 86.5559 172.352 87.4614 172.866 88.2317C173.381 89.0019 174.113 89.6022 174.968 89.9567C175.824 90.3112 176.766 90.4039 177.675 90.2232C178.583 90.0425 179.418 89.5964 180.073 88.9414C180.728 88.2864 181.174 87.4518 181.355 86.5433C181.535 85.6347 181.442 84.693 181.088 83.8372C180.733 82.9813 180.133 82.2499 179.363 81.7352C178.593 81.2206 177.687 80.9459 176.761 80.9459C175.519 80.9459 174.327 81.4393 173.449 82.3177C172.571 83.196 172.077 84.3873 172.077 85.6295Z" fill="#E0E0E0"/>
<path d="M155.492 85.6295C155.492 86.5562 155.767 87.4621 156.282 88.2325C156.797 89.0029 157.529 89.6032 158.385 89.9575C159.241 90.3117 160.183 90.404 161.092 90.2226C162.001 90.0413 162.835 89.5944 163.49 88.9386C164.145 88.2827 164.59 87.4474 164.77 86.5384C164.95 85.6293 164.856 84.6873 164.5 83.8316C164.145 82.9759 163.543 82.245 162.772 81.7313C162 81.2176 161.094 80.9443 160.167 80.9459C158.927 80.948 157.737 81.4424 156.861 82.3205C155.984 83.1986 155.492 84.3887 155.492 85.6295Z" fill="#E0E0E0"/>
<path d="M342.334 232.909H149.477C147.836 232.905 146.264 232.251 145.103 231.091C143.943 229.93 143.29 228.358 143.285 226.717V98.6861H348.525V226.717C348.521 228.358 347.867 229.93 346.707 231.091C345.547 232.251 343.974 232.905 342.334 232.909Z" fill="#E0E0E0"/>
<path d="M200.5 342.903C286.38 342.903 356 338.838 356 333.824C356 328.81 286.38 324.746 200.5 324.746C114.62 324.746 45.0002 328.81 45.0002 333.824C45.0002 338.838 114.62 342.903 200.5 342.903Z" fill="#F5F5F5"/>
<path d="M344.371 64.16H56.6372C54.5957 64.1664 52.6394 64.979 51.1944 66.4211C49.7493 67.8631 48.9326 69.8178 48.922 71.8592V263.906C48.9284 265.95 49.7435 267.908 51.1892 269.352C52.635 270.796 54.5937 271.609 56.6372 271.613H344.371C346.413 271.607 348.37 270.793 349.814 269.349C351.258 267.905 352.072 265.948 352.078 263.906V71.8592C352.067 69.8191 351.252 67.8657 349.808 66.4239C348.365 64.9821 346.411 64.1685 344.371 64.16Z" fill="#2F3F55"/>
<path opacity="0.3" d="M344.371 64.16H56.6372C54.5957 64.1664 52.6394 64.979 51.1944 66.4211C49.7493 67.8631 48.9326 69.8178 48.922 71.8592V263.906C48.9284 265.95 49.7435 267.908 51.1892 269.352C52.635 270.796 54.5937 271.609 56.6372 271.613H344.371C346.413 271.607 348.37 270.793 349.814 269.349C351.258 267.905 352.072 265.948 352.078 263.906V71.8592C352.067 69.8191 351.252 67.8657 349.808 66.4239C348.365 64.9821 346.411 64.1685 344.371 64.16Z" fill="#F5F5F5"/>
<path d="M107.588 79.2296H63.9996C63.3239 79.2566 62.6498 79.1469 62.0176 78.9069C61.3854 78.667 60.8082 78.3019 60.3206 77.8334C59.833 77.3649 59.445 76.8027 59.18 76.1806C58.915 75.5585 58.7784 74.8893 58.7784 74.2131C58.7784 73.5369 58.915 72.8677 59.18 72.2456C59.445 71.6235 59.833 71.0613 60.3206 70.5928C60.8082 70.1243 61.3854 69.7592 62.0176 69.5192C62.6498 69.2793 63.3239 69.1696 63.9996 69.1966H107.588C108.264 69.1696 108.938 69.2793 109.57 69.5192C110.202 69.7592 110.78 70.1243 111.267 70.5928C111.755 71.0613 112.143 71.6235 112.408 72.2456C112.673 72.8677 112.809 73.5369 112.809 74.2131C112.809 74.8893 112.673 75.5585 112.408 76.1806C112.143 76.8027 111.755 77.3649 111.267 77.8334C110.78 78.3019 110.202 78.667 109.57 78.9069C108.938 79.1469 108.264 79.2566 107.588 79.2296ZM63.9996 69.9986C63.4307 69.9738 62.8626 70.0644 62.3296 70.265C61.7967 70.4656 61.3098 70.772 60.8985 71.1658C60.4871 71.5596 60.1598 72.0326 59.9361 72.5563C59.7125 73.0801 59.5972 73.6436 59.5972 74.2131C59.5972 74.7826 59.7125 75.3461 59.9361 75.8698C60.1598 76.3935 60.4871 76.8666 60.8985 77.2604C61.3098 77.6542 61.7967 77.9606 62.3296 78.1612C62.8626 78.3618 63.4307 78.4524 63.9996 78.4276H107.588C108.157 78.4524 108.725 78.3618 109.258 78.1612C109.791 77.9606 110.278 77.6542 110.689 77.2604C111.101 76.8666 111.428 76.3935 111.652 75.8698C111.875 75.3461 111.991 74.7826 111.991 74.2131C111.991 73.6436 111.875 73.0801 111.652 72.5563C111.428 72.0326 111.101 71.5596 110.689 71.1658C110.278 70.772 109.791 70.4656 109.258 70.265C108.725 70.0644 108.157 69.9738 107.588 69.9986H63.9996Z" fill="#FAFAFA"/>
<path d="M128.697 79.2296H123.508C122.212 79.1778 120.987 78.6266 120.088 77.6915C119.19 76.7564 118.688 75.5099 118.688 74.2131C118.688 72.9163 119.19 71.6698 120.088 70.7347C120.987 69.7996 122.212 69.2484 123.508 69.1966H128.721C130.017 69.2484 131.242 69.7996 132.141 70.7347C133.039 71.6698 133.541 72.9163 133.541 74.2131C133.541 75.5099 133.039 76.7564 132.141 77.6915C131.242 78.6266 130.017 79.1778 128.721 79.2296H128.697ZM123.508 69.9986C122.422 70.046 121.396 70.5107 120.645 71.2959C119.893 72.0811 119.473 73.1261 119.473 74.2131C119.473 75.3001 119.893 76.3451 120.645 77.1303C121.396 77.9155 122.422 78.3802 123.508 78.4276H128.721C129.807 78.3802 130.833 77.9155 131.584 77.1303C132.336 76.3451 132.756 75.3001 132.756 74.2131C132.756 73.1261 132.336 72.0811 131.584 71.2959C130.833 70.5107 129.807 70.046 128.721 69.9986H123.508Z" fill="#FAFAFA"/>
<path d="M352.078 84.0897H48.922V256.985H352.078V84.0897Z" fill="#2F3F55"/>
<path opacity="0.8" d="M352.078 84.0897H48.922V256.985H352.078V84.0897Z" fill="#F5F5F5"/>
<path opacity="0.9" d="M105.254 231.128C101.886 231.135 98.5198 230.944 95.1733 230.559C75.9253 228.354 59.0031 219.179 48.7616 205.392C48.7297 205.35 48.716 205.296 48.7235 205.244C48.731 205.191 48.7592 205.143 48.8017 205.112C48.8442 205.08 48.8977 205.066 48.9504 205.073C49.003 205.081 49.0505 205.109 49.0824 205.152C59.2518 218.85 76.0697 227.969 95.2134 230.166C110.524 231.922 126.957 229.621 146.926 222.948C152.829 220.967 158.804 218.713 164.57 216.532C183.073 209.531 202.2 202.289 222.314 203.082C231.938 203.459 241.562 205.697 250.866 207.894C255.453 208.961 260.193 210.06 264.877 210.926C282.593 214.206 296.211 212.859 306.508 206.812C309.396 205.027 312.159 203.047 314.777 200.885C318.426 198.022 322.187 195.054 326.51 193.202C330.652 191.505 335.137 190.813 339.597 191.182C344.058 191.552 348.368 192.972 352.174 195.327C352.197 195.34 352.217 195.358 352.232 195.379C352.248 195.4 352.259 195.424 352.265 195.45C352.271 195.475 352.272 195.502 352.267 195.528C352.263 195.553 352.253 195.578 352.238 195.6C352.225 195.623 352.208 195.642 352.187 195.658C352.165 195.674 352.141 195.685 352.116 195.691C352.09 195.697 352.064 195.697 352.038 195.693C352.012 195.688 351.988 195.678 351.966 195.664C348.211 193.342 343.961 191.942 339.561 191.578C335.162 191.215 330.739 191.897 326.655 193.571C322.388 195.399 318.635 198.383 315.018 201.206C312.384 203.375 309.608 205.365 306.709 207.165C296.323 213.26 282.609 214.615 264.796 211.319C260.105 210.453 255.357 209.346 250.769 208.279C241.482 206.122 231.874 203.884 222.29 203.516C202.288 202.714 183.185 209.932 164.715 216.941C158.932 219.131 152.949 221.392 147.071 223.357C131.327 228.57 117.782 231.128 105.254 231.128Z" fill="#FAFAFA"/>
<g style="mix-blend-mode:multiply">
<path d="M302.105 162.926C287.79 162.926 272.359 159.39 253.937 151.907C248.026 149.501 242.044 146.822 236.293 144.224C217.847 135.915 198.72 127.326 178.718 126.684C169.094 126.379 159.534 127.927 150.247 129.427C145.651 130.165 140.903 130.935 136.212 131.464C118.399 133.493 104.693 131.151 94.3072 124.318C91.4032 122.313 88.6282 120.127 85.9984 117.774C82.3413 114.686 78.596 111.478 74.3213 109.305C70.3849 107.336 66.0356 106.336 61.6348 106.386C57.234 106.436 52.9087 107.536 49.0182 109.593C48.971 109.617 48.9167 109.622 48.8661 109.607C48.8155 109.592 48.7724 109.558 48.7455 109.513C48.7328 109.49 48.7248 109.465 48.722 109.438C48.7191 109.412 48.7215 109.385 48.729 109.36C48.7364 109.335 48.7488 109.311 48.7654 109.291C48.782 109.27 48.8025 109.253 48.8257 109.24C52.7732 107.158 57.1594 106.046 61.6219 105.994C66.0845 105.942 70.4952 106.954 74.4897 108.944C78.8045 111.101 82.5739 114.333 86.215 117.469C88.8309 119.812 91.5926 121.987 94.4836 123.981C104.781 130.766 118.407 133.084 136.123 131.063C140.807 130.534 145.547 129.772 150.134 129.026C159.438 127.526 169.062 125.978 178.678 126.283C198.768 126.933 217.903 135.53 236.422 143.855C242.204 146.453 248.179 149.14 254.066 151.538C274.035 159.646 290.452 163.111 305.779 162.445C324.914 161.643 341.724 153.703 351.894 140.735C351.911 140.716 351.933 140.701 351.957 140.69C351.982 140.68 352.008 140.674 352.034 140.674C352.06 140.674 352.086 140.68 352.11 140.69C352.134 140.701 352.156 140.716 352.174 140.735C352.195 140.751 352.213 140.771 352.226 140.793C352.24 140.816 352.249 140.841 352.252 140.867C352.256 140.893 352.255 140.92 352.248 140.945C352.242 140.971 352.23 140.995 352.214 141.016C341.973 154.072 325.051 162.044 305.795 162.878C304.592 162.902 303.348 162.926 302.105 162.926Z" fill="#2F3F55"/>
</g>
<path opacity="0.7" d="M302.105 162.926C287.79 162.926 272.359 159.39 253.937 151.907C248.026 149.501 242.044 146.822 236.293 144.224C217.847 135.915 198.72 127.326 178.718 126.684C169.094 126.379 159.534 127.927 150.247 129.427C145.651 130.165 140.903 130.935 136.212 131.464C118.399 133.493 104.693 131.151 94.3072 124.318C91.4032 122.313 88.6282 120.127 85.9984 117.774C82.3413 114.686 78.596 111.478 74.3213 109.305C70.3849 107.336 66.0356 106.336 61.6348 106.386C57.234 106.436 52.9087 107.536 49.0182 109.593C48.971 109.617 48.9167 109.622 48.8661 109.607C48.8155 109.592 48.7724 109.558 48.7455 109.513C48.7328 109.49 48.7248 109.465 48.722 109.438C48.7191 109.412 48.7215 109.385 48.729 109.36C48.7364 109.335 48.7488 109.311 48.7654 109.291C48.782 109.27 48.8025 109.253 48.8257 109.24C52.7732 107.158 57.1594 106.046 61.6219 105.994C66.0845 105.942 70.4952 106.954 74.4897 108.944C78.8045 111.101 82.5739 114.333 86.215 117.469C88.8309 119.812 91.5926 121.987 94.4836 123.981C104.781 130.766 118.407 133.084 136.123 131.063C140.807 130.534 145.547 129.772 150.134 129.026C159.438 127.526 169.062 125.978 178.678 126.283C198.768 126.933 217.903 135.53 236.422 143.855C242.204 146.453 248.179 149.14 254.066 151.538C274.035 159.646 290.452 163.111 305.779 162.445C324.914 161.643 341.724 153.703 351.894 140.735C351.911 140.716 351.933 140.701 351.957 140.69C351.982 140.68 352.008 140.674 352.034 140.674C352.06 140.674 352.086 140.68 352.11 140.69C352.134 140.701 352.156 140.716 352.174 140.735C352.195 140.751 352.213 140.771 352.226 140.793C352.24 140.816 352.249 140.841 352.252 140.867C352.256 140.893 352.255 140.92 352.248 140.945C352.242 140.971 352.23 140.995 352.214 141.016C341.973 154.072 325.051 162.044 305.795 162.878C304.592 162.902 303.348 162.926 302.105 162.926Z" fill="#F5F5F5"/>
<path d="M328.395 251.579H72.6051C67.7616 251.573 63.1184 249.646 59.6936 246.221C56.2687 242.797 54.3419 238.153 54.3355 233.31V107.773C54.3419 102.929 56.2687 98.2861 59.6936 94.8613C63.1184 91.4365 67.7616 89.5096 72.6051 89.5032H328.395C333.238 89.5096 337.882 91.4365 341.306 94.8613C344.731 98.2861 346.658 102.929 346.665 107.773V233.31C346.658 238.153 344.731 242.797 341.306 246.221C337.882 249.646 333.238 251.573 328.395 251.579ZM72.6051 89.9042C67.868 89.9106 63.3267 91.7952 59.9771 95.1448C56.6275 98.4945 54.7429 103.036 54.7365 107.773V233.31C54.7429 238.047 56.6275 242.588 59.9771 245.938C63.3267 249.287 67.868 251.172 72.6051 251.178H328.395C333.132 251.172 337.673 249.287 341.023 245.938C344.373 242.588 346.257 238.047 346.264 233.31V107.773C346.257 103.036 344.373 98.4945 341.023 95.1448C337.673 91.7952 333.132 89.9106 328.395 89.9042H72.6051Z" fill="#FAFAFA"/>
<path d="M86.1348 190.483H71.2416V256.993H86.1348V190.483Z" fill="#FAFAFA"/>
<path d="M108.286 176.905H93.3929V256.985H108.286V176.905Z" fill="#FAFAFA"/>
<path d="M130.429 163.576H115.536V256.993H130.429V163.576Z" fill="#FAFAFA"/>
<path d="M152.58 147.231H137.687V256.985H152.58V147.231Z" fill="#FAFAFA"/>
<path d="M174.724 170.537H159.831V256.985H174.724V170.537Z" fill="#FAFAFA"/>
<path d="M196.875 138.145H181.982V256.993H196.875V138.145Z" fill="#2F3F55"/>
<path opacity="0.2" d="M196.875 138.145H181.982V256.993H196.875V138.145Z" fill="white"/>
<path d="M191.598 144.28C190.652 146.883 188.912 149.123 186.624 150.683C184.335 152.243 181.615 153.044 178.846 152.974V133.244H190.7C191.64 134.909 192.208 136.758 192.363 138.663C192.518 140.569 192.257 142.485 191.598 144.28Z" fill="#2F3F55"/>
<path opacity="0.2" d="M191.598 144.28C190.652 146.883 188.912 149.123 186.624 150.683C184.335 152.243 181.615 153.044 178.846 152.974V133.244H190.7C191.64 134.909 192.208 136.758 192.363 138.663C192.518 140.569 192.257 142.485 191.598 144.28Z" fill="white"/>
<path d="M219.018 178.597H204.125V256.985H219.018V178.597Z" fill="#FAFAFA"/>
<path d="M241.169 152.308H226.276V256.993H241.169V152.308Z" fill="#FAFAFA"/>
<path d="M263.313 230.8H248.419V256.985H263.313V230.8Z" fill="#2F3F55"/>
<path opacity="0.3" d="M263.313 230.8H248.419V256.985H263.313V230.8Z" fill="black"/>
<path d="M285.464 145.731H270.571V256.993H285.464V145.731Z" fill="#FAFAFA"/>
<path d="M307.607 114.887H292.714V256.993H307.607V114.887Z" fill="#2F3F55"/>
<path opacity="0.2" d="M307.607 114.887H292.714V256.993H307.607V114.887Z" fill="white"/>
<path d="M329.758 180.731H314.865V256.985H329.758V180.731Z" fill="#FAFAFA"/>
<path opacity="0.3" d="M191.598 144.28C190.652 146.883 188.912 149.123 186.624 150.683C184.335 152.243 181.615 153.044 178.846 152.973C177.416 152.938 176.002 152.667 174.66 152.171C172.202 151.276 170.065 149.672 168.519 147.562C166.974 145.452 166.088 142.931 165.975 140.318C165.862 137.705 166.526 135.117 167.883 132.881C169.241 130.646 171.231 128.863 173.602 127.758C175.973 126.653 178.618 126.277 181.203 126.675C183.788 127.074 186.197 128.23 188.125 129.998C190.053 131.765 191.413 134.065 192.034 136.605C192.655 139.146 192.509 141.814 191.614 144.272L191.598 144.28Z" fill="#FAFAFA"/>
<path opacity="0.4" d="M189.553 131.528L166.215 142.403C166.174 142.203 166.134 142.01 166.102 141.81C165.896 140.525 165.883 139.217 166.062 137.928L186.216 128.536C187.492 129.335 188.621 130.347 189.553 131.528Z" fill="#FAFAFA"/>
<path opacity="0.4" d="M192.4 139.492L170.457 149.709C168.932 148.378 167.735 146.712 166.96 144.841L190.916 133.677C191.85 135.476 192.358 137.466 192.4 139.492Z" fill="#FAFAFA"/>
<path d="M184.388 125.417C181.556 124.391 178.484 124.226 175.559 124.945C172.634 125.664 169.988 127.234 167.955 129.455C165.921 131.677 164.592 134.452 164.135 137.429C163.677 140.406 164.112 143.451 165.385 146.181C166.657 148.911 168.71 151.203 171.285 152.766C173.859 154.33 176.838 155.096 179.848 154.967C182.857 154.838 185.76 153.821 188.191 152.043C190.622 150.265 192.472 147.806 193.507 144.978C194.195 143.095 194.506 141.094 194.42 139.091C194.334 137.088 193.854 135.122 193.007 133.305C192.16 131.487 190.962 129.855 189.483 128.502C188.004 127.148 186.273 126.1 184.388 125.417ZM175.053 151.081C172.818 150.267 170.875 148.81 169.468 146.892C168.062 144.975 167.255 142.684 167.15 140.308C167.045 137.932 167.646 135.579 168.878 133.545C170.11 131.511 171.917 129.887 174.071 128.88C176.225 127.872 178.629 127.526 180.98 127.884C183.331 128.242 185.523 129.289 187.279 130.892C189.035 132.495 190.277 134.583 190.847 136.892C191.417 139.2 191.291 141.626 190.483 143.863C189.944 145.35 189.117 146.716 188.049 147.883C186.982 149.05 185.695 149.995 184.261 150.664C182.828 151.333 181.277 151.712 179.697 151.781C178.117 151.85 176.539 151.606 175.053 151.065V151.081Z" fill="#2F3F55"/>
<path opacity="0.3" d="M184.388 125.417C181.556 124.391 178.484 124.226 175.559 124.945C172.634 125.664 169.988 127.234 167.955 129.455C165.921 131.677 164.592 134.452 164.135 137.429C163.677 140.406 164.112 143.451 165.385 146.181C166.657 148.911 168.71 151.203 171.285 152.766C173.859 154.33 176.838 155.096 179.848 154.967C182.857 154.838 185.76 153.821 188.191 152.043C190.622 150.265 192.472 147.806 193.507 144.978C194.195 143.095 194.506 141.094 194.42 139.091C194.334 137.088 193.854 135.122 193.007 133.305C192.16 131.487 190.962 129.855 189.483 128.502C188.004 127.148 186.273 126.1 184.388 125.417ZM175.053 151.081C172.818 150.267 170.875 148.81 169.468 146.892C168.062 144.975 167.255 142.684 167.15 140.308C167.045 137.932 167.646 135.579 168.878 133.545C170.11 131.511 171.917 129.887 174.071 128.88C176.225 127.872 178.629 127.526 180.98 127.884C183.331 128.242 185.523 129.289 187.279 130.892C189.035 132.495 190.277 134.583 190.847 136.892C191.417 139.2 191.291 141.626 190.483 143.863C189.944 145.35 189.117 146.716 188.049 147.883C186.982 149.05 185.695 149.995 184.261 150.664C182.828 151.333 181.277 151.712 179.697 151.781C178.117 151.85 176.539 151.606 175.053 151.065V151.081Z" fill="black"/>
<path d="M175.999 152.901C175.237 156.582 174.178 160.167 173.08 163.728C172.494 165.501 171.949 167.281 171.315 169.029L170.385 171.668C170.239 172.171 169.979 172.634 169.626 173.02C169.273 173.407 168.836 173.707 168.348 173.898C167.829 174.119 167.244 174.135 166.714 173.941C166.184 173.747 165.747 173.359 165.493 172.855C165.241 172.396 165.099 171.885 165.077 171.362C165.054 170.839 165.153 170.318 165.364 169.84L166.351 167.225C166.992 165.477 167.722 163.76 168.412 162.028C169.856 158.587 171.355 155.171 173.144 151.859C173.315 151.527 173.601 151.269 173.948 151.133C174.296 150.998 174.681 150.993 175.031 151.121C175.381 151.249 175.673 151.501 175.851 151.828C176.029 152.156 176.082 152.538 175.999 152.901Z" fill="#2F3F55"/>
<path opacity="0.3" d="M175.999 152.901C175.237 156.582 174.178 160.167 173.08 163.728C172.494 165.501 171.949 167.281 171.315 169.029L170.385 171.668C170.239 172.171 169.979 172.634 169.626 173.02C169.273 173.407 168.836 173.707 168.348 173.898C167.829 174.119 167.244 174.135 166.714 173.941C166.184 173.747 165.747 173.359 165.493 172.855C165.241 172.396 165.099 171.885 165.077 171.362C165.054 170.839 165.153 170.318 165.364 169.84L166.351 167.225C166.992 165.477 167.722 163.76 168.412 162.028C169.856 158.587 171.355 155.171 173.144 151.859C173.315 151.527 173.601 151.269 173.948 151.133C174.296 150.998 174.681 150.993 175.031 151.121C175.381 151.249 175.673 151.501 175.851 151.828C176.029 152.156 176.082 152.538 175.999 152.901Z" fill="black"/>
<path d="M116.723 149.397C116.579 149.597 116.346 149.95 116.162 150.239L115.56 151.177C115.167 151.811 114.758 152.46 114.437 153.126C113.716 154.426 113.065 155.765 112.489 157.136C111.353 159.796 110.649 162.619 110.403 165.501V166.038V166.15C110.403 166.222 110.548 166.455 110.957 166.688C112.113 167.24 113.361 167.577 114.638 167.682C117.72 167.982 120.822 168.009 123.909 167.762L124.607 171.091C121.301 172.162 117.862 172.764 114.389 172.879C113.454 172.887 112.519 172.836 111.59 172.727C110.534 172.602 109.501 172.333 108.519 171.925C107.23 171.413 106.117 170.542 105.311 169.414C104.874 168.761 104.561 168.032 104.388 167.265C104.255 166.64 104.194 166.003 104.204 165.364C104.194 161.701 104.874 158.069 106.209 154.658C106.824 152.992 107.553 151.371 108.39 149.806C108.807 149.004 109.256 148.266 109.722 147.512C109.954 147.135 110.195 146.758 110.451 146.389C110.708 146.02 110.941 145.675 111.253 145.226L116.723 149.397Z" fill="#E4897B"/>
<path d="M114.325 138.241C111.55 138.914 104.99 149.854 104.99 149.854L119.69 155.941C119.69 155.941 122.345 147.616 120.677 144.288C118.945 140.823 118.07 137.318 114.325 138.241Z" fill="#2F3F55"/>
<path opacity="0.2" d="M114.325 138.241C111.55 138.914 104.99 149.854 104.99 149.854L119.69 155.941C119.69 155.941 122.345 147.616 120.677 144.288C118.945 140.823 118.07 137.318 114.325 138.241Z" fill="black"/>
<path d="M124.527 167.417L131.263 166.704L127.518 172.366C127.518 172.366 123.219 171.973 122.121 169.398L124.527 167.417Z" fill="#E4897B"/>
<path d="M136.067 169.703L130.894 175.325L127.478 172.366L131.263 166.704L136.067 169.703Z" fill="#E4897B"/>
<path d="M115.664 330.6C115.064 330.585 114.467 330.505 113.884 330.36C113.855 330.352 113.828 330.336 113.808 330.313C113.788 330.29 113.776 330.262 113.772 330.232C113.766 330.201 113.769 330.17 113.78 330.142C113.792 330.114 113.811 330.089 113.836 330.071C114.068 329.919 116.09 328.603 116.884 328.956C116.972 328.997 117.048 329.059 117.104 329.138C117.16 329.217 117.195 329.309 117.204 329.405C117.235 329.558 117.227 329.716 117.18 329.864C117.134 330.013 117.051 330.147 116.94 330.256C116.568 330.517 116.117 330.639 115.664 330.6ZM114.341 330.135C115.512 330.368 116.386 330.328 116.747 330.015C116.821 329.944 116.875 329.855 116.904 329.756C116.932 329.657 116.933 329.553 116.908 329.454C116.908 329.409 116.895 329.366 116.871 329.329C116.847 329.292 116.812 329.262 116.771 329.245C116.338 329.069 115.167 329.622 114.341 330.135Z" fill="#2F3F55"/>
<path d="M113.924 330.368C113.882 330.366 113.843 330.348 113.813 330.319C113.783 330.289 113.766 330.249 113.764 330.207C113.764 330.127 113.764 328.194 114.486 327.545C114.574 327.46 114.68 327.396 114.797 327.358C114.914 327.321 115.038 327.31 115.159 327.328C115.287 327.33 115.41 327.375 115.508 327.457C115.606 327.539 115.673 327.652 115.697 327.777C115.849 328.531 114.638 329.983 114.004 330.344C113.98 330.359 113.953 330.367 113.924 330.368ZM115.047 327.641C114.917 327.642 114.793 327.694 114.702 327.785C114.284 328.408 114.071 329.145 114.093 329.895C114.726 329.389 115.48 328.291 115.384 327.842C115.384 327.761 115.328 327.673 115.119 327.649L115.047 327.641Z" fill="#2F3F55"/>
<path d="M146.221 330.6C145.509 330.585 144.8 330.504 144.103 330.36C144.072 330.355 144.043 330.339 144.021 330.316C144 330.293 143.986 330.263 143.983 330.231C143.976 330.198 143.98 330.164 143.994 330.134C144.009 330.103 144.033 330.078 144.063 330.063C144.368 329.911 147.031 328.539 147.857 328.988C147.935 329.03 148.001 329.091 148.049 329.165C148.097 329.24 148.124 329.325 148.129 329.413C148.154 329.56 148.141 329.71 148.092 329.85C148.043 329.991 147.959 330.116 147.849 330.215C147.365 330.524 146.791 330.659 146.221 330.6ZM144.617 330.135C146.108 330.384 147.215 330.32 147.624 329.951C147.691 329.886 147.742 329.807 147.773 329.719C147.803 329.631 147.813 329.538 147.801 329.446C147.8 329.409 147.789 329.373 147.769 329.341C147.749 329.31 147.721 329.285 147.688 329.269C147.255 329.028 145.731 329.622 144.633 330.135H144.617Z" fill="#2F3F55"/>
<path d="M144.135 330.368C144.107 330.379 144.076 330.379 144.047 330.368C144.024 330.352 144.005 330.33 143.993 330.305C143.98 330.28 143.974 330.252 143.975 330.223C143.975 330.151 144.127 328.339 144.969 327.641C145.089 327.536 145.229 327.457 145.381 327.408C145.533 327.36 145.693 327.344 145.852 327.36C146.293 327.408 146.421 327.633 146.445 327.817C146.574 328.619 145.018 330.015 144.2 330.384L144.135 330.368ZM145.739 327.641C145.536 327.642 145.34 327.716 145.186 327.85C144.715 328.445 144.436 329.169 144.384 329.927C145.186 329.429 146.269 328.323 146.189 327.833C146.189 327.833 146.189 327.673 145.876 327.649L145.739 327.641Z" fill="#2F3F55"/>
<path d="M126.042 121.992C126.844 126.002 128.673 134.022 125.898 136.709C125.898 136.709 127.013 140.719 134.423 140.719C142.564 140.719 138.289 136.709 138.289 136.709C133.838 135.65 133.926 132.354 134.688 129.258L126.042 121.992Z" fill="#E4897B"/>
<path d="M142.852 114.895C142.765 114.894 142.682 114.859 142.62 114.798C142.561 114.738 142.528 114.658 142.528 114.574C142.528 114.49 142.561 114.409 142.62 114.349C142.981 113.999 143.42 113.739 143.901 113.59C144.381 113.441 144.89 113.407 145.387 113.491C145.427 113.5 145.466 113.518 145.5 113.542C145.534 113.567 145.563 113.598 145.584 113.634C145.606 113.67 145.62 113.71 145.626 113.752C145.632 113.793 145.63 113.835 145.619 113.876C145.611 113.917 145.594 113.955 145.57 113.99C145.547 114.024 145.516 114.053 145.481 114.076C145.446 114.098 145.407 114.113 145.366 114.12C145.325 114.127 145.283 114.126 145.242 114.117C144.849 114.047 144.444 114.074 144.063 114.194C143.682 114.314 143.335 114.524 143.053 114.806C143.027 114.834 142.996 114.856 142.961 114.871C142.927 114.886 142.89 114.894 142.852 114.895Z" fill="#263238"/>
<path d="M143.831 118.993C144.022 120.31 144.394 121.595 144.937 122.81C144.623 122.94 144.284 122.998 143.944 122.982C143.605 122.965 143.273 122.874 142.973 122.714L143.831 118.993Z" fill="#DE5753"/>
<path d="M143.558 117.974C143.438 118.503 143.622 119.001 143.967 119.081C144.312 119.161 144.689 118.8 144.769 118.279C144.849 117.758 144.713 117.26 144.368 117.172C144.023 117.084 143.686 117.445 143.558 117.974Z" fill="#263238"/>
<path d="M144.256 117.156L145.603 117.092C145.603 117.092 144.729 117.934 144.256 117.156Z" fill="#263238"/>
<path d="M136.749 330.207H143.47L143.815 314.649H137.094L136.749 330.207Z" fill="#E4897B"/>
<path d="M106.225 330.207H112.946L115.007 314.649H108.286L106.225 330.207Z" fill="#E4897B"/>
<path d="M113.355 329.43H105.808C105.679 329.427 105.553 329.472 105.455 329.556C105.357 329.641 105.294 329.758 105.279 329.887L104.477 335.862C104.463 336.013 104.482 336.166 104.53 336.31C104.579 336.454 104.657 336.586 104.76 336.699C104.862 336.811 104.987 336.901 105.126 336.962C105.265 337.024 105.415 337.056 105.567 337.057C108.198 337.008 109.465 336.856 112.785 336.856C114.822 336.856 117.806 337.065 120.629 337.065C123.452 337.065 123.58 334.274 122.401 334.025C117.132 332.894 116.29 331.33 114.51 329.839C114.184 329.571 113.776 329.426 113.355 329.43Z" fill="#263238"/>
<path d="M143.694 329.43H136.148C136.018 329.428 135.892 329.474 135.793 329.558C135.695 329.642 135.63 329.758 135.61 329.887L134.808 335.862C134.792 336.013 134.809 336.166 134.856 336.31C134.903 336.455 134.981 336.588 135.083 336.701C135.185 336.814 135.31 336.904 135.449 336.965C135.588 337.026 135.739 337.057 135.891 337.057C138.521 337.008 139.789 336.856 143.109 336.856C145.154 336.856 149.381 337.065 152.196 337.065C155.011 337.065 155.147 334.274 153.976 334.025C148.699 332.894 146.622 331.33 144.833 329.839C144.513 329.573 144.11 329.428 143.694 329.43Z" fill="#263238"/>
<path d="M143.815 314.657L143.638 322.669H136.917L137.094 314.657H143.815Z" fill="#CE6F64"/>
<path d="M108.286 314.657H115.007L113.94 322.669H107.219L108.286 314.657Z" fill="#CE6F64"/>
<path d="M149.653 138.433C149.653 138.433 152.861 139.564 146.71 178.974H119.442C119.827 167.875 119.795 161.026 114.341 138.241C118.157 137.452 122.024 136.94 125.914 136.709C130.039 136.42 134.18 136.42 138.305 136.709C143.614 137.198 149.653 138.433 149.653 138.433Z" fill="#2F3F55"/>
<path opacity="0.2" d="M149.653 138.433C149.653 138.433 152.861 139.564 146.71 178.974H119.442C119.827 167.875 119.795 161.026 114.341 138.241C118.157 137.452 122.024 136.94 125.914 136.709C130.039 136.42 134.18 136.42 138.305 136.709C143.614 137.198 149.653 138.433 149.653 138.433Z" fill="black"/>
<path d="M151.859 145.908C152.444 149.348 153.206 152.949 154.064 156.382C154.505 158.106 155.003 159.807 155.556 161.459C156.073 163.075 156.703 164.654 157.441 166.182C157.775 166.887 158.159 167.568 158.587 168.219C158.788 168.532 158.996 168.797 159.205 169.07C159.328 169.231 159.465 169.381 159.614 169.519C159.807 169.709 160.065 169.821 160.336 169.831C160.871 169.823 161.397 169.695 161.876 169.455C163.296 168.744 164.604 167.828 165.757 166.736C166.383 166.158 167.017 165.549 167.634 164.923C168.252 164.298 168.861 163.608 169.414 162.99L172.286 164.811C171.847 165.701 171.36 166.566 170.826 167.401C170.308 168.235 169.743 169.038 169.134 169.807C167.862 171.526 166.302 173.01 164.522 174.194C163.415 174.925 162.156 175.397 160.841 175.574C159.248 175.77 157.635 175.416 156.27 174.571C155.658 174.18 155.095 173.717 154.594 173.192C154.202 172.77 153.833 172.328 153.487 171.869C152.844 171.028 152.26 170.143 151.738 169.222C149.903 165.719 148.469 162.02 147.464 158.194C146.95 156.342 146.469 154.489 146.084 152.58C145.699 150.672 145.338 148.867 145.058 146.894L151.859 145.908Z" fill="#E4897B"/>
<path d="M149.653 138.433C152.428 139.139 154.465 150.535 154.465 150.535L143.831 157.793C143.831 157.793 139.476 144.224 141.585 141.184C143.759 138.008 145.611 137.407 149.653 138.433Z" fill="#2F3F55"/>
<path opacity="0.2" d="M149.653 138.433C152.428 139.139 154.465 150.535 154.465 150.535L143.831 157.793C143.831 157.793 139.476 144.224 141.585 141.184C143.759 138.008 145.611 137.407 149.653 138.433Z" fill="black"/>
<path d="M171.909 165.332L175.55 160.135L169.222 159.999C169.222 159.999 167.73 163.006 168.741 165.613L171.909 165.332Z" fill="#E4897B"/>
<path d="M176.119 157.425L175.927 156.919C175.884 156.81 175.817 156.712 175.73 156.633C175.642 156.555 175.538 156.498 175.425 156.468C175.311 156.437 175.192 156.434 175.078 156.458C174.963 156.482 174.855 156.533 174.764 156.607L172.975 158.034C172.716 158.244 172.397 158.368 172.063 158.388C171.729 158.408 171.398 158.324 171.115 158.146L170.561 157.521C170.507 157.455 170.439 157.402 170.362 157.366C170.285 157.33 170.201 157.311 170.116 157.311C170.031 157.311 169.947 157.33 169.87 157.366C169.793 157.402 169.725 157.455 169.671 157.521L169.535 157.681C169.245 158.034 169.061 158.463 169.005 158.916L168.693 161.531L170.024 160.48L175.558 160.119L176.071 159.013C176.186 158.765 176.249 158.496 176.257 158.223C176.265 157.951 176.218 157.679 176.119 157.425Z" fill="#E4897B"/>
<path d="M126.259 111.959C125.16 118.544 124.559 121.302 127.061 125.409C130.83 131.576 139.139 131.536 142.171 125.409C144.905 119.915 146.237 110.074 140.494 105.992C139.239 105.084 137.77 104.513 136.23 104.335C134.69 104.158 133.131 104.379 131.701 104.979C130.272 105.578 129.02 106.535 128.067 107.757C127.114 108.98 126.491 110.427 126.259 111.959Z" fill="#E4897B"/>
<path d="M143.847 148.971C150.263 156.847 138.233 166.704 123.243 163.576C101.782 159.085 120.035 149.773 112.906 143.021C105.776 136.268 112.039 132.065 116.378 127.053C120.717 122.04 121.046 121.888 120.725 112.28C120.404 102.672 131.207 100.25 139.299 102.993C145.186 104.998 142.507 114.125 139.083 118.816C135.658 123.508 145.018 126.379 144.4 132.795C143.783 139.211 137.824 141.617 143.847 148.971Z" fill="#263238"/>
<path d="M134.102 101.982C140.984 101.252 145.579 102.135 146.132 107.845C146.686 113.555 138.225 116.891 138.225 116.891L134.102 101.982Z" fill="#263238"/>
<path d="M136.998 117.702C136.847 118.987 137.207 120.28 138 121.302C139.067 122.642 140.591 121.936 141.128 120.412C141.617 119.041 141.641 116.683 140.174 115.889C139.851 115.723 139.491 115.64 139.128 115.648C138.765 115.656 138.41 115.754 138.094 115.934C137.779 116.114 137.513 116.37 137.322 116.679C137.13 116.987 137.019 117.339 136.998 117.702Z" fill="#E4897B"/>
<path d="M139.5 178.982C139.5 178.982 137.992 192.825 135.987 209.579C134.704 220.269 133.22 232.147 131.793 242.372C131.44 244.963 131.079 247.441 130.734 249.775C127.606 270.763 115.552 321.153 115.552 321.153H106.393C106.393 321.153 111.51 272.479 113.034 251.716C116.891 199.193 110.764 191.189 119.45 179.014L139.5 178.982Z" fill="#C1D4FF"/>
<path d="M117.06 321.273H104.886L105.094 316.942L118.062 316.614L117.06 321.273Z" fill="#2F3F55"/>
<path opacity="0.8" d="M117.06 321.273H104.886L105.094 316.942L118.062 316.614L117.06 321.273Z" fill="white"/>
<path opacity="0.4" d="M135.987 209.579C134.704 220.269 133.22 232.147 131.793 242.372C129.659 231.513 124.847 204.678 132.41 199.963C134.231 202.369 135.362 205.729 135.987 209.579Z" fill="black"/>
<path d="M146.71 178.974C146.71 178.974 151.049 229.436 150.72 249.919C150.399 271.228 145.026 321.121 145.026 321.121H135.971C135.971 321.121 134.977 272.471 134.038 251.547C133.012 228.73 126.732 178.974 126.732 178.974H146.71Z" fill="#C1D4FF"/>
<path d="M146.421 321.273H134.471L134.255 316.942L147.424 316.614L146.421 321.273Z" fill="#2F3F55"/>
<path opacity="0.8" d="M146.421 321.273H134.471L134.255 316.942L147.424 316.614L146.421 321.273Z" fill="white"/>
<path d="M119.009 177.378L117.79 179.784C117.702 179.977 117.926 180.169 118.239 180.169H146.854C147.095 180.169 147.303 180.049 147.311 179.897L147.544 177.491C147.544 177.322 147.343 177.178 147.079 177.178H119.45C119.365 177.17 119.28 177.184 119.203 177.22C119.125 177.255 119.059 177.309 119.009 177.378Z" fill="#2F3F55"/>
<path opacity="0.5" d="M119.009 177.378L117.79 179.784C117.702 179.977 117.926 180.169 118.239 180.169H146.854C147.095 180.169 147.303 180.049 147.311 179.897L147.544 177.491C147.544 177.322 147.343 177.178 147.079 177.178H119.45C119.365 177.17 119.28 177.184 119.203 177.22C119.125 177.255 119.059 177.309 119.009 177.378Z" fill="white"/>
<path d="M122.706 180.45H121.968C121.816 180.45 121.704 180.378 121.712 180.282L122.04 177.074C122.04 176.985 122.177 176.905 122.329 176.905H123.067C123.211 176.905 123.324 176.985 123.316 177.074L122.987 180.282C123.011 180.394 122.882 180.45 122.706 180.45Z" fill="#263238"/>
<path d="M140.671 180.45H139.933C139.789 180.45 139.676 180.378 139.684 180.282L140.005 177.074C140.005 176.985 140.15 176.905 140.294 176.905H141.032C141.184 176.905 141.296 176.985 141.288 177.074L140.96 180.282C140.952 180.394 140.823 180.45 140.671 180.45Z" fill="#263238"/>
<rect x="24" y="353" width="6" height="6" rx="3" fill="url(#paint0_linear_1_1556)"/>
<rect x="33" y="353" width="6" height="6" rx="3" fill="url(#paint1_linear_1_1556)"/>
<rect x="42" y="353" width="23" height="6" rx="3" fill="#2F3F55"/>
<defs>
<linearGradient id="paint0_linear_1_1556" x1="27" y1="353" x2="27" y2="359" gradientUnits="userSpaceOnUse">
<stop stop-color="#2F80ED" stop-opacity="0.33"/>
<stop offset="1" stop-color="#2461B3" stop-opacity="0.33"/>
</linearGradient>
<linearGradient id="paint1_linear_1_1556" x1="36" y1="353" x2="36" y2="359" gradientUnits="userSpaceOnUse">
<stop stop-color="#2F80ED" stop-opacity="0.33"/>
<stop offset="1" stop-color="#2461B3" stop-opacity="0.33"/>
</linearGradient>
</defs>
</svg>
