<svg width="369" height="54" viewBox="0 0 369 54" fill="none" xmlns="http://www.w3.org/2000/svg">
<rect width="369" height="54" rx="9" fill="#F2F2F2"/>
<g clip-path="url(#clip0_1_2172)">
<path d="M43.7855 31H42.9955L42.7155 30.73C43.9155 29.33 44.5355 27.42 44.1955 25.39C43.7255 22.61 41.4055 20.39 38.6055 20.05C34.3755 19.53 30.8155 23.09 31.3355 27.32C31.6755 30.12 33.8955 32.44 36.6755 32.91C38.7055 33.25 40.6155 32.63 42.0155 31.43L42.2855 31.71V32.5L46.5355 36.75C46.9455 37.16 47.6155 37.16 48.0255 36.75C48.4355 36.34 48.4355 35.67 48.0255 35.26L43.7855 31ZM37.7855 31C35.2955 31 33.2855 28.99 33.2855 26.5C33.2855 24.01 35.2955 22 37.7855 22C40.2755 22 42.2855 24.01 42.2855 26.5C42.2855 28.99 40.2755 31 37.7855 31Z" fill="#A1A1A1"/>
</g>
<path d="M75.4556 32.15C74.6556 32.15 73.9656 32 73.3856 31.7C72.8056 31.39 72.2956 30.96 71.8556 30.41L72.6206 29.66C72.9706 30.15 73.3756 30.515 73.8356 30.755C74.3056 30.995 74.8606 31.115 75.5006 31.115C76.1606 31.115 76.6956 30.965 77.1056 30.665C77.5156 30.365 77.7206 29.95 77.7206 29.42C77.7206 29.01 77.6256 28.675 77.4356 28.415C77.2456 28.145 76.9956 27.93 76.6856 27.77C76.3856 27.6 76.0506 27.45 75.6806 27.32C75.3106 27.19 74.9406 27.055 74.5706 26.915C74.2106 26.765 73.8756 26.58 73.5656 26.36C73.2556 26.14 73.0056 25.86 72.8156 25.52C72.6356 25.18 72.5456 24.745 72.5456 24.215C72.5456 23.655 72.6806 23.175 72.9506 22.775C73.2206 22.375 73.5906 22.07 74.0606 21.86C74.5306 21.64 75.0656 21.53 75.6656 21.53C76.3356 21.53 76.9306 21.66 77.4506 21.92C77.9806 22.18 78.4206 22.53 78.7706 22.97L78.0206 23.72C77.7006 23.34 77.3506 23.05 76.9706 22.85C76.5906 22.65 76.1456 22.55 75.6356 22.55C75.0356 22.55 74.5556 22.69 74.1956 22.97C73.8356 23.25 73.6556 23.64 73.6556 24.14C73.6556 24.53 73.7456 24.845 73.9256 25.085C74.1156 25.325 74.3656 25.525 74.6756 25.685C74.9856 25.845 75.3206 25.99 75.6806 26.12C76.0506 26.24 76.4206 26.375 76.7906 26.525C77.1606 26.675 77.4956 26.865 77.7956 27.095C78.1056 27.325 78.3556 27.62 78.5456 27.98C78.7356 28.33 78.8306 28.78 78.8306 29.33C78.8306 30.22 78.5256 30.915 77.9156 31.415C77.3156 31.905 76.4956 32.15 75.4556 32.15ZM83.7795 32.15C83.0695 32.15 82.4345 31.99 81.8745 31.67C81.3145 31.35 80.8695 30.91 80.5395 30.35C80.2195 29.79 80.0595 29.16 80.0595 28.46C80.0595 27.77 80.2195 27.15 80.5395 26.6C80.8595 26.04 81.2945 25.6 81.8445 25.28C82.3945 24.96 83.0095 24.8 83.6895 24.8C84.3295 24.8 84.8945 24.945 85.3845 25.235C85.8845 25.525 86.2745 25.93 86.5545 26.45C86.8445 26.96 86.9895 27.55 86.9895 28.22C86.9895 28.3 86.9845 28.395 86.9745 28.505C86.9645 28.605 86.9445 28.725 86.9145 28.865H80.8095V27.965H86.3445L85.9695 28.295C85.9795 27.775 85.8895 27.33 85.6995 26.96C85.5195 26.58 85.2545 26.29 84.9045 26.09C84.5645 25.88 84.1495 25.775 83.6595 25.775C83.1495 25.775 82.7045 25.885 82.3245 26.105C81.9445 26.325 81.6445 26.635 81.4245 27.035C81.2145 27.425 81.1095 27.89 81.1095 28.43C81.1095 28.97 81.2195 29.445 81.4395 29.855C81.6695 30.265 81.9845 30.585 82.3845 30.815C82.7945 31.045 83.2645 31.16 83.7945 31.16C84.2245 31.16 84.6195 31.085 84.9795 30.935C85.3395 30.775 85.6445 30.54 85.8945 30.23L86.5695 30.92C86.2395 31.31 85.8295 31.615 85.3395 31.835C84.8595 32.045 84.3395 32.15 83.7795 32.15ZM91.6558 32.15C90.9858 32.15 90.3858 31.99 89.8558 31.67C89.3258 31.34 88.9058 30.9 88.5958 30.35C88.2958 29.8 88.1458 29.18 88.1458 28.49C88.1458 27.79 88.2958 27.165 88.5958 26.615C88.9058 26.055 89.3258 25.615 89.8558 25.295C90.3858 24.965 90.9808 24.8 91.6408 24.8C92.1808 24.8 92.6608 24.91 93.0808 25.13C93.5108 25.34 93.8558 25.64 94.1158 26.03C94.3858 26.41 94.5508 26.855 94.6108 27.365V29.57C94.5508 30.08 94.3858 30.53 94.1158 30.92C93.8558 31.31 93.5108 31.615 93.0808 31.835C92.6608 32.045 92.1858 32.15 91.6558 32.15ZM91.8208 31.145C92.5508 31.145 93.1358 30.9 93.5758 30.41C94.0258 29.92 94.2508 29.275 94.2508 28.475C94.2508 27.945 94.1458 27.48 93.9358 27.08C93.7358 26.67 93.4508 26.355 93.0808 26.135C92.7208 25.905 92.2958 25.79 91.8058 25.79C91.3058 25.79 90.8608 25.905 90.4708 26.135C90.0908 26.365 89.7858 26.685 89.5558 27.095C89.3358 27.495 89.2258 27.955 89.2258 28.475C89.2258 28.995 89.3358 29.455 89.5558 29.855C89.7858 30.255 90.0958 30.57 90.4858 30.8C90.8758 31.03 91.3208 31.145 91.8208 31.145ZM94.1908 32V30.11L94.4008 28.37L94.1908 26.675V24.95H95.2408V32H94.1908ZM97.3702 32V24.95H98.4202V32H97.3702ZM98.4202 27.89L97.9852 27.695C97.9852 26.805 98.2002 26.1 98.6302 25.58C99.0702 25.06 99.6702 24.8 100.43 24.8C100.78 24.8 101.1 24.865 101.39 24.995C101.68 25.115 101.95 25.31 102.2 25.58L101.51 26.315C101.34 26.125 101.15 25.99 100.94 25.91C100.74 25.83 100.51 25.79 100.25 25.79C99.7102 25.79 99.2702 25.97 98.9302 26.33C98.5902 26.68 98.4202 27.2 98.4202 27.89ZM106.278 32.15C105.588 32.15 104.963 31.99 104.403 31.67C103.853 31.34 103.413 30.895 103.083 30.335C102.763 29.775 102.603 29.15 102.603 28.46C102.603 27.77 102.763 27.15 103.083 26.6C103.413 26.04 103.853 25.6 104.403 25.28C104.963 24.96 105.588 24.8 106.278 24.8C106.808 24.8 107.303 24.9 107.763 25.1C108.223 25.3 108.613 25.58 108.933 25.94L108.243 26.645C108.003 26.375 107.713 26.17 107.373 26.03C107.033 25.88 106.668 25.805 106.278 25.805C105.778 25.805 105.333 25.92 104.943 26.15C104.553 26.38 104.248 26.695 104.028 27.095C103.808 27.485 103.698 27.94 103.698 28.46C103.698 28.97 103.808 29.43 104.028 29.84C104.248 30.24 104.553 30.555 104.943 30.785C105.333 31.015 105.778 31.13 106.278 31.13C106.678 31.13 107.048 31.06 107.388 30.92C107.728 30.77 108.018 30.56 108.258 30.29L108.963 30.995C108.633 31.365 108.233 31.65 107.763 31.85C107.303 32.05 106.808 32.15 106.278 32.15ZM115.567 32V27.86C115.567 27.24 115.382 26.74 115.012 26.36C114.652 25.97 114.172 25.775 113.572 25.775C113.162 25.775 112.802 25.865 112.492 26.045C112.182 26.225 111.937 26.47 111.757 26.78C111.577 27.09 111.487 27.445 111.487 27.845L111.007 27.575C111.007 27.045 111.132 26.57 111.382 26.15C111.632 25.73 111.967 25.4 112.387 25.16C112.817 24.92 113.307 24.8 113.857 24.8C114.397 24.8 114.877 24.925 115.297 25.175C115.717 25.415 116.042 25.75 116.272 26.18C116.512 26.61 116.632 27.11 116.632 27.68V32H115.567ZM110.437 32V21.38H111.487V32H110.437ZM125.463 32.15C124.923 32.15 124.438 32.04 124.008 31.82C123.578 31.6 123.223 31.3 122.943 30.92C122.673 30.53 122.508 30.08 122.448 29.57V27.365C122.508 26.845 122.678 26.395 122.958 26.015C123.238 25.625 123.593 25.325 124.023 25.115C124.463 24.905 124.943 24.8 125.463 24.8C126.113 24.8 126.698 24.965 127.218 25.295C127.738 25.615 128.148 26.055 128.448 26.615C128.758 27.165 128.913 27.79 128.913 28.49C128.913 29.18 128.763 29.8 128.463 30.35C128.163 30.9 127.748 31.34 127.218 31.67C126.698 31.99 126.113 32.15 125.463 32.15ZM125.283 31.145C125.783 31.145 126.223 31.035 126.603 30.815C126.983 30.585 127.278 30.27 127.488 29.87C127.708 29.46 127.818 28.995 127.818 28.475C127.818 27.945 127.708 27.48 127.488 27.08C127.278 26.68 126.983 26.365 126.603 26.135C126.223 25.905 125.788 25.79 125.298 25.79C124.808 25.79 124.373 25.905 123.993 26.135C123.623 26.365 123.333 26.68 123.123 27.08C122.913 27.48 122.808 27.945 122.808 28.475C122.808 28.995 122.913 29.46 123.123 29.87C123.333 30.27 123.623 30.585 123.993 30.815C124.363 31.035 124.793 31.145 125.283 31.145ZM121.818 32V21.38H122.868V26.675L122.658 28.37L122.868 30.11V32H121.818ZM132.64 32.03L129.55 24.95H130.705L133.195 30.86H132.76L135.385 24.95H136.555L133.24 32.03H132.64ZM130.72 34.97L132.655 30.965L133.24 32.03L131.875 34.97H130.72ZM142.249 32V21.98H143.299V32H142.249ZM140.464 25.895V24.95H145.069V25.895H140.464ZM151.646 32V27.86C151.646 27.24 151.461 26.74 151.091 26.36C150.731 25.97 150.251 25.775 149.651 25.775C149.241 25.775 148.881 25.865 148.571 26.045C148.261 26.225 148.016 26.47 147.836 26.78C147.656 27.09 147.566 27.445 147.566 27.845L147.086 27.575C147.086 27.045 147.211 26.57 147.461 26.15C147.711 25.73 148.046 25.4 148.466 25.16C148.896 24.92 149.386 24.8 149.936 24.8C150.476 24.8 150.956 24.925 151.376 25.175C151.796 25.415 152.121 25.75 152.351 26.18C152.591 26.61 152.711 27.11 152.711 27.68V32H151.646ZM146.516 32V21.38H147.566V32H146.516ZM157.93 32.15C157.22 32.15 156.585 31.99 156.025 31.67C155.465 31.35 155.02 30.91 154.69 30.35C154.37 29.79 154.21 29.16 154.21 28.46C154.21 27.77 154.37 27.15 154.69 26.6C155.01 26.04 155.445 25.6 155.995 25.28C156.545 24.96 157.16 24.8 157.84 24.8C158.48 24.8 159.045 24.945 159.535 25.235C160.035 25.525 160.425 25.93 160.705 26.45C160.995 26.96 161.14 27.55 161.14 28.22C161.14 28.3 161.135 28.395 161.125 28.505C161.115 28.605 161.095 28.725 161.065 28.865H154.96V27.965H160.495L160.12 28.295C160.13 27.775 160.04 27.33 159.85 26.96C159.67 26.58 159.405 26.29 159.055 26.09C158.715 25.88 158.3 25.775 157.81 25.775C157.3 25.775 156.855 25.885 156.475 26.105C156.095 26.325 155.795 26.635 155.575 27.035C155.365 27.425 155.26 27.89 155.26 28.43C155.26 28.97 155.37 29.445 155.59 29.855C155.82 30.265 156.135 30.585 156.535 30.815C156.945 31.045 157.415 31.16 157.945 31.16C158.375 31.16 158.77 31.085 159.13 30.935C159.49 30.775 159.795 30.54 160.045 30.23L160.72 30.92C160.39 31.31 159.98 31.615 159.49 31.835C159.01 32.045 158.49 32.15 157.93 32.15ZM170.514 32L166.914 28.385L170.454 24.95H171.759L167.904 28.655L167.934 28.055L171.909 32H170.514ZM165.969 32V21.38H167.019V32H165.969ZM176.035 32.15C175.325 32.15 174.69 31.99 174.13 31.67C173.57 31.35 173.125 30.91 172.795 30.35C172.475 29.79 172.315 29.16 172.315 28.46C172.315 27.77 172.475 27.15 172.795 26.6C173.115 26.04 173.55 25.6 174.1 25.28C174.65 24.96 175.265 24.8 175.945 24.8C176.585 24.8 177.15 24.945 177.64 25.235C178.14 25.525 178.53 25.93 178.81 26.45C179.1 26.96 179.245 27.55 179.245 28.22C179.245 28.3 179.24 28.395 179.23 28.505C179.22 28.605 179.2 28.725 179.17 28.865H173.065V27.965H178.6L178.225 28.295C178.235 27.775 178.145 27.33 177.955 26.96C177.775 26.58 177.51 26.29 177.16 26.09C176.82 25.88 176.405 25.775 175.915 25.775C175.405 25.775 174.96 25.885 174.58 26.105C174.2 26.325 173.9 26.635 173.68 27.035C173.47 27.425 173.365 27.89 173.365 28.43C173.365 28.97 173.475 29.445 173.695 29.855C173.925 30.265 174.24 30.585 174.64 30.815C175.05 31.045 175.52 31.16 176.05 31.16C176.48 31.16 176.875 31.085 177.235 30.935C177.595 30.775 177.9 30.54 178.15 30.23L178.825 30.92C178.495 31.31 178.085 31.615 177.595 31.835C177.115 32.045 176.595 32.15 176.035 32.15ZM183.089 32.03L179.999 24.95H181.154L183.644 30.86H183.209L185.834 24.95H187.004L183.689 32.03H183.089ZM181.169 34.97L183.104 30.965L183.689 32.03L182.324 34.97H181.169ZM189.921 32L187.206 24.95H188.301L190.446 30.8L190.056 30.815L192.186 24.95H192.801L194.931 30.815L194.541 30.8L196.671 24.95H197.781L195.051 32H194.436L192.261 26.225H192.711L190.551 32H189.921ZM202.108 32.15C201.428 32.15 200.808 31.985 200.248 31.655C199.698 31.325 199.258 30.88 198.928 30.32C198.608 29.76 198.448 29.135 198.448 28.445C198.448 27.765 198.608 27.15 198.928 26.6C199.258 26.05 199.698 25.615 200.248 25.295C200.808 24.965 201.428 24.8 202.108 24.8C202.798 24.8 203.418 24.96 203.968 25.28C204.518 25.6 204.953 26.04 205.273 26.6C205.603 27.15 205.768 27.765 205.768 28.445C205.768 29.145 205.603 29.775 205.273 30.335C204.953 30.885 204.518 31.325 203.968 31.655C203.418 31.985 202.798 32.15 202.108 32.15ZM202.108 31.13C202.608 31.13 203.048 31.015 203.428 30.785C203.818 30.555 204.123 30.235 204.343 29.825C204.573 29.415 204.688 28.955 204.688 28.445C204.688 27.935 204.573 27.485 204.343 27.095C204.123 26.695 203.818 26.38 203.428 26.15C203.048 25.92 202.608 25.805 202.108 25.805C201.618 25.805 201.178 25.92 200.788 26.15C200.398 26.38 200.093 26.695 199.873 27.095C199.653 27.485 199.543 27.935 199.543 28.445C199.543 28.965 199.653 29.43 199.873 29.84C200.093 30.24 200.398 30.555 200.788 30.785C201.178 31.015 201.618 31.13 202.108 31.13ZM207.439 32V24.95H208.489V32H207.439ZM208.489 27.89L208.054 27.695C208.054 26.805 208.269 26.1 208.699 25.58C209.139 25.06 209.739 24.8 210.499 24.8C210.849 24.8 211.169 24.865 211.459 24.995C211.749 25.115 212.019 25.31 212.269 25.58L211.579 26.315C211.409 26.125 211.219 25.99 211.009 25.91C210.809 25.83 210.579 25.79 210.319 25.79C209.779 25.79 209.339 25.97 208.999 26.33C208.659 26.68 208.489 27.2 208.489 27.89ZM216.137 32.15C215.487 32.15 214.902 31.99 214.382 31.67C213.862 31.35 213.447 30.915 213.137 30.365C212.837 29.805 212.687 29.18 212.687 28.49C212.687 27.79 212.837 27.165 213.137 26.615C213.447 26.055 213.862 25.615 214.382 25.295C214.902 24.965 215.487 24.8 216.137 24.8C216.667 24.8 217.147 24.905 217.577 25.115C218.007 25.325 218.362 25.625 218.642 26.015C218.932 26.395 219.102 26.845 219.152 27.365V29.57C219.092 30.08 218.922 30.53 218.642 30.92C218.372 31.3 218.022 31.6 217.592 31.82C217.162 32.04 216.677 32.15 216.137 32.15ZM216.317 31.145C216.807 31.145 217.237 31.035 217.607 30.815C217.977 30.585 218.267 30.27 218.477 29.87C218.687 29.46 218.792 28.995 218.792 28.475C218.792 27.945 218.682 27.48 218.462 27.08C218.252 26.68 217.962 26.365 217.592 26.135C217.222 25.905 216.792 25.79 216.302 25.79C215.812 25.79 215.377 25.905 214.997 26.135C214.617 26.365 214.317 26.685 214.097 27.095C213.887 27.495 213.782 27.955 213.782 28.475C213.782 28.995 213.887 29.46 214.097 29.87C214.317 30.27 214.617 30.585 214.997 30.815C215.387 31.035 215.827 31.145 216.317 31.145ZM219.782 32H218.732V30.11L218.942 28.37L218.732 26.675V21.38H219.782V32ZM223.021 32.15C222.771 32.15 222.566 32.065 222.406 31.895C222.246 31.725 222.166 31.52 222.166 31.28C222.166 31.04 222.246 30.84 222.406 30.68C222.566 30.51 222.771 30.425 223.021 30.425C223.261 30.425 223.461 30.51 223.621 30.68C223.781 30.84 223.861 31.04 223.861 31.28C223.861 31.52 223.781 31.725 223.621 31.895C223.461 32.065 223.261 32.15 223.021 32.15ZM227.357 32.15C227.107 32.15 226.902 32.065 226.742 31.895C226.582 31.725 226.502 31.52 226.502 31.28C226.502 31.04 226.582 30.84 226.742 30.68C226.902 30.51 227.107 30.425 227.357 30.425C227.597 30.425 227.797 30.51 227.957 30.68C228.117 30.84 228.197 31.04 228.197 31.28C228.197 31.52 228.117 31.725 227.957 31.895C227.797 32.065 227.597 32.15 227.357 32.15ZM231.693 32.15C231.443 32.15 231.238 32.065 231.078 31.895C230.918 31.725 230.838 31.52 230.838 31.28C230.838 31.04 230.918 30.84 231.078 30.68C231.238 30.51 231.443 30.425 231.693 30.425C231.933 30.425 232.133 30.51 232.293 30.68C232.453 30.84 232.533 31.04 232.533 31.28C232.533 31.52 232.453 31.725 232.293 31.895C232.133 32.065 231.933 32.15 231.693 32.15Z" fill="#A1A1A1"/>
<defs>
<clipPath id="clip0_1_2172">
<rect width="24" height="24" fill="white" transform="translate(28.2856 17)"/>
</clipPath>
</defs>
</svg>
