<svg width="401" height="401" viewBox="0 0 401 401" fill="none" xmlns="http://www.w3.org/2000/svg">
<path d="M401 305.685H0V305.885H401V305.685Z" fill="#E6E6E6"/>
<path d="M357.355 310.842H338.709V311.042H357.355V310.842Z" fill="#E6E6E6"/>
<path d="M289.522 315.197H200.957V315.397H289.522V315.197Z" fill="#E6E6E6"/>
<path d="M163.071 315.301H154.385V315.501H163.071V315.301Z" fill="#E6E6E6"/>
<path d="M92.6791 312.895H62.556V313.095H92.6791V312.895Z" fill="#E6E6E6"/>
<path d="M330.945 310.842H313.317V311.042H330.945V310.842Z" fill="#E6E6E6"/>
<path d="M56.0117 312.895H41.4233V313.095H56.0117V312.895Z" fill="#E6E6E6"/>
<path d="M190.074 269.916H35.2158C34.0027 269.914 32.8399 269.43 31.9829 268.572C31.1258 267.713 30.6444 266.549 30.6444 265.336V47.6494C30.655 46.4432 31.141 45.2899 31.997 44.44C32.8529 43.5901 34.0096 43.1122 35.2158 43.1101H190.074C191.289 43.1101 192.453 43.5926 193.312 44.4514C194.171 45.3102 194.653 46.475 194.653 47.6895V265.336C194.653 266.551 194.171 267.716 193.312 268.574C192.453 269.433 191.289 269.916 190.074 269.916ZM35.2158 43.2705C34.0559 43.2726 32.9441 43.7349 32.1246 44.5559C31.3052 45.3769 30.8449 46.4895 30.8449 47.6494V265.336C30.8449 266.496 31.3052 267.609 32.1246 268.43C32.9441 269.251 34.0559 269.713 35.2158 269.715H190.074C191.235 269.713 192.347 269.251 193.168 268.43C193.989 267.61 194.451 266.497 194.453 265.336V47.6494C194.451 46.4887 193.989 45.3762 193.168 44.5554C192.347 43.7347 191.235 43.2726 190.074 43.2705H35.2158Z" fill="#E6E6E6"/>
<path d="M363.555 269.916H208.688C207.475 269.914 206.311 269.43 205.453 268.572C204.594 267.714 204.111 266.55 204.109 265.336V47.6494C204.122 46.4425 204.609 45.2892 205.467 44.4395C206.324 43.5898 207.481 43.1122 208.688 43.1101H363.555C364.759 43.1143 365.914 43.5931 366.768 44.4428C367.622 45.2925 368.107 46.4446 368.118 47.6494V265.336C368.118 266.548 367.638 267.71 366.782 268.569C365.927 269.427 364.766 269.911 363.555 269.916ZM208.688 43.2705C207.528 43.2726 206.415 43.7347 205.594 44.5554C204.774 45.3762 204.312 46.4887 204.309 47.6494V265.336C204.312 266.497 204.774 267.61 205.594 268.43C206.415 269.251 207.528 269.713 208.688 269.715H363.555C364.715 269.713 365.828 269.251 366.649 268.43C367.469 267.61 367.931 266.497 367.933 265.336V47.6494C367.931 46.4887 367.469 45.3762 366.649 44.5554C365.828 43.7347 364.715 43.2726 363.555 43.2705H208.688Z" fill="#E6E6E6"/>
<path d="M259.503 163.506H320.11V57.9872L259.503 57.9872V163.506Z" fill="#E6E6E6"/>
<path d="M256.231 163.506H316.838V57.9872L256.231 57.9872V163.506Z" fill="#F5F5F5"/>
<path d="M310.951 158.558V62.9435H262.102V158.558H310.951Z" fill="#FAFAFA"/>
<path d="M264.58 158.558V62.9435H262.102V158.558H264.58Z" fill="#E6E6E6"/>
<path d="M258.661 135.476H314.408V128.828H258.661V135.476Z" fill="#F5F5F5"/>
<path d="M156.502 163.506H217.109V57.9872L156.502 57.9872V163.506Z" fill="#E6E6E6"/>
<path d="M153.23 163.506H213.837V57.9872L153.23 57.9872V163.506Z" fill="#F5F5F5"/>
<path d="M207.959 158.558V62.9435H159.109V158.558H207.959Z" fill="#FAFAFA"/>
<path d="M161.579 158.55V62.9355H159.101V158.55H161.579Z" fill="#E6E6E6"/>
<path d="M155.66 135.476H211.407V128.828H155.66V135.476Z" fill="#F5F5F5"/>
<path d="M53.5094 163.506H114.117L114.117 57.9872L53.5094 57.9872L53.5094 163.506Z" fill="#E6E6E6"/>
<path d="M50.2373 163.506H110.844L110.844 57.9872L50.2373 57.9872L50.2373 163.506Z" fill="#F5F5F5"/>
<path d="M104.958 158.55V62.9355H56.1079L56.1079 158.55H104.958Z" fill="#FAFAFA"/>
<path d="M58.5861 158.558L58.5861 62.9435H56.1079L56.1079 158.558H58.5861Z" fill="#E6E6E6"/>
<path d="M52.6673 135.476H108.414V128.828H52.6673V135.476Z" fill="#F5F5F5"/>
<path d="M112.28 228.789C101.349 230.297 94.5879 206.542 118.696 186.427C117.437 209.71 131.352 226.159 112.28 228.789Z" fill="#E6E6E6"/>
<path d="M104.26 259.899C88.4125 248.791 99.2555 209.982 148.298 212.797C127.093 241.364 131.897 279.259 104.26 259.899Z" fill="#E0E0E0"/>
<path d="M109.874 259.65C120.404 248.31 105.415 219.767 67.5204 230.193C88.9017 248.959 91.5002 279.411 109.874 259.65Z" fill="#E0E0E0"/>
<path d="M96.3523 243.097C92.7112 238.662 88.4125 233.673 89.4551 228.396C90.4977 223.119 93.1042 219.197 91.0591 213.583C88.5729 206.846 89.0541 198.81 93.2566 199.484C97.459 200.158 102.167 205.098 102.079 211.602C102.006 217.922 106.089 219.943 110.018 223.303C113.948 226.664 115.336 231.58 116.033 236.392C117.252 244.035 127.157 242.592 129.788 249.224C132.506 255.64 127.085 264.181 118.415 266.146C109.746 268.111 103.57 269.354 97.6595 262.569C91.6526 255.424 101.742 249.449 96.3523 243.097Z" fill="#F5F5F5"/>
<path d="M126.179 305.685H93.6095L91.1553 261.318H128.633L126.179 305.685Z" fill="#EBEBEB"/>
<path d="M131.063 260.412H88.7253V265.192H131.063V260.412Z" fill="#EBEBEB"/>
<path d="M318.186 299.662H340.096V204.649H318.186V299.662Z" fill="#EBEBEB"/>
<path d="M146.485 305.685H335.886V299.662H146.485V305.685Z" fill="#EBEBEB"/>
<path d="M318.185 204.649H142.283V299.662H318.185V204.649Z" fill="#F5F5F5"/>
<path d="M309.572 216.342H150.896V247.508H309.572V216.342Z" fill="#EBEBEB"/>
<path d="M309.572 256.803H150.896V287.969H309.572V256.803Z" fill="#EBEBEB"/>
<path d="M180.875 234.058H279.593C280.158 234.056 280.7 233.831 281.099 233.431C281.499 233.031 281.724 232.49 281.727 231.925C281.727 231.358 281.502 230.815 281.102 230.414C280.702 230.012 280.16 229.786 279.593 229.784H180.875C180.309 229.786 179.766 230.012 179.366 230.414C178.966 230.815 178.742 231.358 178.742 231.925C178.744 232.49 178.969 233.031 179.369 233.431C179.769 233.831 180.31 234.056 180.875 234.058Z" fill="#F5F5F5"/>
<path d="M180.875 274.519H279.593C280.158 274.517 280.7 274.292 281.099 273.892C281.499 273.492 281.724 272.951 281.727 272.386C281.724 271.821 281.499 271.279 281.099 270.88C280.7 270.48 280.158 270.255 279.593 270.253H180.875C180.31 270.255 179.769 270.48 179.369 270.88C178.969 271.279 178.744 271.821 178.742 272.386C178.744 272.951 178.969 273.492 179.369 273.892C179.769 274.292 180.31 274.517 180.875 274.519Z" fill="#F5F5F5"/>
<path d="M269.624 190.782C269.624 190.782 294.727 214.57 309.628 190.686C309.628 190.686 305.666 183.011 301.488 182.353C297.309 181.696 297.141 188.994 293.468 186.74C289.795 184.487 285.504 176.779 283.162 180.894C280.82 185.008 277.604 179.145 274.1 178.808C270.595 178.472 269.624 190.782 269.624 190.782Z" fill="#F5F5F5"/>
<path d="M311.224 189.138C311.224 189.138 310.679 204.649 289.522 204.649C268.365 204.649 267.82 189.138 267.82 189.138H311.224Z" fill="#EBEBEB"/>
<path d="M204.197 181.054H216.38V204.649H180.61C180.61 198.393 183.095 192.392 187.518 187.968C191.941 183.543 197.941 181.056 204.197 181.054Z" fill="#F5F5F5"/>
<path d="M227.616 181.054H216.38V204.649H227.616V181.054Z" fill="#E6E6E6"/>
<path d="M200.5 342.903C286.38 342.903 356 338.838 356 333.825C356 328.811 286.38 324.746 200.5 324.746C114.62 324.746 45.0002 328.811 45.0002 333.825C45.0002 338.838 114.62 342.903 200.5 342.903Z" fill="#F5F5F5"/>
<path d="M174.836 158.604L174.307 159.406C174.146 159.638 173.978 159.847 173.817 160.063C173.489 160.496 173.144 160.865 172.799 161.306C172.101 162.108 171.395 162.91 170.642 163.616C169.134 165.065 167.526 166.405 165.83 167.626C164.135 168.847 162.352 169.941 160.496 170.898C159.558 171.355 158.628 171.829 157.657 172.214L156.206 172.791L155.797 172.943C155.572 173.016 155.363 173.096 155.115 173.152C154.63 173.273 154.131 173.33 153.631 173.32C152.678 173.314 151.741 173.08 150.896 172.639C150.217 172.284 149.593 171.833 149.044 171.299C148.173 170.44 147.421 169.47 146.806 168.412C145.756 166.581 144.898 164.646 144.248 162.638C142.986 158.852 142.084 154.956 141.553 151.001L144.905 150.263C145.515 152.019 146.14 153.832 146.83 155.58C147.52 157.328 148.21 159.069 149.012 160.721C149.742 162.316 150.611 163.843 151.61 165.284C152.007 165.882 152.485 166.422 153.03 166.888C153.186 167.017 153.362 167.12 153.551 167.193C153.663 167.193 153.655 167.193 153.599 167.193H153.543L153.808 167.065L155.003 166.487C155.805 166.102 156.566 165.685 157.336 165.22C158.855 164.31 160.322 163.317 161.731 162.245C163.122 161.152 164.442 159.973 165.685 158.716C166.311 158.106 166.904 157.457 167.474 156.799C167.754 156.47 168.035 156.141 168.276 155.813L168.661 155.323L168.973 154.906L174.836 158.604Z" fill="#FFB573"/>
<path d="M165.124 158.259L169.19 168.011L166.247 169.848L161.675 161.002L165.124 158.259Z" fill="#263238"/>
<path d="M176.632 150.046C170 149.958 163.263 158.355 163.095 158.564L168.34 170.898C168.34 170.898 180.009 161.427 180.594 157.721C181.204 153.864 180.835 150.102 176.632 150.046Z" fill="#2F3F55"/>
<path opacity="0.3" d="M176.632 150.046C170 149.958 163.263 158.355 163.095 158.564L168.34 170.898C168.34 170.898 180.009 161.427 180.594 157.721C181.204 153.864 180.835 150.102 176.632 150.046Z" fill="black"/>
<path d="M144.36 148.988L139.773 145.419L138.842 152.444C138.842 152.444 143.301 154.193 145.675 152.677L145.611 151.394C145.587 150.926 145.463 150.47 145.247 150.055C145.031 149.639 144.729 149.276 144.36 148.988Z" fill="#FFB573"/>
<path d="M133.661 145.066L133.95 150.399L138.866 152.444L139.797 145.419L133.661 145.066Z" fill="#FFB573"/>
<path d="M234.184 148.418L241.274 146.646L236.317 141.585C236.317 141.585 231.722 143.462 232.845 147.472L234.184 148.418Z" fill="#FFB573"/>
<path d="M244.794 145.387L244.209 139.821L236.277 141.585L241.234 146.646L244.794 145.387Z" fill="#FFB573"/>
<path d="M211.062 326.791L204.462 327.425L198.952 311.85L205.553 311.208L211.062 326.791Z" fill="#FFB573"/>
<path d="M281.719 294.045L276.858 298.761L264.363 289.009L269.231 284.293L281.719 294.045Z" fill="#FFB573"/>
<path d="M275.455 297.847L279.192 291.214C279.255 291.1 279.357 291.013 279.48 290.969C279.602 290.925 279.737 290.926 279.858 290.974L285.536 293.171C285.676 293.232 285.802 293.322 285.906 293.435C286.009 293.548 286.088 293.681 286.136 293.827C286.185 293.972 286.202 294.126 286.187 294.278C286.172 294.43 286.125 294.578 286.049 294.711C284.71 297.005 283.948 298.039 282.304 300.959C281.293 302.755 279.321 306.869 277.925 309.347C276.53 311.826 274.003 310.575 274.364 309.42C275.968 304.231 275.696 301.336 275.262 299.042C275.183 298.633 275.251 298.21 275.455 297.847Z" fill="#263238"/>
<path d="M203.147 325.404H211.167C211.311 325.407 211.45 325.456 211.564 325.544C211.678 325.632 211.761 325.754 211.8 325.893L213.549 332.253C213.593 332.403 213.601 332.562 213.572 332.716C213.544 332.87 213.479 333.015 213.384 333.139C213.288 333.263 213.165 333.363 213.023 333.431C212.882 333.498 212.727 333.532 212.57 333.528C209.755 333.48 208.384 333.311 204.847 333.311C202.673 333.311 195.592 333.544 192.584 333.544C189.577 333.544 189.031 330.568 190.25 330.336C195.704 329.125 200.308 327.465 201.984 325.877C202.294 325.572 202.712 325.402 203.147 325.404Z" fill="#263238"/>
<path d="M198.96 311.85L201.791 319.886H208.624L205.561 311.208L198.96 311.85Z" fill="#A76755"/>
<path d="M269.239 284.293L264.371 289.017L270.811 294.037L275.679 289.322L269.239 284.293Z" fill="#A76755"/>
<path d="M170.176 152.188C170.176 152.188 167.45 154.265 185.823 190.122L212.017 181.661C208.135 171.147 206.002 164.578 203.997 141.056C200.112 141.486 196.263 142.196 192.48 143.181C188.435 144.199 184.462 145.482 180.586 147.023C175.582 149.172 170.176 152.188 170.176 152.188Z" fill="#2F3F55"/>
<path opacity="0.3" d="M170.176 152.188C170.176 152.188 167.45 154.265 185.823 190.122L212.017 181.661C208.135 171.147 206.002 164.578 203.997 141.056C200.112 141.486 196.263 142.196 192.48 143.181C188.435 144.199 184.462 145.482 180.586 147.023C175.582 149.172 170.176 152.188 170.176 152.188Z" fill="black"/>
<path d="M186.938 130.165C187.419 134.239 188.935 141.489 192.44 143.181C192.44 143.181 192.64 147.4 185.535 149.693C177.715 152.22 180.546 147.023 180.546 147.023C184.484 144.617 183.345 141.489 181.645 138.762L186.938 130.165Z" fill="#FFB573"/>
<path d="M173.793 150.247C175.726 149.244 178.188 148.025 180.546 147.039C184.427 145.47 188.415 144.181 192.48 143.181C194.766 142.556 197.075 142.09 199.024 141.762C199.209 142.307 198.655 143.718 197.3 145.667C193.009 149.228 183.858 153.856 177.114 153.687C174.162 152.589 173.424 151.426 173.793 150.247Z" fill="#FFB573"/>
<path d="M197.292 145.667C194.379 149.572 190.897 153.019 186.962 155.893C183.612 155.485 180.31 154.746 177.106 153.687C183.818 153.856 192.969 149.228 197.292 145.667Z" fill="#263238"/>
<path d="M184.781 133.669L181.645 138.746C182.054 139.379 182.406 140.047 182.696 140.743C184.251 139.981 186.232 137.728 185.855 135.931C185.632 135.12 185.268 134.355 184.781 133.669Z" fill="#A76755"/>
<path d="M188.526 122.642C188.927 129.355 189.248 132.186 186.297 136.019C181.861 141.778 173.529 140.831 171.123 134.351C168.965 128.537 168.669 118.536 174.868 115.103C176.23 114.338 177.765 113.933 179.328 113.927C180.89 113.921 182.428 114.314 183.796 115.069C185.164 115.824 186.317 116.916 187.145 118.241C187.972 119.567 188.448 121.081 188.526 122.642Z" fill="#FFB573"/>
<path d="M201.784 110.611C203.301 103.943 199.124 97.3075 192.455 95.7912C185.787 94.2749 179.151 98.4517 177.635 105.12C176.119 111.789 180.296 118.424 186.964 119.941C193.633 121.457 200.268 117.28 201.784 110.611Z" fill="#263238"/>
<path d="M186.617 113.242C189.168 114.927 190.435 117.509 189.448 119.009C188.462 120.509 185.591 120.364 183.032 118.68C180.474 116.996 179.215 114.413 180.201 112.914C181.188 111.414 184.059 111.558 186.617 113.242Z" fill="#2F3F55"/>
<path opacity="0.6" d="M186.617 113.242C189.168 114.927 190.435 117.509 189.448 119.009C188.462 120.509 185.591 120.364 183.032 118.68C180.474 116.996 179.215 114.413 180.201 112.914C181.188 111.414 184.059 111.558 186.617 113.242Z" fill="#FAFAFA"/>
<path d="M185.262 127.221C185.928 125.682 183.61 121.11 184.107 119.402C182.776 118.159 169.278 122.554 170.369 119.346C171.411 116.266 174.7 112.184 182.206 113.892C190.226 115.721 190.924 122.658 190.026 124.871C189.128 127.085 187.852 129.387 187.852 129.387L185.262 127.221Z" fill="#263238"/>
<path d="M190.291 128.529C190.307 129.828 189.812 131.081 188.911 132.017C187.7 133.244 186.24 132.362 185.863 130.774C185.519 129.347 185.743 126.981 187.299 126.355C187.642 126.222 188.013 126.176 188.378 126.223C188.743 126.271 189.091 126.409 189.388 126.625C189.686 126.841 189.925 127.129 190.082 127.462C190.24 127.794 190.312 128.161 190.291 128.529Z" fill="#FFB573"/>
<path d="M185.823 190.122C185.823 190.122 173.681 249.342 180.45 268.871C187.492 289.185 198.952 317.544 198.952 317.544L209.659 316.934C209.659 316.934 200.837 281.101 198.663 264.917C195.688 242.605 208.432 182.856 208.432 182.856L185.823 190.122Z" fill="#2F3F55"/>
<path d="M185.823 190.122C185.823 190.122 173.681 249.342 180.45 268.871C187.492 289.185 198.952 317.544 198.952 317.544L209.659 316.934C209.659 316.934 200.837 281.101 198.663 264.917C195.688 242.605 208.432 182.856 208.432 182.856L185.823 190.122Z" fill="#BDD1FF"/>
<path d="M210.501 317.191L198.11 317.905L196.121 313.029L209.787 311.609L210.501 317.191Z" fill="#2F3F55"/>
<path opacity="0.2" d="M210.501 317.191L198.11 317.905L196.121 313.029L209.787 311.609L210.501 317.191Z" fill="black"/>
<path d="M198.663 194.678C196.803 201.559 198.359 211.872 201.871 219.106C202.73 213.492 203.644 208.055 204.51 203.187C202.705 199.698 200.717 196.602 198.663 194.678Z" fill="#2F3F55"/>
<path opacity="0.4" d="M198.663 194.678C196.803 201.559 198.359 211.872 201.871 219.106C202.73 213.492 203.644 208.055 204.51 203.187C202.705 199.698 200.717 196.602 198.663 194.678Z" fill="#FAFAFA"/>
<path d="M192.737 187.885C192.737 187.885 210.766 230.976 222.707 254.635C232.331 273.771 268.044 293.797 268.044 293.797L274.46 286.996C274.46 286.996 247.77 263.297 241.113 250.32C219.812 208.785 224.191 190.643 212.033 181.661L192.737 187.885Z" fill="#2F3F55"/>
<path d="M192.737 187.885C192.737 187.885 210.766 230.976 222.707 254.635C232.331 273.771 268.044 293.797 268.044 293.797L274.46 286.996C274.46 286.996 247.77 263.297 241.113 250.32C219.812 208.785 224.191 190.643 212.033 181.661L192.737 187.885Z" fill="#BDD1FF"/>
<path d="M275.655 286.025L266.833 295.401L261.252 292.465L271.413 282.104L275.655 286.025Z" fill="#2F3F55"/>
<path opacity="0.2" d="M275.655 286.025L266.833 295.401L261.252 292.465L271.413 282.104L275.655 286.025Z" fill="black"/>
<path d="M211.912 180.001L213.845 181.966C213.998 182.118 213.845 182.375 213.541 182.471L186.072 191.293C185.831 191.373 185.599 191.293 185.535 191.173L184.548 188.911C184.476 188.751 184.636 188.55 184.893 188.462L211.415 179.905C211.499 179.876 211.589 179.87 211.677 179.887C211.764 179.904 211.845 179.943 211.912 180.001Z" fill="#263238"/>
<path d="M209.322 184.115L210.028 183.891C210.172 183.843 210.252 183.73 210.22 183.65L208.905 180.707C208.905 180.626 208.712 180.594 208.576 180.635L207.862 180.867C207.726 180.867 207.638 181.019 207.678 181.108L208.993 184.043C209.017 184.131 209.162 184.163 209.322 184.115Z" fill="#2F3F55"/>
<path opacity="0.6" d="M209.322 184.115L210.028 183.891C210.172 183.843 210.252 183.73 210.22 183.65L208.905 180.707C208.905 180.626 208.712 180.594 208.576 180.635L207.862 180.867C207.726 180.867 207.638 181.019 207.678 181.108L208.993 184.043C209.017 184.131 209.162 184.163 209.322 184.115Z" fill="#FAFAFA"/>
<path d="M188.149 190.948L188.863 190.716C188.999 190.668 189.088 190.563 189.047 190.475L187.732 187.54C187.692 187.452 187.548 187.419 187.403 187.468L186.69 187.692C186.553 187.74 186.465 187.844 186.505 187.933L187.82 190.868C187.86 190.956 188.005 190.988 188.149 190.948Z" fill="#2F3F55"/>
<path opacity="0.6" d="M188.149 190.948L188.863 190.716C188.999 190.668 189.088 190.563 189.047 190.475L187.732 187.54C187.692 187.452 187.548 187.419 187.403 187.468L186.69 187.692C186.553 187.74 186.465 187.844 186.505 187.933L187.82 190.868C187.86 190.956 188.005 190.988 188.149 190.948Z" fill="#FAFAFA"/>
<path d="M198.728 187.532L199.433 187.299C199.578 187.299 199.666 187.147 199.626 187.059L198.311 184.123C198.27 184.035 198.118 184.003 197.982 184.051L197.268 184.284C197.132 184.324 197.043 184.436 197.083 184.516L198.399 187.46C198.438 187.506 198.492 187.537 198.551 187.55C198.61 187.563 198.672 187.557 198.728 187.532Z" fill="#2F3F55"/>
<path opacity="0.6" d="M198.728 187.532L199.433 187.299C199.578 187.299 199.666 187.147 199.626 187.059L198.311 184.123C198.27 184.035 198.118 184.003 197.982 184.051L197.268 184.284C197.132 184.324 197.043 184.436 197.083 184.516L198.399 187.46C198.438 187.506 198.492 187.537 198.551 187.55C198.61 187.563 198.672 187.557 198.728 187.532Z" fill="#FAFAFA"/>
<path d="M178.646 125.738C178.71 126.275 178.477 126.756 178.124 126.796C177.771 126.836 177.426 126.435 177.362 125.89C177.298 125.345 177.531 124.871 177.884 124.831C178.236 124.791 178.581 125.192 178.646 125.738Z" fill="#263238"/>
<path d="M172.51 126.483C172.582 127.029 172.342 127.502 171.989 127.542C171.636 127.582 171.291 127.181 171.227 126.644C171.163 126.107 171.395 125.625 171.748 125.577C172.101 125.529 172.43 125.914 172.51 126.483Z" fill="#263238"/>
<path d="M171.909 125.593L170.561 125.377C170.561 125.377 171.355 126.315 171.909 125.593Z" fill="#263238"/>
<path d="M174.251 127.221C173.915 128.517 173.405 129.761 172.735 130.919C173.037 131.08 173.37 131.174 173.711 131.197C174.053 131.219 174.395 131.168 174.716 131.047L174.251 127.221Z" fill="#FFB573"/>
<path d="M176.865 132.948C176.826 132.948 176.789 132.935 176.759 132.909C176.73 132.884 176.71 132.85 176.705 132.811C176.702 132.768 176.715 132.726 176.742 132.692C176.768 132.658 176.807 132.635 176.849 132.627C177.525 132.56 178.175 132.334 178.748 131.969C179.32 131.604 179.799 131.11 180.145 130.526C180.154 130.506 180.166 130.488 180.182 130.473C180.198 130.458 180.216 130.447 180.236 130.439C180.257 130.432 180.278 130.429 180.3 130.43C180.321 130.431 180.342 130.436 180.362 130.445C180.381 130.455 180.398 130.468 180.412 130.484C180.426 130.5 180.436 130.518 180.443 130.539C180.45 130.559 180.452 130.58 180.451 130.601C180.449 130.622 180.444 130.643 180.434 130.662C180.07 131.299 179.557 131.839 178.94 132.237C178.323 132.635 177.62 132.879 176.889 132.948H176.865Z" fill="#263238"/>
<path d="M179.407 123.813C179.331 123.812 179.257 123.783 179.199 123.733C178.902 123.458 178.545 123.259 178.155 123.152C177.766 123.044 177.356 123.032 176.961 123.115C176.92 123.127 176.877 123.131 176.835 123.126C176.792 123.122 176.751 123.108 176.713 123.087C176.676 123.066 176.643 123.038 176.617 123.004C176.591 122.971 176.571 122.932 176.56 122.891C176.548 122.85 176.544 122.807 176.549 122.765C176.554 122.723 176.567 122.683 176.588 122.646C176.609 122.609 176.638 122.577 176.671 122.552C176.705 122.526 176.744 122.508 176.785 122.498C177.282 122.388 177.798 122.399 178.29 122.529C178.783 122.658 179.237 122.903 179.616 123.243C179.646 123.273 179.67 123.309 179.687 123.348C179.703 123.387 179.712 123.429 179.712 123.472C179.712 123.515 179.703 123.557 179.687 123.596C179.67 123.635 179.646 123.671 179.616 123.701C179.563 123.763 179.488 123.803 179.407 123.813Z" fill="#263238"/>
<path d="M169.342 123.997C169.295 124.009 169.245 124.009 169.198 123.997C169.124 123.956 169.068 123.889 169.043 123.808C169.018 123.727 169.024 123.64 169.062 123.564C169.281 123.106 169.606 122.706 170.011 122.398C170.415 122.089 170.887 121.882 171.387 121.792C171.471 121.783 171.555 121.807 171.621 121.86C171.688 121.912 171.73 121.989 171.74 122.072C171.746 122.115 171.743 122.158 171.732 122.199C171.721 122.24 171.702 122.278 171.675 122.312C171.649 122.345 171.617 122.373 171.58 122.394C171.543 122.415 171.502 122.428 171.46 122.433C171.064 122.507 170.691 122.674 170.373 122.921C170.055 123.168 169.801 123.488 169.631 123.853C169.6 123.9 169.557 123.939 169.506 123.964C169.455 123.989 169.399 124.001 169.342 123.997Z" fill="#263238"/>
<path d="M209.322 147.319L209.627 147.704L210.004 148.162C210.26 148.466 210.525 148.779 210.806 149.084C211.359 149.701 211.937 150.311 212.554 150.888C213.763 152.074 215.041 153.188 216.38 154.225C217.739 155.255 219.15 156.216 220.606 157.104C221.336 157.545 222.082 157.962 222.836 158.371L223.983 158.956L224.536 159.237C224.672 159.301 224.809 159.366 224.937 159.414C225.346 159.584 225.785 159.674 226.228 159.678C226.636 159.655 227.027 159.51 227.351 159.261C228.426 158.37 229.275 157.238 229.829 155.957C230.574 154.412 231.172 152.801 231.618 151.145C232.113 149.456 232.523 147.743 232.845 146.012L236.269 146.229C236.376 150.177 235.812 154.115 234.601 157.874C234.258 158.899 233.815 159.887 233.278 160.825C232.682 161.894 231.912 162.856 231 163.672C229.914 164.637 228.586 165.288 227.158 165.557C225.771 165.799 224.345 165.7 223.004 165.268C222.691 165.18 222.403 165.068 222.106 164.955L221.408 164.667L220.045 164.097C219.138 163.688 218.248 163.295 217.374 162.798C215.619 161.872 213.929 160.83 212.313 159.678C210.696 158.512 209.156 157.242 207.702 155.877C206.98 155.187 206.282 154.457 205.601 153.703C205.264 153.318 204.927 152.901 204.606 152.532L204.117 151.899C203.949 151.674 203.82 151.498 203.596 151.177L209.322 147.319Z" fill="#FFB573"/>
<path d="M215.008 151.546L209.988 159.975L207.542 157.665L212.177 149.22L215.008 151.546Z" fill="#263238"/>
<path d="M204.029 141.056C206.916 141.008 213.925 149.284 213.925 149.284L207.83 159.895C207.83 159.895 200.067 153.054 200.075 149.308C200.083 145.403 200.741 141.152 204.029 141.056Z" fill="#2F3F55"/>
<path opacity="0.3" d="M204.029 141.056C206.916 141.008 213.925 149.284 213.925 149.284L207.83 159.895C207.83 159.895 200.067 153.054 200.075 149.308C200.083 145.403 200.741 141.152 204.029 141.056Z" fill="black"/>
<path d="M274.14 301.448C273.916 301.439 273.702 301.357 273.53 301.215C273.45 301.162 273.385 301.087 273.344 300.999C273.303 300.911 273.287 300.814 273.298 300.718C273.37 299.852 275.543 298.713 275.784 298.585C275.81 298.567 275.841 298.558 275.872 298.558C275.903 298.558 275.934 298.567 275.96 298.585C275.984 298.605 276.002 298.631 276.012 298.661C276.022 298.691 276.024 298.723 276.016 298.753C275.768 299.619 275.214 301.111 274.412 301.376C274.326 301.416 274.234 301.44 274.14 301.448ZM275.591 299.042C274.741 299.523 273.658 300.277 273.618 300.726C273.612 300.769 273.619 300.814 273.64 300.852C273.66 300.891 273.692 300.923 273.731 300.943C273.806 301.015 273.899 301.067 274 301.091C274.102 301.115 274.208 301.111 274.308 301.079C274.749 300.951 275.214 300.197 275.591 299.058V299.042Z" fill="#2F3F55"/>
<path d="M273.843 299.347C273.49 299.377 273.138 299.289 272.84 299.098C272.744 299.015 272.679 298.901 272.655 298.776C272.632 298.65 272.652 298.521 272.712 298.408C272.755 298.292 272.825 298.187 272.915 298.102C273.006 298.017 273.115 297.955 273.233 297.919C274.164 297.606 275.864 298.545 275.936 298.585C275.962 298.599 275.984 298.62 276 298.645C276.015 298.67 276.024 298.699 276.024 298.729C276.023 298.757 276.015 298.783 276.001 298.807C275.987 298.831 275.968 298.851 275.944 298.865C275.289 299.183 274.571 299.347 273.843 299.347ZM273.674 298.176C273.56 298.174 273.447 298.19 273.338 298.224C273.264 298.247 273.196 298.286 273.139 298.339C273.082 298.392 273.037 298.457 273.009 298.529C272.929 298.721 273.009 298.801 273.009 298.857C273.37 299.162 274.701 299.034 275.463 298.721C274.907 298.426 274.3 298.241 273.674 298.176Z" fill="#2F3F55"/>
<path d="M199.586 326.735C199.025 326.782 198.463 326.65 197.982 326.358C197.856 326.265 197.753 326.145 197.682 326.005C197.611 325.866 197.574 325.712 197.573 325.556C197.563 325.471 197.577 325.385 197.612 325.308C197.648 325.23 197.703 325.163 197.773 325.115C198.503 324.618 201.246 325.869 201.783 326.117C201.814 326.132 201.839 326.157 201.855 326.187C201.871 326.217 201.877 326.252 201.871 326.286C201.869 326.318 201.856 326.349 201.834 326.374C201.812 326.398 201.783 326.415 201.751 326.422C201.042 326.599 200.316 326.704 199.586 326.735ZM198.303 325.347C198.194 325.338 198.085 325.36 197.99 325.412C197.966 325.428 197.947 325.451 197.935 325.478C197.924 325.505 197.92 325.535 197.926 325.564C197.928 325.669 197.955 325.772 198.004 325.865C198.052 325.958 198.122 326.039 198.206 326.101C198.84 326.582 200.348 326.398 201.23 326.238C200.304 325.795 199.318 325.495 198.303 325.347Z" fill="#2F3F55"/>
<path d="M201.751 326.454H201.687C200.781 326.085 198.952 324.618 199.056 323.856C199.056 323.687 199.185 323.479 199.602 323.431C201.206 323.222 201.879 326.149 201.903 326.27C201.91 326.298 201.909 326.328 201.901 326.356C201.892 326.384 201.877 326.41 201.855 326.43C201.824 326.449 201.788 326.457 201.751 326.454ZM199.746 323.735H199.642C199.473 323.735 199.377 323.808 199.369 323.888C199.313 324.321 200.572 325.492 201.502 325.989C201.302 325.299 200.708 323.735 199.746 323.735Z" fill="#2F3F55"/>
<path d="M178.044 124.839L176.697 124.623C176.697 124.623 177.491 125.561 178.044 124.839Z" fill="#263238"/>
<path d="M127.871 68.7957C126.451 70.5761 118.632 72.6693 112.416 72.0919C110.275 86.1429 117.758 102.319 117.758 102.319C117.758 102.319 133.998 100.386 134.399 93.6978C134.8 87.0091 127.871 68.7957 127.871 68.7957Z" fill="#2F3F55"/>
<path opacity="0.4" d="M127.871 68.7957C126.451 70.5761 118.632 72.6693 112.416 72.0919C110.275 86.1429 117.758 102.319 117.758 102.319C117.758 102.319 133.998 100.386 134.399 93.6978C134.8 87.0091 127.871 68.7957 127.871 68.7957Z" fill="#FAFAFA"/>
<path d="M250.809 58.105C252.261 60.1501 259.631 62.1791 265.334 61.1205C268.389 77.754 262.727 97.5153 262.727 97.5153C262.727 97.5153 247.593 96.1679 246.687 88.2201C245.781 80.2723 250.809 58.105 250.809 58.105Z" fill="#2F3F55"/>
<path opacity="0.4" d="M250.809 58.105C252.261 60.1501 259.631 62.1791 265.334 61.1205C268.389 77.754 262.727 97.5153 262.727 97.5153C262.727 97.5153 247.593 96.1679 246.687 88.2201C245.781 80.2723 250.809 58.105 250.809 58.105Z" fill="#FAFAFA"/>
<path d="M144.36 202.16C144.245 202.177 144.127 202.171 144.014 202.142C143.901 202.114 143.795 202.063 143.701 201.993C143.608 201.922 143.53 201.834 143.471 201.734C143.412 201.633 143.373 201.522 143.357 201.406L124.31 66.2934C124.294 66.1741 124.303 66.0529 124.335 65.9369C124.367 65.8209 124.422 65.7126 124.497 65.6184C124.572 65.5241 124.665 65.4458 124.77 65.3882C124.876 65.3306 124.992 65.2948 125.112 65.2829C125.228 65.2671 125.346 65.2742 125.459 65.304C125.572 65.3337 125.678 65.3854 125.771 65.4562C125.864 65.5269 125.942 65.6153 126.001 65.7163C126.06 65.8173 126.099 65.9289 126.114 66.0448L145.162 201.15C145.178 201.269 145.169 201.39 145.137 201.506C145.105 201.622 145.05 201.731 144.975 201.825C144.9 201.919 144.807 201.997 144.701 202.055C144.596 202.113 144.48 202.148 144.36 202.16Z" fill="#2F3F55"/>
<path opacity="0.2" d="M144.36 202.16C144.245 202.177 144.127 202.171 144.014 202.142C143.901 202.114 143.795 202.063 143.701 201.993C143.608 201.922 143.53 201.834 143.471 201.734C143.412 201.633 143.373 201.522 143.357 201.406L124.31 66.2934C124.294 66.1741 124.303 66.0529 124.335 65.9369C124.367 65.8209 124.422 65.7126 124.497 65.6184C124.572 65.5241 124.665 65.4458 124.77 65.3882C124.876 65.3306 124.992 65.2948 125.112 65.2829C125.228 65.2671 125.346 65.2742 125.459 65.304C125.572 65.3337 125.678 65.3854 125.771 65.4562C125.864 65.5269 125.942 65.6153 126.001 65.7163C126.06 65.8173 126.099 65.9289 126.114 66.0448L145.162 201.15C145.178 201.269 145.169 201.39 145.137 201.506C145.105 201.622 145.05 201.731 144.975 201.825C144.9 201.919 144.807 201.997 144.701 202.055C144.596 202.113 144.48 202.148 144.36 202.16Z" fill="black"/>
<path d="M235.122 192.119C235.242 192.135 235.363 192.126 235.479 192.094C235.595 192.062 235.703 192.007 235.797 191.932C235.892 191.857 235.97 191.764 236.028 191.659C236.085 191.553 236.121 191.437 236.133 191.317L255.22 56.2123C255.237 56.0964 255.231 55.9783 255.203 55.8648C255.174 55.7512 255.123 55.6444 255.053 55.5506C254.983 55.4567 254.895 55.3776 254.795 55.3177C254.694 55.2579 254.582 55.2185 254.467 55.2018C254.347 55.1861 254.226 55.1946 254.11 55.2268C253.994 55.2589 253.886 55.314 253.791 55.3888C253.697 55.4636 253.619 55.5566 253.561 55.6622C253.504 55.7679 253.468 55.884 253.456 56.0038L234.368 191.109C234.336 191.342 234.397 191.579 234.538 191.768C234.679 191.958 234.889 192.084 235.122 192.119Z" fill="#2F3F55"/>
<path opacity="0.2" d="M235.122 192.119C235.242 192.135 235.363 192.126 235.479 192.094C235.595 192.062 235.703 192.007 235.797 191.932C235.892 191.857 235.97 191.764 236.028 191.659C236.085 191.553 236.121 191.437 236.133 191.317L255.22 56.2123C255.237 56.0964 255.231 55.9783 255.203 55.8648C255.174 55.7512 255.123 55.6444 255.053 55.5506C254.983 55.4567 254.895 55.3776 254.795 55.3177C254.694 55.2579 254.582 55.2185 254.467 55.2018C254.347 55.1861 254.226 55.1946 254.11 55.2268C253.994 55.2589 253.886 55.314 253.791 55.3888C253.697 55.4636 253.619 55.5566 253.561 55.6622C253.504 55.7679 253.468 55.884 253.456 56.0038L234.368 191.109C234.336 191.342 234.397 191.579 234.538 191.768C234.679 191.958 234.889 192.084 235.122 192.119Z" fill="black"/>
<path d="M123.548 69.1485L127.157 95.6786C127.179 95.8463 127.237 96.0072 127.327 96.1503C127.418 96.2933 127.538 96.4151 127.68 96.5074C127.821 96.5996 127.981 96.66 128.149 96.6845C128.316 96.7089 128.487 96.6968 128.649 96.6491C136.717 94.3393 181.581 82.8226 250.497 90.1529C250.789 90.1866 251.084 90.1087 251.322 89.9348C251.56 89.7609 251.723 89.5037 251.78 89.2145C253.079 82.4938 255.317 63.35 255.886 58.4498C255.92 58.1409 255.832 57.8309 255.64 57.5865C255.448 57.3421 255.168 57.1827 254.86 57.1426C245.604 55.9716 182.431 48.9702 124.358 67.8653C124.095 67.9523 123.871 68.1278 123.723 68.3618C123.576 68.5958 123.514 68.8739 123.548 69.1485Z" fill="#2F3F55"/>
<path opacity="0.6" d="M123.548 69.1485L127.157 95.6786C127.179 95.8463 127.237 96.0072 127.327 96.1503C127.418 96.2933 127.538 96.4151 127.68 96.5074C127.821 96.5996 127.981 96.66 128.149 96.6845C128.316 96.7089 128.487 96.6968 128.649 96.6491C136.717 94.3393 181.581 82.8226 250.497 90.1529C250.789 90.1866 251.084 90.1087 251.322 89.9348C251.56 89.7609 251.723 89.5037 251.78 89.2145C253.079 82.4938 255.317 63.35 255.886 58.4498C255.92 58.1409 255.832 57.8309 255.64 57.5865C255.448 57.3421 255.168 57.1827 254.86 57.1426C245.604 55.9716 182.431 48.9702 124.358 67.8653C124.095 67.9523 123.871 68.1278 123.723 68.3618C123.576 68.5958 123.514 68.8739 123.548 69.1485Z" fill="#FAFAFA"/>
<path d="M135.121 73.7841L138.922 72.9821L141.609 79.9675L142.291 72.3004L146.084 71.4984L149.413 78.3475L149.461 70.8167L153.246 70.0147L152.749 83.5685L148.827 84.3705L145.066 76.6553L144.264 85.2848L140.342 86.0868L135.121 73.7841Z" fill="#FAFAFA"/>
<path d="M155.107 69.8704L165.926 68.2664L166.279 71.0573L159.51 72.0518L159.774 74.137L166.054 73.2147L166.391 75.8854L160.111 76.8077L160.4 79.3981L167.369 78.3796L167.746 81.347L156.727 82.951L155.107 69.8704Z" fill="#FAFAFA"/>
<path d="M168.677 67.9536L172.735 67.5125L173.601 77.4332L179.929 76.7515L180.217 79.9595L169.791 81.0823L168.677 67.9536Z" fill="#FAFAFA"/>
<path d="M190.122 73.8322L193.739 74.6342C193.589 75.5607 193.248 76.4457 192.737 77.2327C192.267 77.9412 191.628 78.5203 190.876 78.9169C189.975 79.3509 188.996 79.5965 187.997 79.6387C186.804 79.7658 185.599 79.6373 184.46 79.2617C183.474 78.8356 182.637 78.1267 182.054 77.2246C181.286 76.0449 180.872 74.6703 180.859 73.2628C180.649 71.4162 181.179 69.5616 182.335 68.1059C182.954 67.4488 183.699 66.9234 184.526 66.5609C185.353 66.1985 186.244 66.0066 187.147 65.9966C188.508 65.8187 189.89 66.0711 191.101 66.7184C192.164 67.4251 192.964 68.4624 193.378 69.6698L189.825 70.7284C189.728 70.4196 189.579 70.1295 189.384 69.8703C189.138 69.579 188.824 69.3531 188.47 69.2127C187.894 68.9772 187.252 68.9579 186.662 69.1583C186.073 69.3588 185.575 69.7654 185.262 70.3034C184.872 71.1275 184.725 72.0453 184.837 72.95C184.906 74.4096 185.174 75.3961 185.639 75.9094C185.881 76.1652 186.18 76.3603 186.512 76.4787C186.843 76.5972 187.198 76.6357 187.548 76.5911C187.877 76.587 188.201 76.5135 188.5 76.3753C188.798 76.2371 189.064 76.0373 189.28 75.7891C189.723 75.2196 190.013 74.5458 190.122 73.8322Z" fill="#FAFAFA"/>
<path d="M195.223 72.3004C195.16 71.3779 195.281 70.4521 195.578 69.5766C195.876 68.701 196.344 67.8932 196.955 67.1997C197.611 66.5542 198.39 66.0469 199.245 65.708C200.101 65.3691 201.016 65.2055 201.936 65.2268C202.849 65.1358 203.771 65.2311 204.646 65.5068C205.522 65.7825 206.332 66.2329 207.028 66.8308C207.653 67.4802 208.139 68.2507 208.455 69.0948C208.77 69.9389 208.91 70.8388 208.865 71.739C208.934 73.0562 208.687 74.3709 208.143 75.5726C207.652 76.5735 206.88 77.4096 205.922 77.9786C204.806 78.6013 203.55 78.9271 202.272 78.9249C201.011 79.0136 199.746 78.8105 198.575 78.3314C197.568 77.8686 196.728 77.1069 196.169 76.15C195.512 74.976 195.184 73.6456 195.223 72.3004ZM199.289 72.1881C199.218 73.2039 199.502 74.2129 200.091 75.0432C200.341 75.3262 200.655 75.5462 201.006 75.6856C201.357 75.8249 201.736 75.8796 202.112 75.8452C202.497 75.8539 202.878 75.7754 203.228 75.6157C203.578 75.456 203.888 75.2192 204.133 74.9229C204.693 73.9903 204.932 72.9004 204.815 71.8192C204.883 70.8509 204.598 69.8906 204.013 69.1165C203.756 68.8346 203.439 68.6156 203.084 68.4765C202.729 68.3374 202.347 68.282 201.968 68.3145C201.591 68.3133 201.218 68.3971 200.878 68.5595C200.538 68.7219 200.239 68.9589 200.003 69.2528C199.438 70.1188 199.187 71.1515 199.289 72.1801V72.1881Z" fill="#FAFAFA"/>
<path d="M211.335 65.1946H216.684L218.529 73.2708L220.799 65.2508L226.148 65.2989L225.787 78.5319H222.451L222.723 68.4347L219.884 78.5078H216.869L214.583 68.3866L214.31 78.4838H210.974L211.335 65.1946Z" fill="#FAFAFA"/>
<path d="M229.083 65.4272L239.966 65.9165L239.798 68.7395L232.981 68.4347L232.845 70.5761L239.164 70.8568L238.996 73.5114L232.676 73.2307L232.516 75.8452L239.525 76.15L239.333 79.1495L228.249 78.6522L229.083 65.4272Z" fill="#FAFAFA"/>
<rect x="31" y="366" width="23" height="6" rx="3" fill="#2F3F55"/>
<rect x="57" y="366" width="6" height="6" rx="3" fill="url(#paint0_linear_1_2151)"/>
<rect x="66" y="366" width="6" height="6" rx="3" fill="url(#paint1_linear_1_2151)"/>
<defs>
<linearGradient id="paint0_linear_1_2151" x1="60" y1="366" x2="60" y2="372" gradientUnits="userSpaceOnUse">
<stop stop-color="#2F80ED" stop-opacity="0.33"/>
<stop offset="1" stop-color="#2461B3" stop-opacity="0.33"/>
</linearGradient>
<linearGradient id="paint1_linear_1_2151" x1="69" y1="366" x2="69" y2="372" gradientUnits="userSpaceOnUse">
<stop stop-color="#2F80ED" stop-opacity="0.33"/>
<stop offset="1" stop-color="#2461B3" stop-opacity="0.33"/>
</linearGradient>
</defs>
</svg>
